M48
; DRILL file {KiCad 5.1.9} date Sun Mar 14 11:22:27 2021
; FORMAT={-:-/ absolute / metric / decimal}
; #@! TF.CreationDate,2021-03-14T11:22:27+01:00
; #@! TF.GenerationSoftware,Kicad,Pcbnew,5.1.9
; #@! TF.FileFunction,Plated,1,2,PTH
FMAT,2
METRIC
T1C0.400
T2C0.813
T3C1.000
T4C1.200
T5C1.300
T6C1.500
T7C2.200
T8C4.800
%
G90
G05
T1
X61.94Y-103.22
X62.82Y-108.1
X65.59Y-119.03
X65.62Y-99.5
X65.63Y-78.76
X65.64Y-97.833
X66.81Y-118.67
X66.865Y-80.685
X71.67Y-101.52
X71.89Y-95.68
X71.89Y-114.51
X72.06Y-76.22
X72.34Y-120.76
X72.435Y-101.81
X72.47Y-82.4
X73.2Y-93.94
X73.23Y-96.74
X73.33Y-77.98
X73.61Y-112.94
X73.69Y-115.87
X74.11Y-101.79
X74.29Y-120.63
X75.19Y-112.94
X76.65Y-103.23
X80.41Y-107.13
X80.445Y-99.645
X80.47Y-122.76
X82.47Y-120.61
X82.76Y-96.67
X83.3Y-112.21
X83.711Y-92.984
X83.77Y-98.609
X83.96Y-78.62
X84.18Y-112.2
X84.261Y-117.039
X84.418Y-97.658
X84.509Y-93.04
X85.22Y-80.8
X85.66Y-118.965
X90.55Y-114.87
X91.541Y-117.09
X91.755Y-111.865
X91.78Y-77.15
X91.797Y-92.957
X91.9Y-97.95
X92.28Y-78.8
X92.5Y-110.67
X92.73Y-96.89
X92.82Y-92.995
X92.895Y-114.815
X93.57Y-90.34
X93.79Y-108.31
X94.16Y-115.68
X94.18Y-100.71
X94.67Y-81.16
X97.74Y-79.51
X97.88Y-77.76
X98.01Y-116.73
X98.92Y-108.55
X98.97Y-109.45
X99.301Y-77.495
X99.31Y-79.56
X99.38Y-89.88
X99.49Y-83.85
X101.75Y-108.58
X101.8Y-81.97
X101.87Y-89.88
X103.35Y-107.85
X103.51Y-66.89
X103.62Y-85.82
X103.732Y-104.891
X104.875Y-106.855
X104.89Y-69.03
X104.955Y-87.885
X109.82Y-81.89
X110.61Y-70.95
X110.938Y-65.3
X110.995Y-85.675
X111.095Y-66.575
X111.105Y-104.805
X111.2Y-102.45
X111.47Y-84.86
X112.675Y-104.655
X113.46Y-81.96
X113.96Y-84.15
X114.21Y-71.69
X114.57Y-90.98
X115.042Y-81.578
X116.82Y-81.97
X116.86Y-79.25
X118.61Y-86.03
X118.64Y-106.59
X118.7Y-87.59
X120.603Y-87.561
X120.61Y-106.46
X120.647Y-86.5
X120.97Y-116.75
X121.24Y-79.63
X121.27Y-78.58
X122.26Y-116.925
X122.515Y-78.765
X122.56Y-83.33
X122.749Y-102.5
X122.944Y-66.585
X123.57Y-81.625
X123.75Y-104.58
X123.83Y-66.5
X123.88Y-85.5
X123.88Y-97.52
X129.57Y-100.17
X129.79Y-87.09
X129.992Y-116.574
X130.06Y-102.15
X130.11Y-81.78
X130.14Y-64.24
X130.22Y-82.7
X130.34Y-78.71
X130.8Y-117.791
X130.83Y-63.34
X131.42Y-78.86
X131.54Y-115.91
X132.41Y-77.24
X132.894Y-115.425
X132.96Y-67.44
X133.15Y-72.62
X136.48Y-107.94
X136.91Y-89.45
X136.95Y-99.86
X137.25Y-88.14
X139.75Y-100.31
X139.79Y-79.0
X139.8Y-89.5
X139.89Y-88.5
X139.99Y-108.26
X140.57Y-85.03
X141.08Y-104.62
X141.23Y-66.55
X141.48Y-89.175
X141.49Y-86.05
X141.85Y-119.47
X142.7Y-68.89
X142.81Y-106.87
X142.89Y-87.925
X143.28Y-130.71
X143.99Y-119.47
X143.99Y-134.0
X145.58Y-134.53
X146.55Y-118.72
X147.38Y-133.77
X148.14Y-118.72
X148.34Y-108.68
X148.81Y-70.54
X149.155Y-104.515
X149.22Y-88.02
X149.22Y-141.88
X149.3Y-84.0
X149.4Y-66.77
X150.34Y-104.5
X150.34Y-142.57
X150.55Y-83.03
X150.77Y-65.96
X151.43Y-79.18
X152.33Y-85.81
X152.68Y-71.95
X152.8Y-91.33
X152.86Y-119.39
X153.4Y-101.36
X154.38Y-90.49
X154.56Y-88.73
X154.86Y-100.36
X155.26Y-90.87
X155.26Y-93.02
X155.81Y-99.6
X156.31Y-134.37
X156.68Y-123.27
X156.73Y-127.73
X156.78Y-133.52
X156.91Y-101.86
X157.11Y-86.24
X157.18Y-100.91
X157.73Y-92.09
X158.58Y-134.42
X158.85Y-83.31
X159.92Y-130.755
X160.35Y-125.71
X160.36Y-83.52
X160.37Y-121.48
X160.37Y-122.41
X160.45Y-107.16
X160.46Y-69.16
X160.5Y-88.13
X160.696Y-130.95
X161.73Y-90.19
X161.86Y-71.15
X161.89Y-109.29
X161.99Y-128.49
X166.48Y-124.79
X167.863Y-131.08
X167.927Y-88.117
X168.11Y-68.72
X168.16Y-104.47
X168.17Y-121.93
X168.28Y-83.53
X168.36Y-106.25
X168.74Y-131.12
X168.76Y-87.33
X169.14Y-110.58
X169.36Y-83.96
X169.577Y-92.314
X169.61Y-67.45
X171.175Y-124.035
X171.19Y-107.94
X171.19Y-125.7
X171.22Y-118.81
X171.43Y-72.6
X171.59Y-80.24
X171.93Y-92.27
X172.0Y-100.19
X172.018Y-102.7
X172.25Y-110.93
X172.25Y-120.46
X172.955Y-79.27
X173.105Y-111.711
X173.105Y-130.61
X173.16Y-88.84
X173.24Y-98.31
X173.36Y-94.3
X173.635Y-71.975
X173.705Y-132.325
X173.744Y-77.366
X173.98Y-92.76
X174.29Y-87.77
X174.89Y-108.11
X175.81Y-105.26
X177.05Y-141.655
X177.662Y-140.836
X178.17Y-133.5
X178.55Y-73.13
X179.16Y-111.46
X179.24Y-133.73
X179.408Y-75.582
X181.304Y-111.324
X181.471Y-106.76
X181.88Y-98.5
X183.07Y-99.83
X183.68Y-88.29
X183.71Y-85.69
X183.74Y-108.0
X183.76Y-83.21
X183.785Y-73.105
X184.49Y-100.78
X184.74Y-75.5
X184.82Y-87.03
X184.84Y-84.55
X184.97Y-81.92
X185.19Y-71.78
X186.19Y-74.12
X186.38Y-99.57
X186.985Y-91.98
X187.059Y-93.987
X187.77Y-89.61
X187.79Y-94.844
X187.818Y-96.544
X188.28Y-91.81
X189.108Y-76.852
X189.733Y-98.904
X189.79Y-100.23
X189.9Y-95.83
X189.91Y-98.06
T2
X61.25Y-80.435
X61.25Y-88.055
X61.25Y-99.435
X61.25Y-107.055
X61.25Y-118.435
X61.25Y-126.055
X96.04Y-80.455
X96.04Y-88.075
X96.04Y-99.455
X96.04Y-107.075
X96.04Y-118.455
X96.04Y-126.075
X115.28Y-68.565
X115.28Y-76.185
X115.28Y-87.565
X115.28Y-95.185
X115.28Y-106.565
X115.28Y-114.185
X132.68Y-133.666
X134.28Y-66.19
X134.28Y-73.81
X134.28Y-85.19
X134.28Y-92.81
X134.28Y-104.19
X134.28Y-111.81
X140.04Y-131.694
X152.27Y-132.36
X152.27Y-139.98
X153.28Y-68.565
X153.28Y-76.185
X153.28Y-87.565
X153.28Y-95.185
X153.28Y-106.565
X153.28Y-114.185
X154.88Y-132.36
X154.88Y-139.98
X156.28Y-68.565
X156.28Y-76.185
X156.28Y-87.565
X156.28Y-95.185
X156.28Y-106.565
X156.28Y-114.185
X176.14Y-73.042
X176.14Y-75.582
X176.14Y-78.122
X176.14Y-80.662
X176.14Y-83.202
X176.14Y-85.742
X176.14Y-88.282
X176.14Y-90.822
X176.14Y-93.362
X176.14Y-95.902
X176.14Y-98.442
X176.14Y-100.982
X177.466Y-71.772
X177.466Y-74.312
X177.466Y-76.852
X177.466Y-79.392
X177.466Y-81.932
X177.466Y-84.472
X177.466Y-87.012
X177.466Y-89.552
X177.466Y-92.092
X177.466Y-94.632
X177.466Y-97.172
X177.466Y-99.712
X180.28Y-108.0
X180.28Y-110.3
X180.58Y-105.3
X183.12Y-105.3
X183.74Y-108.0
X183.74Y-110.3
X185.66Y-105.3
X188.2Y-105.3
X188.82Y-108.0
X188.82Y-110.3
X191.38Y-73.042
X191.38Y-75.582
X191.38Y-78.122
X191.38Y-80.662
X191.38Y-83.202
X191.38Y-85.742
X191.38Y-88.282
X191.38Y-90.822
X191.38Y-93.362
X191.38Y-95.902
X191.38Y-98.442
X191.38Y-100.982
X192.686Y-71.772
X192.686Y-74.312
X192.686Y-76.852
X192.686Y-79.392
X192.686Y-81.932
X192.686Y-84.472
X192.686Y-87.012
X192.686Y-89.552
X192.686Y-92.092
X192.686Y-94.632
X192.686Y-97.172
X192.686Y-99.712
T4
X64.15Y-88.145
X64.15Y-107.145
X64.15Y-126.145
X69.25Y-90.145
X69.25Y-109.145
X69.25Y-128.145
X74.35Y-88.145
X74.35Y-107.145
X74.35Y-126.145
X82.93Y-126.3
X82.94Y-88.165
X82.94Y-107.165
X88.03Y-128.3
X88.04Y-90.165
X88.04Y-109.165
X93.13Y-126.3
X93.14Y-88.165
X93.14Y-107.165
X102.18Y-76.275
X102.18Y-95.275
X102.18Y-114.275
X107.28Y-78.275
X107.28Y-97.275
X107.28Y-116.275
X112.38Y-76.275
X112.38Y-95.275
X112.38Y-114.275
X121.17Y-73.8
X121.18Y-92.9
X121.18Y-111.9
X126.27Y-75.8
X126.28Y-94.9
X126.28Y-113.9
X131.37Y-73.8
X131.38Y-92.9
X131.38Y-111.9
X137.33Y-140.833
X137.942Y-135.389
X140.18Y-76.275
X140.18Y-95.275
X140.18Y-114.275
X140.582Y-145.242
X145.28Y-78.275
X145.28Y-97.275
X145.28Y-116.275
X150.38Y-76.275
X150.38Y-95.275
X150.38Y-114.275
X159.142Y-140.44
X159.18Y-78.65
X159.18Y-97.65
X159.18Y-116.65
X164.242Y-142.44
X164.28Y-80.65
X164.28Y-99.65
X164.28Y-118.65
X169.342Y-140.44
X169.38Y-78.65
X169.38Y-97.65
X169.38Y-116.65
X187.877Y-145.246
X190.517Y-135.393
X191.129Y-140.837
T5
X192.18Y-103.75
X192.18Y-110.25
T6
X65.44Y-86.785
X65.44Y-105.785
X65.44Y-124.785
X66.71Y-88.245
X66.71Y-88.745
X66.71Y-89.325
X66.71Y-107.245
X66.71Y-107.745
X66.71Y-108.325
X66.71Y-126.245
X66.71Y-126.745
X66.71Y-127.325
X71.79Y-88.245
X71.79Y-88.745
X71.79Y-89.325
X71.79Y-107.245
X71.79Y-107.745
X71.79Y-108.325
X71.79Y-126.245
X71.79Y-126.745
X71.79Y-127.325
X73.06Y-86.785
X73.06Y-105.785
X73.06Y-124.785
X84.22Y-124.94
X84.23Y-86.805
X84.23Y-105.805
X85.49Y-126.4
X85.49Y-126.9
X85.49Y-127.48
X85.5Y-88.265
X85.5Y-88.765
X85.5Y-89.345
X85.5Y-107.265
X85.5Y-107.765
X85.5Y-108.345
X90.57Y-126.4
X90.57Y-126.9
X90.57Y-127.48
X90.58Y-88.265
X90.58Y-88.765
X90.58Y-89.345
X90.58Y-107.265
X90.58Y-107.765
X90.58Y-108.345
X91.84Y-124.94
X91.85Y-86.805
X91.85Y-105.805
X103.47Y-74.915
X103.47Y-93.915
X103.47Y-112.915
X104.74Y-76.375
X104.74Y-76.875
X104.74Y-77.455
X104.74Y-95.375
X104.74Y-95.875
X104.74Y-96.455
X104.74Y-114.375
X104.74Y-114.875
X104.74Y-115.455
X109.82Y-76.375
X109.82Y-76.875
X109.82Y-77.455
X109.82Y-95.375
X109.82Y-95.875
X109.82Y-96.455
X109.82Y-114.375
X109.82Y-114.875
X109.82Y-115.455
X111.09Y-74.915
X111.09Y-93.915
X111.09Y-112.915
X122.46Y-72.44
X122.47Y-91.54
X122.47Y-110.54
X123.73Y-73.9
X123.73Y-74.4
X123.73Y-74.98
X123.74Y-93.0
X123.74Y-93.5
X123.74Y-94.08
X123.74Y-112.0
X123.74Y-112.5
X123.74Y-113.08
X128.81Y-73.9
X128.81Y-74.4
X128.81Y-74.98
X128.82Y-93.0
X128.82Y-93.5
X128.82Y-94.08
X128.82Y-112.0
X128.82Y-112.5
X128.82Y-113.08
X130.08Y-72.44
X130.09Y-91.54
X130.09Y-110.54
X137.465Y-138.167
X138.025Y-138.017
X138.508Y-137.888
X138.779Y-143.074
X139.34Y-142.924
X139.589Y-136.283
X139.823Y-142.795
X141.47Y-74.915
X141.47Y-93.915
X141.47Y-112.915
X141.562Y-143.644
X142.74Y-76.375
X142.74Y-76.875
X142.74Y-77.455
X142.74Y-95.375
X142.74Y-95.875
X142.74Y-96.455
X142.74Y-114.375
X142.74Y-114.875
X142.74Y-115.455
X147.82Y-76.375
X147.82Y-76.875
X147.82Y-77.455
X147.82Y-95.375
X147.82Y-95.875
X147.82Y-96.455
X147.82Y-114.375
X147.82Y-114.875
X147.82Y-115.455
X149.09Y-74.915
X149.09Y-93.915
X149.09Y-112.915
X160.432Y-139.08
X160.47Y-77.29
X160.47Y-96.29
X160.47Y-115.29
X161.702Y-140.54
X161.702Y-141.04
X161.702Y-141.62
X161.74Y-78.75
X161.74Y-79.25
X161.74Y-79.83
X161.74Y-97.75
X161.74Y-98.25
X161.74Y-98.83
X161.74Y-116.75
X161.74Y-117.25
X161.74Y-117.83
X166.782Y-140.54
X166.782Y-141.04
X166.782Y-141.62
X166.82Y-78.75
X166.82Y-79.25
X166.82Y-79.83
X166.82Y-97.75
X166.82Y-98.25
X166.82Y-98.83
X166.82Y-116.75
X166.82Y-117.25
X166.82Y-117.83
X168.052Y-139.08
X168.09Y-77.29
X168.09Y-96.29
X168.09Y-115.29
X186.897Y-143.648
X188.636Y-142.799
X188.87Y-136.287
X189.119Y-142.928
X189.68Y-143.078
X189.951Y-137.892
X190.434Y-138.021
X190.994Y-138.171
T7
X177.03Y-115.75
X192.88Y-123.21
T8
X78.66Y-112.79
X78.8Y-93.81
X97.67Y-93.72
X97.71Y-112.74
X122.03Y-122.75
X150.88Y-124.12
X154.78Y-83.0
T3
G00X182.43Y-114.6
M15
G01X181.93Y-114.6
M16
G05
G00X182.43Y-117.05
M15
G01X181.93Y-117.05
M16
G05
G00X183.93Y-112.85
M15
G01X183.43Y-112.85
M16
G05
G00X183.93Y-118.8
M15
G01X183.43Y-118.8
M16
G05
G00X187.93Y-112.85
M15
G01X187.43Y-112.85
M16
G05
G00X187.93Y-118.8
M15
G01X187.43Y-118.8
M16
G05
G00X190.93Y-112.85
M15
G01X190.43Y-112.85
M16
G05
G00X190.93Y-118.8
M15
G01X190.43Y-118.8
M16
G05
T0
M30
