G04 #@! TF.GenerationSoftware,KiCad,Pcbnew,5.1.9*
G04 #@! TF.CreationDate,2021-03-14T11:22:16+01:00*
G04 #@! TF.ProjectId,thorne-classic,74686f72-6e65-42d6-936c-61737369632e,1.1*
G04 #@! TF.SameCoordinates,Original*
G04 #@! TF.FileFunction,Profile,NP*
%FSLAX46Y46*%
G04 Gerber Fmt 4.6, Leading zero omitted, Abs format (unit mm)*
G04 Created by KiCad (PCBNEW 5.1.9) date 2021-03-14 11:22:16*
%MOMM*%
%LPD*%
G01*
G04 APERTURE LIST*
G04 #@! TA.AperFunction,Profile*
%ADD10C,0.150000*%
G04 #@! TD*
G04 APERTURE END LIST*
D10*
X190010883Y-155407582D02*
G75*
G03*
X190542963Y-155039410I49117J497582D01*
G01*
X137956447Y-155253553D02*
G75*
G03*
X138310000Y-155400000I353553J353553D01*
G01*
X137956447Y-155253553D02*
X121133553Y-131456447D01*
X190010883Y-155407582D02*
X138310000Y-155400000D01*
X197800000Y-127960000D02*
X190542963Y-155039410D01*
X196466666Y-63400000D02*
G75*
G03*
X196466666Y-63400000I-1666666J0D01*
G01*
X192300000Y-63400000D02*
X197300000Y-63400000D01*
X194800000Y-60900000D02*
X194800000Y-65900000D01*
X173260000Y-66030000D02*
X173280000Y-67500000D01*
X173260000Y-66030000D02*
G75*
G03*
X172760000Y-65530000I-500000J0D01*
G01*
X173280000Y-67500000D02*
G75*
G03*
X173780000Y-68000000I500000J0D01*
G01*
X197300000Y-68000000D02*
X173780000Y-68000000D01*
X121133553Y-131456447D02*
G75*
G03*
X120780000Y-131310000I-353553J-353553D01*
G01*
X60170000Y-130830000D02*
G75*
G03*
X60670000Y-131330000I500000J0D01*
G01*
X60670000Y-75080000D02*
G75*
G03*
X60170000Y-75580000I0J-500000D01*
G01*
X77670000Y-131330000D02*
G75*
G03*
X78170000Y-130830000I0J500000D01*
G01*
X79170000Y-130830000D02*
G75*
G03*
X79670000Y-131330000I500000J0D01*
G01*
X78670000Y-123080000D02*
G75*
G03*
X78170000Y-123580000I0J-500000D01*
G01*
X79170000Y-123580000D02*
G75*
G03*
X78670000Y-123080000I-500000J0D01*
G01*
X78670000Y-121080000D02*
G75*
G03*
X79170000Y-120580000I0J500000D01*
G01*
X78170000Y-120580000D02*
G75*
G03*
X78670000Y-121080000I500000J0D01*
G01*
X78670000Y-104080000D02*
G75*
G03*
X78170000Y-104580000I0J-500000D01*
G01*
X79170000Y-104580000D02*
G75*
G03*
X78670000Y-104080000I-500000J0D01*
G01*
X78170000Y-101580000D02*
G75*
G03*
X78670000Y-102080000I500000J0D01*
G01*
X78670000Y-102080000D02*
G75*
G03*
X79170000Y-101580000I0J500000D01*
G01*
X78170000Y-75580000D02*
G75*
G03*
X77670000Y-75080000I-500000J0D01*
G01*
X79670000Y-75080000D02*
G75*
G03*
X79170000Y-75580000I0J-500000D01*
G01*
X79170000Y-85580000D02*
G75*
G03*
X78670000Y-85080000I-500000J0D01*
G01*
X78670000Y-85080000D02*
G75*
G03*
X78170000Y-85580000I0J-500000D01*
G01*
X78670000Y-83080000D02*
G75*
G03*
X79170000Y-82580000I0J500000D01*
G01*
X78170000Y-82580000D02*
G75*
G03*
X78670000Y-83080000I500000J0D01*
G01*
X97780000Y-75030000D02*
G75*
G03*
X98280000Y-74530000I0J500000D01*
G01*
X98780000Y-63250000D02*
G75*
G03*
X98280000Y-63750000I0J-500000D01*
G01*
X116780000Y-63250000D02*
G75*
G03*
X117280000Y-62750000I0J500000D01*
G01*
X117750000Y-60670000D02*
G75*
G03*
X117250000Y-61170000I0J-500000D01*
G01*
X135250000Y-61170000D02*
G75*
G03*
X134750000Y-60670000I-500000J0D01*
G01*
X135280000Y-62750000D02*
G75*
G03*
X135780000Y-63250000I500000J0D01*
G01*
X154280000Y-63750000D02*
G75*
G03*
X153780000Y-63250000I-500000J0D01*
G01*
X154260000Y-65030000D02*
G75*
G03*
X154760000Y-65530000I500000J0D01*
G01*
X197800000Y-68500000D02*
G75*
G03*
X197300000Y-68000000I-500000J0D01*
G01*
X150925643Y-138984694D02*
X150019777Y-135603955D01*
X197800000Y-68500000D02*
X197800000Y-127960000D01*
X78170000Y-130830000D02*
X78170000Y-123580000D01*
X120780000Y-131310000D02*
X79670000Y-131330000D01*
X79170000Y-123580000D02*
X79170000Y-130830000D01*
X78170000Y-120580000D02*
X78170000Y-104580000D01*
X79170000Y-104580000D02*
X79170000Y-120580000D01*
X79170000Y-101580000D02*
X79170000Y-85580000D01*
X78170000Y-85580000D02*
X78170000Y-101580000D01*
X77670000Y-75080000D02*
X60670000Y-75080000D01*
X79170000Y-82580000D02*
X79170000Y-75580000D01*
X78170000Y-75580000D02*
X78170000Y-82580000D01*
X178529420Y-135495270D02*
X177593093Y-138955514D01*
X182891813Y-136707504D02*
X178529420Y-135495270D01*
X182026197Y-140045274D02*
X182891813Y-136707504D01*
X177593093Y-138955514D02*
X182026197Y-140045274D01*
X166100921Y-128796349D02*
X162583837Y-128807000D01*
X166080614Y-133357005D02*
X166100921Y-128796349D01*
X162563529Y-133367657D02*
X166080614Y-133357005D01*
X162583837Y-128807000D02*
X162563529Y-133367657D01*
X146627273Y-140136439D02*
X150925643Y-138984694D01*
X145721407Y-136755700D02*
X146627273Y-140136439D01*
X150019777Y-135603955D02*
X145721407Y-136755700D01*
X166030000Y-105000000D02*
X162530000Y-105000000D01*
X166030000Y-109500000D02*
X166030000Y-105000000D01*
X162530000Y-109500000D02*
X166030000Y-109500000D01*
X162530000Y-105000000D02*
X162530000Y-109500000D01*
X147030000Y-102650000D02*
X143530000Y-102650000D01*
X147030000Y-107150000D02*
X147030000Y-102650000D01*
X143530000Y-107100000D02*
X147030000Y-107150000D01*
X143530000Y-102650000D02*
X143530000Y-107100000D01*
X128030000Y-100300000D02*
X124530000Y-100300000D01*
X128030000Y-104750000D02*
X128030000Y-100300000D01*
X124530000Y-104750000D02*
X128030000Y-104750000D01*
X124530000Y-100300000D02*
X124530000Y-104750000D01*
X109030000Y-102650000D02*
X105530000Y-102650000D01*
X109030000Y-107150000D02*
X109030000Y-102650000D01*
X105530000Y-107100000D02*
X109030000Y-107150000D01*
X105530000Y-102650000D02*
X105530000Y-107100000D01*
X166030000Y-86000000D02*
X162530000Y-86000000D01*
X166030000Y-90500000D02*
X166030000Y-86000000D01*
X162530000Y-90500000D02*
X166030000Y-90500000D01*
X162530000Y-86000000D02*
X162530000Y-90500000D01*
X147030000Y-83650000D02*
X143530000Y-83650000D01*
X147030000Y-88150000D02*
X147030000Y-83650000D01*
X143530000Y-88100000D02*
X147030000Y-88150000D01*
X143530000Y-83650000D02*
X143530000Y-88100000D01*
X128030000Y-81300000D02*
X124530000Y-81300000D01*
X128030000Y-85750000D02*
X128030000Y-81300000D01*
X124530000Y-85750000D02*
X128030000Y-85750000D01*
X124530000Y-81300000D02*
X124530000Y-85750000D01*
X109030000Y-83650000D02*
X105530000Y-83650000D01*
X109030000Y-88150000D02*
X109030000Y-83650000D01*
X105530000Y-88100000D02*
X109030000Y-88150000D01*
X105530000Y-83650000D02*
X105530000Y-88100000D01*
X166030000Y-67000000D02*
X162530000Y-67000000D01*
X166030000Y-71500000D02*
X166030000Y-67000000D01*
X162530000Y-71500000D02*
X166030000Y-71500000D01*
X162530000Y-67000000D02*
X162530000Y-71500000D01*
X147030000Y-64650000D02*
X143530000Y-64650000D01*
X147030000Y-69150000D02*
X147030000Y-64650000D01*
X143530000Y-69100000D02*
X147030000Y-69150000D01*
X143530000Y-64650000D02*
X143530000Y-69100000D01*
X128030000Y-62250000D02*
X124530000Y-62250000D01*
X128030000Y-66750000D02*
X128030000Y-62250000D01*
X124530000Y-66700000D02*
X128030000Y-66750000D01*
X124530000Y-62250000D02*
X124530000Y-66700000D01*
X109030000Y-64650000D02*
X105530000Y-64650000D01*
X109030000Y-69150000D02*
X109030000Y-64650000D01*
X105530000Y-69100000D02*
X109030000Y-69150000D01*
X105530000Y-64650000D02*
X105530000Y-69100000D01*
X89770000Y-114830000D02*
X86270000Y-114830000D01*
X89770000Y-119330000D02*
X89770000Y-114830000D01*
X86270000Y-119330000D02*
X89770000Y-119330000D01*
X86270000Y-114830000D02*
X86270000Y-119330000D01*
X70990000Y-114520000D02*
X67490000Y-114520000D01*
X70990000Y-119020000D02*
X70990000Y-114520000D01*
X67490000Y-119020000D02*
X70990000Y-119020000D01*
X67490000Y-114520000D02*
X67490000Y-119020000D01*
X89810000Y-95520000D02*
X86310000Y-95520000D01*
X89810000Y-100020000D02*
X89810000Y-95520000D01*
X86310000Y-100020000D02*
X89810000Y-100020000D01*
X86310000Y-95520000D02*
X86310000Y-100020000D01*
X70990000Y-95520000D02*
X67490000Y-95520000D01*
X70990000Y-100020000D02*
X70990000Y-95520000D01*
X67490000Y-100020000D02*
X70990000Y-100020000D01*
X67490000Y-95520000D02*
X67490000Y-100020000D01*
X89810000Y-76520000D02*
X86310000Y-76520000D01*
X89810000Y-81020000D02*
X89810000Y-76520000D01*
X86310000Y-81020000D02*
X89810000Y-81020000D01*
X86310000Y-76520000D02*
X86310000Y-81020000D01*
X70990000Y-76520000D02*
X67490000Y-76520000D01*
X70990000Y-81020000D02*
X70990000Y-76520000D01*
X67490000Y-81020000D02*
X70990000Y-81020000D01*
X67490000Y-76520000D02*
X67490000Y-81020000D01*
X60670000Y-131330000D02*
X77670000Y-131330000D01*
X60170000Y-75580000D02*
X60170000Y-130830000D01*
X97780000Y-75030000D02*
X79670000Y-75080000D01*
X98280000Y-63750000D02*
X98280000Y-74530000D01*
X116780000Y-63250000D02*
X98780000Y-63250000D01*
X117250000Y-61170000D02*
X117280000Y-62750000D01*
X134750000Y-60670000D02*
X117750000Y-60670000D01*
X135280000Y-62750000D02*
X135250000Y-61170000D01*
X153780000Y-63250000D02*
X135780000Y-63250000D01*
X154260000Y-65030000D02*
X154280000Y-63750000D01*
X172760000Y-65530000D02*
X154760000Y-65530000D01*
M02*
