M48
; DRILL file {KiCad 5.1.9} date Sun Mar 14 11:22:27 2021
; FORMAT={-:-/ absolute / metric / decimal}
; #@! TF.CreationDate,2021-03-14T11:22:27+01:00
; #@! TF.GenerationSoftware,Kicad,Pcbnew,5.1.9
; #@! TF.FileFunction,NonPlated,1,2,NPTH
FMAT,2
METRIC
T1C1.000
T2C1.200
T3C1.700
T4C1.900
T5C4.000
%
G90
G05
T1
X64.03Y-80.045
X64.03Y-99.045
X64.03Y-118.045
X74.47Y-80.045
X74.47Y-99.045
X74.47Y-118.045
X82.81Y-118.2
X82.82Y-80.065
X82.82Y-99.065
X93.25Y-118.2
X93.26Y-80.065
X93.26Y-99.065
X102.06Y-68.175
X102.06Y-87.175
X102.06Y-106.175
X112.5Y-68.175
X112.5Y-87.175
X112.5Y-106.175
X121.05Y-65.7
X121.06Y-84.8
X121.06Y-103.8
X131.49Y-65.7
X131.5Y-84.8
X131.5Y-103.8
X140.06Y-68.175
X140.06Y-87.175
X140.06Y-106.175
X145.735Y-133.177
X148.437Y-143.261
X150.5Y-68.175
X150.5Y-87.175
X150.5Y-106.175
X159.022Y-132.34
X159.06Y-70.55
X159.06Y-89.55
X159.06Y-108.55
X169.462Y-132.34
X169.5Y-70.55
X169.5Y-89.55
X169.5Y-108.55
X180.022Y-143.265
X182.724Y-133.181
T2
X185.48Y-114.95
X185.48Y-116.7
X192.48Y-114.95
X192.48Y-116.7
T3
X64.17Y-84.245
X64.17Y-103.245
X64.17Y-122.245
X74.33Y-84.245
X74.33Y-103.245
X74.33Y-122.245
X82.95Y-122.4
X82.96Y-84.265
X82.96Y-103.265
X93.11Y-122.4
X93.12Y-84.265
X93.12Y-103.265
X102.2Y-72.375
X102.2Y-91.375
X102.2Y-110.375
X112.36Y-72.375
X112.36Y-91.375
X112.36Y-110.375
X121.19Y-69.9
X121.2Y-89.0
X121.2Y-108.0
X131.35Y-69.9
X131.36Y-89.0
X131.36Y-108.0
X140.2Y-72.375
X140.2Y-91.375
X140.2Y-110.375
X141.714Y-134.399
X144.344Y-144.213
X150.36Y-72.375
X150.36Y-91.375
X150.36Y-110.375
X159.162Y-136.54
X159.2Y-74.75
X159.2Y-93.75
X159.2Y-112.75
X169.322Y-136.54
X169.36Y-74.75
X169.36Y-93.75
X169.36Y-112.75
X184.115Y-144.217
X186.745Y-134.403
T4
X63.75Y-84.245
X63.75Y-103.245
X63.75Y-122.245
X74.75Y-84.245
X74.75Y-103.245
X74.75Y-122.245
X82.53Y-122.4
X82.54Y-84.265
X82.54Y-103.265
X93.53Y-122.4
X93.54Y-84.265
X93.54Y-103.265
X101.78Y-72.375
X101.78Y-91.375
X101.78Y-110.375
X112.78Y-72.375
X112.78Y-91.375
X112.78Y-110.375
X120.77Y-69.9
X120.78Y-89.0
X120.78Y-108.0
X131.77Y-69.9
X131.78Y-89.0
X131.78Y-108.0
X139.78Y-72.375
X139.78Y-91.375
X139.78Y-110.375
X141.605Y-133.993
X144.452Y-144.619
X150.78Y-72.375
X150.78Y-91.375
X150.78Y-110.375
X158.742Y-136.54
X158.78Y-74.75
X158.78Y-93.75
X158.78Y-112.75
X169.742Y-136.54
X169.78Y-74.75
X169.78Y-93.75
X169.78Y-112.75
X184.006Y-144.623
X186.854Y-133.997
T5
X69.25Y-84.245
X69.25Y-103.245
X69.25Y-122.245
X88.03Y-122.4
X88.04Y-84.265
X88.04Y-103.265
X107.28Y-72.375
X107.28Y-91.375
X107.28Y-110.375
X126.27Y-69.9
X126.28Y-89.0
X126.28Y-108.0
X143.029Y-139.306
X145.28Y-72.375
X145.28Y-91.375
X145.28Y-110.375
X164.242Y-136.54
X164.28Y-74.75
X164.28Y-93.75
X164.28Y-112.75
X185.43Y-139.31
T0
M30
