G04 #@! TF.GenerationSoftware,KiCad,Pcbnew,5.1.9*
G04 #@! TF.CreationDate,2021-03-14T11:22:16+01:00*
G04 #@! TF.ProjectId,thorne-classic,74686f72-6e65-42d6-936c-61737369632e,1.1*
G04 #@! TF.SameCoordinates,Original*
G04 #@! TF.FileFunction,Soldermask,Top*
G04 #@! TF.FilePolarity,Negative*
%FSLAX46Y46*%
G04 Gerber Fmt 4.6, Leading zero omitted, Abs format (unit mm)*
G04 Created by KiCad (PCBNEW 5.1.9) date 2021-03-14 11:22:16*
%MOMM*%
%LPD*%
G01*
G04 APERTURE LIST*
%ADD10C,0.125000*%
%ADD11C,1.924000*%
%ADD12C,1.400000*%
%ADD13C,2.100000*%
%ADD14C,2.800000*%
%ADD15C,2.600000*%
%ADD16C,2.300000*%
%ADD17C,4.400000*%
%ADD18C,1.797000*%
%ADD19C,5.400000*%
%ADD20O,2.900000X2.100000*%
%ADD21C,1.600000*%
%ADD22C,2.400000*%
G04 APERTURE END LIST*
D10*
X98876488Y-122927380D02*
X99447916Y-122927380D01*
X99162202Y-123927380D02*
X99162202Y-122927380D01*
X99781250Y-123927380D02*
X99781250Y-122927380D01*
X100209821Y-123927380D02*
X100209821Y-123403571D01*
X100162202Y-123308333D01*
X100066964Y-123260714D01*
X99924107Y-123260714D01*
X99828869Y-123308333D01*
X99781250Y-123355952D01*
X100828869Y-123927380D02*
X100733630Y-123879761D01*
X100686011Y-123832142D01*
X100638392Y-123736904D01*
X100638392Y-123451190D01*
X100686011Y-123355952D01*
X100733630Y-123308333D01*
X100828869Y-123260714D01*
X100971726Y-123260714D01*
X101066964Y-123308333D01*
X101114583Y-123355952D01*
X101162202Y-123451190D01*
X101162202Y-123736904D01*
X101114583Y-123832142D01*
X101066964Y-123879761D01*
X100971726Y-123927380D01*
X100828869Y-123927380D01*
X101590773Y-123927380D02*
X101590773Y-123260714D01*
X101590773Y-123451190D02*
X101638392Y-123355952D01*
X101686011Y-123308333D01*
X101781250Y-123260714D01*
X101876488Y-123260714D01*
X102209821Y-123260714D02*
X102209821Y-123927380D01*
X102209821Y-123355952D02*
X102257440Y-123308333D01*
X102352678Y-123260714D01*
X102495535Y-123260714D01*
X102590773Y-123308333D01*
X102638392Y-123403571D01*
X102638392Y-123927380D01*
X103495535Y-123879761D02*
X103400297Y-123927380D01*
X103209821Y-123927380D01*
X103114583Y-123879761D01*
X103066964Y-123784523D01*
X103066964Y-123403571D01*
X103114583Y-123308333D01*
X103209821Y-123260714D01*
X103400297Y-123260714D01*
X103495535Y-123308333D01*
X103543154Y-123403571D01*
X103543154Y-123498809D01*
X103066964Y-123594047D01*
X105305059Y-123832142D02*
X105257440Y-123879761D01*
X105114583Y-123927380D01*
X105019345Y-123927380D01*
X104876488Y-123879761D01*
X104781250Y-123784523D01*
X104733630Y-123689285D01*
X104686011Y-123498809D01*
X104686011Y-123355952D01*
X104733630Y-123165476D01*
X104781250Y-123070238D01*
X104876488Y-122975000D01*
X105019345Y-122927380D01*
X105114583Y-122927380D01*
X105257440Y-122975000D01*
X105305059Y-123022619D01*
X105876488Y-123927380D02*
X105781250Y-123879761D01*
X105733630Y-123784523D01*
X105733630Y-122927380D01*
X106686011Y-123927380D02*
X106686011Y-123403571D01*
X106638392Y-123308333D01*
X106543154Y-123260714D01*
X106352678Y-123260714D01*
X106257440Y-123308333D01*
X106686011Y-123879761D02*
X106590773Y-123927380D01*
X106352678Y-123927380D01*
X106257440Y-123879761D01*
X106209821Y-123784523D01*
X106209821Y-123689285D01*
X106257440Y-123594047D01*
X106352678Y-123546428D01*
X106590773Y-123546428D01*
X106686011Y-123498809D01*
X107114583Y-123879761D02*
X107209821Y-123927380D01*
X107400297Y-123927380D01*
X107495535Y-123879761D01*
X107543154Y-123784523D01*
X107543154Y-123736904D01*
X107495535Y-123641666D01*
X107400297Y-123594047D01*
X107257440Y-123594047D01*
X107162202Y-123546428D01*
X107114583Y-123451190D01*
X107114583Y-123403571D01*
X107162202Y-123308333D01*
X107257440Y-123260714D01*
X107400297Y-123260714D01*
X107495535Y-123308333D01*
X107924107Y-123879761D02*
X108019345Y-123927380D01*
X108209821Y-123927380D01*
X108305059Y-123879761D01*
X108352678Y-123784523D01*
X108352678Y-123736904D01*
X108305059Y-123641666D01*
X108209821Y-123594047D01*
X108066964Y-123594047D01*
X107971726Y-123546428D01*
X107924107Y-123451190D01*
X107924107Y-123403571D01*
X107971726Y-123308333D01*
X108066964Y-123260714D01*
X108209821Y-123260714D01*
X108305059Y-123308333D01*
X108781250Y-123927380D02*
X108781250Y-123260714D01*
X108781250Y-122927380D02*
X108733630Y-122975000D01*
X108781250Y-123022619D01*
X108828869Y-122975000D01*
X108781250Y-122927380D01*
X108781250Y-123022619D01*
X109686011Y-123879761D02*
X109590773Y-123927380D01*
X109400297Y-123927380D01*
X109305059Y-123879761D01*
X109257440Y-123832142D01*
X109209821Y-123736904D01*
X109209821Y-123451190D01*
X109257440Y-123355952D01*
X109305059Y-123308333D01*
X109400297Y-123260714D01*
X109590773Y-123260714D01*
X109686011Y-123308333D01*
X110781250Y-123260714D02*
X111019345Y-123927380D01*
X111257440Y-123260714D01*
X112162202Y-123927380D02*
X111590773Y-123927380D01*
X111876488Y-123927380D02*
X111876488Y-122927380D01*
X111781250Y-123070238D01*
X111686011Y-123165476D01*
X111590773Y-123213095D01*
X112590773Y-123832142D02*
X112638392Y-123879761D01*
X112590773Y-123927380D01*
X112543154Y-123879761D01*
X112590773Y-123832142D01*
X112590773Y-123927380D01*
X113257440Y-122927380D02*
X113352678Y-122927380D01*
X113447916Y-122975000D01*
X113495535Y-123022619D01*
X113543154Y-123117857D01*
X113590773Y-123308333D01*
X113590773Y-123546428D01*
X113543154Y-123736904D01*
X113495535Y-123832142D01*
X113447916Y-123879761D01*
X113352678Y-123927380D01*
X113257440Y-123927380D01*
X113162202Y-123879761D01*
X113114583Y-123832142D01*
X113066964Y-123736904D01*
X113019345Y-123546428D01*
X113019345Y-123308333D01*
X113066964Y-123117857D01*
X113114583Y-123022619D01*
X113162202Y-122975000D01*
X113257440Y-122927380D01*
X99019345Y-125552380D02*
X99019345Y-124552380D01*
X99400297Y-124552380D01*
X99495535Y-124600000D01*
X99543154Y-124647619D01*
X99590773Y-124742857D01*
X99590773Y-124885714D01*
X99543154Y-124980952D01*
X99495535Y-125028571D01*
X99400297Y-125076190D01*
X99019345Y-125076190D01*
X100590773Y-125457142D02*
X100543154Y-125504761D01*
X100400297Y-125552380D01*
X100305059Y-125552380D01*
X100162202Y-125504761D01*
X100066964Y-125409523D01*
X100019345Y-125314285D01*
X99971726Y-125123809D01*
X99971726Y-124980952D01*
X100019345Y-124790476D01*
X100066964Y-124695238D01*
X100162202Y-124600000D01*
X100305059Y-124552380D01*
X100400297Y-124552380D01*
X100543154Y-124600000D01*
X100590773Y-124647619D01*
X101352678Y-125028571D02*
X101495535Y-125076190D01*
X101543154Y-125123809D01*
X101590773Y-125219047D01*
X101590773Y-125361904D01*
X101543154Y-125457142D01*
X101495535Y-125504761D01*
X101400297Y-125552380D01*
X101019345Y-125552380D01*
X101019345Y-124552380D01*
X101352678Y-124552380D01*
X101447916Y-124600000D01*
X101495535Y-124647619D01*
X101543154Y-124742857D01*
X101543154Y-124838095D01*
X101495535Y-124933333D01*
X101447916Y-124980952D01*
X101352678Y-125028571D01*
X101019345Y-125028571D01*
X103209821Y-125552380D02*
X103209821Y-124552380D01*
X103209821Y-125504761D02*
X103114583Y-125552380D01*
X102924107Y-125552380D01*
X102828869Y-125504761D01*
X102781250Y-125457142D01*
X102733630Y-125361904D01*
X102733630Y-125076190D01*
X102781250Y-124980952D01*
X102828869Y-124933333D01*
X102924107Y-124885714D01*
X103114583Y-124885714D01*
X103209821Y-124933333D01*
X104066964Y-125504761D02*
X103971726Y-125552380D01*
X103781250Y-125552380D01*
X103686011Y-125504761D01*
X103638392Y-125409523D01*
X103638392Y-125028571D01*
X103686011Y-124933333D01*
X103781250Y-124885714D01*
X103971726Y-124885714D01*
X104066964Y-124933333D01*
X104114583Y-125028571D01*
X104114583Y-125123809D01*
X103638392Y-125219047D01*
X104495535Y-125504761D02*
X104590773Y-125552380D01*
X104781250Y-125552380D01*
X104876488Y-125504761D01*
X104924107Y-125409523D01*
X104924107Y-125361904D01*
X104876488Y-125266666D01*
X104781250Y-125219047D01*
X104638392Y-125219047D01*
X104543154Y-125171428D01*
X104495535Y-125076190D01*
X104495535Y-125028571D01*
X104543154Y-124933333D01*
X104638392Y-124885714D01*
X104781250Y-124885714D01*
X104876488Y-124933333D01*
X105352678Y-125552380D02*
X105352678Y-124885714D01*
X105352678Y-124552380D02*
X105305059Y-124600000D01*
X105352678Y-124647619D01*
X105400297Y-124600000D01*
X105352678Y-124552380D01*
X105352678Y-124647619D01*
X106257440Y-124885714D02*
X106257440Y-125695238D01*
X106209821Y-125790476D01*
X106162202Y-125838095D01*
X106066964Y-125885714D01*
X105924107Y-125885714D01*
X105828869Y-125838095D01*
X106257440Y-125504761D02*
X106162202Y-125552380D01*
X105971726Y-125552380D01*
X105876488Y-125504761D01*
X105828869Y-125457142D01*
X105781250Y-125361904D01*
X105781250Y-125076190D01*
X105828869Y-124980952D01*
X105876488Y-124933333D01*
X105971726Y-124885714D01*
X106162202Y-124885714D01*
X106257440Y-124933333D01*
X106733630Y-124885714D02*
X106733630Y-125552380D01*
X106733630Y-124980952D02*
X106781250Y-124933333D01*
X106876488Y-124885714D01*
X107019345Y-124885714D01*
X107114583Y-124933333D01*
X107162202Y-125028571D01*
X107162202Y-125552380D01*
X108019345Y-125504761D02*
X107924107Y-125552380D01*
X107733630Y-125552380D01*
X107638392Y-125504761D01*
X107590773Y-125409523D01*
X107590773Y-125028571D01*
X107638392Y-124933333D01*
X107733630Y-124885714D01*
X107924107Y-124885714D01*
X108019345Y-124933333D01*
X108066964Y-125028571D01*
X108066964Y-125123809D01*
X107590773Y-125219047D01*
X108924107Y-125552380D02*
X108924107Y-124552380D01*
X108924107Y-125504761D02*
X108828869Y-125552380D01*
X108638392Y-125552380D01*
X108543154Y-125504761D01*
X108495535Y-125457142D01*
X108447916Y-125361904D01*
X108447916Y-125076190D01*
X108495535Y-124980952D01*
X108543154Y-124933333D01*
X108638392Y-124885714D01*
X108828869Y-124885714D01*
X108924107Y-124933333D01*
X110162202Y-125552380D02*
X110162202Y-124552380D01*
X110162202Y-124933333D02*
X110257440Y-124885714D01*
X110447916Y-124885714D01*
X110543154Y-124933333D01*
X110590773Y-124980952D01*
X110638392Y-125076190D01*
X110638392Y-125361904D01*
X110590773Y-125457142D01*
X110543154Y-125504761D01*
X110447916Y-125552380D01*
X110257440Y-125552380D01*
X110162202Y-125504761D01*
X110971726Y-124885714D02*
X111209821Y-125552380D01*
X111447916Y-124885714D02*
X111209821Y-125552380D01*
X111114583Y-125790476D01*
X111066964Y-125838095D01*
X110971726Y-125885714D01*
X112590773Y-125552380D02*
X112590773Y-124552380D01*
X113019345Y-125552380D02*
X113019345Y-125028571D01*
X112971726Y-124933333D01*
X112876488Y-124885714D01*
X112733630Y-124885714D01*
X112638392Y-124933333D01*
X112590773Y-124980952D01*
X113924107Y-125552380D02*
X113924107Y-125028571D01*
X113876488Y-124933333D01*
X113781250Y-124885714D01*
X113590773Y-124885714D01*
X113495535Y-124933333D01*
X113924107Y-125504761D02*
X113828869Y-125552380D01*
X113590773Y-125552380D01*
X113495535Y-125504761D01*
X113447916Y-125409523D01*
X113447916Y-125314285D01*
X113495535Y-125219047D01*
X113590773Y-125171428D01*
X113828869Y-125171428D01*
X113924107Y-125123809D01*
X114543154Y-125552380D02*
X114447916Y-125504761D01*
X114400297Y-125409523D01*
X114400297Y-124552380D01*
X114781250Y-124885714D02*
X115162202Y-124885714D01*
X114924107Y-125552380D02*
X114924107Y-124695238D01*
X114971726Y-124600000D01*
X115066964Y-124552380D01*
X115162202Y-124552380D01*
X115924107Y-125552380D02*
X115924107Y-124552380D01*
X115924107Y-125504761D02*
X115828869Y-125552380D01*
X115638392Y-125552380D01*
X115543154Y-125504761D01*
X115495535Y-125457142D01*
X115447916Y-125361904D01*
X115447916Y-125076190D01*
X115495535Y-124980952D01*
X115543154Y-124933333D01*
X115638392Y-124885714D01*
X115828869Y-124885714D01*
X115924107Y-124933333D01*
X116828869Y-125552380D02*
X116828869Y-125028571D01*
X116781250Y-124933333D01*
X116686011Y-124885714D01*
X116495535Y-124885714D01*
X116400297Y-124933333D01*
X116828869Y-125504761D02*
X116733630Y-125552380D01*
X116495535Y-125552380D01*
X116400297Y-125504761D01*
X116352678Y-125409523D01*
X116352678Y-125314285D01*
X116400297Y-125219047D01*
X116495535Y-125171428D01*
X116733630Y-125171428D01*
X116828869Y-125123809D01*
X117305059Y-124885714D02*
X117305059Y-125552380D01*
X117305059Y-124980952D02*
X117352678Y-124933333D01*
X117447916Y-124885714D01*
X117590773Y-124885714D01*
X117686011Y-124933333D01*
X117733630Y-125028571D01*
X117733630Y-125552380D01*
X118590773Y-125504761D02*
X118495535Y-125552380D01*
X118305059Y-125552380D01*
X118209821Y-125504761D01*
X118162202Y-125409523D01*
X118162202Y-125028571D01*
X118209821Y-124933333D01*
X118305059Y-124885714D01*
X118495535Y-124885714D01*
X118590773Y-124933333D01*
X118638392Y-125028571D01*
X118638392Y-125123809D01*
X118162202Y-125219047D01*
X99019345Y-127177380D02*
X99019345Y-126177380D01*
X99495535Y-126510714D02*
X99495535Y-127177380D01*
X99495535Y-126605952D02*
X99543154Y-126558333D01*
X99638392Y-126510714D01*
X99781250Y-126510714D01*
X99876488Y-126558333D01*
X99924107Y-126653571D01*
X99924107Y-127177380D01*
X100352678Y-127129761D02*
X100447916Y-127177380D01*
X100638392Y-127177380D01*
X100733630Y-127129761D01*
X100781250Y-127034523D01*
X100781250Y-126986904D01*
X100733630Y-126891666D01*
X100638392Y-126844047D01*
X100495535Y-126844047D01*
X100400297Y-126796428D01*
X100352678Y-126701190D01*
X100352678Y-126653571D01*
X100400297Y-126558333D01*
X100495535Y-126510714D01*
X100638392Y-126510714D01*
X100733630Y-126558333D01*
X101209821Y-126510714D02*
X101209821Y-127510714D01*
X101209821Y-126558333D02*
X101305059Y-126510714D01*
X101495535Y-126510714D01*
X101590773Y-126558333D01*
X101638392Y-126605952D01*
X101686011Y-126701190D01*
X101686011Y-126986904D01*
X101638392Y-127082142D01*
X101590773Y-127129761D01*
X101495535Y-127177380D01*
X101305059Y-127177380D01*
X101209821Y-127129761D01*
X102114583Y-127177380D02*
X102114583Y-126510714D01*
X102114583Y-126177380D02*
X102066964Y-126225000D01*
X102114583Y-126272619D01*
X102162202Y-126225000D01*
X102114583Y-126177380D01*
X102114583Y-126272619D01*
X102590773Y-127177380D02*
X102590773Y-126510714D01*
X102590773Y-126701190D02*
X102638392Y-126605952D01*
X102686011Y-126558333D01*
X102781250Y-126510714D01*
X102876488Y-126510714D01*
X103638392Y-127177380D02*
X103638392Y-126653571D01*
X103590773Y-126558333D01*
X103495535Y-126510714D01*
X103305059Y-126510714D01*
X103209821Y-126558333D01*
X103638392Y-127129761D02*
X103543154Y-127177380D01*
X103305059Y-127177380D01*
X103209821Y-127129761D01*
X103162202Y-127034523D01*
X103162202Y-126939285D01*
X103209821Y-126844047D01*
X103305059Y-126796428D01*
X103543154Y-126796428D01*
X103638392Y-126748809D01*
X103971726Y-126510714D02*
X104352678Y-126510714D01*
X104114583Y-126177380D02*
X104114583Y-127034523D01*
X104162202Y-127129761D01*
X104257440Y-127177380D01*
X104352678Y-127177380D01*
X104686011Y-127177380D02*
X104686011Y-126510714D01*
X104686011Y-126177380D02*
X104638392Y-126225000D01*
X104686011Y-126272619D01*
X104733630Y-126225000D01*
X104686011Y-126177380D01*
X104686011Y-126272619D01*
X105305059Y-127177380D02*
X105209821Y-127129761D01*
X105162202Y-127082142D01*
X105114583Y-126986904D01*
X105114583Y-126701190D01*
X105162202Y-126605952D01*
X105209821Y-126558333D01*
X105305059Y-126510714D01*
X105447916Y-126510714D01*
X105543154Y-126558333D01*
X105590773Y-126605952D01*
X105638392Y-126701190D01*
X105638392Y-126986904D01*
X105590773Y-127082142D01*
X105543154Y-127129761D01*
X105447916Y-127177380D01*
X105305059Y-127177380D01*
X106066964Y-126510714D02*
X106066964Y-127177380D01*
X106066964Y-126605952D02*
X106114583Y-126558333D01*
X106209821Y-126510714D01*
X106352678Y-126510714D01*
X106447916Y-126558333D01*
X106495535Y-126653571D01*
X106495535Y-127177380D01*
X107733630Y-127177380D02*
X107733630Y-126177380D01*
X107733630Y-126558333D02*
X107828869Y-126510714D01*
X108019345Y-126510714D01*
X108114583Y-126558333D01*
X108162202Y-126605952D01*
X108209821Y-126701190D01*
X108209821Y-126986904D01*
X108162202Y-127082142D01*
X108114583Y-127129761D01*
X108019345Y-127177380D01*
X107828869Y-127177380D01*
X107733630Y-127129761D01*
X108543154Y-126510714D02*
X108781250Y-127177380D01*
X109019345Y-126510714D02*
X108781250Y-127177380D01*
X108686011Y-127415476D01*
X108638392Y-127463095D01*
X108543154Y-127510714D01*
X110019345Y-126510714D02*
X110400297Y-126510714D01*
X110162202Y-127177380D02*
X110162202Y-126320238D01*
X110209821Y-126225000D01*
X110305059Y-126177380D01*
X110400297Y-126177380D01*
X110876488Y-127177380D02*
X110781250Y-127129761D01*
X110733630Y-127082142D01*
X110686011Y-126986904D01*
X110686011Y-126701190D01*
X110733630Y-126605952D01*
X110781250Y-126558333D01*
X110876488Y-126510714D01*
X111019345Y-126510714D01*
X111114583Y-126558333D01*
X111162202Y-126605952D01*
X111209821Y-126701190D01*
X111209821Y-126986904D01*
X111162202Y-127082142D01*
X111114583Y-127129761D01*
X111019345Y-127177380D01*
X110876488Y-127177380D01*
X111781250Y-127177380D02*
X111686011Y-127129761D01*
X111638392Y-127082142D01*
X111590773Y-126986904D01*
X111590773Y-126701190D01*
X111638392Y-126605952D01*
X111686011Y-126558333D01*
X111781250Y-126510714D01*
X111924107Y-126510714D01*
X112019345Y-126558333D01*
X112066964Y-126605952D01*
X112114583Y-126701190D01*
X112114583Y-126986904D01*
X112066964Y-127082142D01*
X112019345Y-127129761D01*
X111924107Y-127177380D01*
X111781250Y-127177380D01*
X112495535Y-127129761D02*
X112590773Y-127177380D01*
X112781250Y-127177380D01*
X112876488Y-127129761D01*
X112924107Y-127034523D01*
X112924107Y-126986904D01*
X112876488Y-126891666D01*
X112781250Y-126844047D01*
X112638392Y-126844047D01*
X112543154Y-126796428D01*
X112495535Y-126701190D01*
X112495535Y-126653571D01*
X112543154Y-126558333D01*
X112638392Y-126510714D01*
X112781250Y-126510714D01*
X112876488Y-126558333D01*
X113209821Y-126510714D02*
X113590773Y-126510714D01*
X113352678Y-126177380D02*
X113352678Y-127034523D01*
X113400297Y-127129761D01*
X113495535Y-127177380D01*
X113590773Y-127177380D01*
X114352678Y-127177380D02*
X114352678Y-126653571D01*
X114305059Y-126558333D01*
X114209821Y-126510714D01*
X114019345Y-126510714D01*
X113924107Y-126558333D01*
X114352678Y-127129761D02*
X114257440Y-127177380D01*
X114019345Y-127177380D01*
X113924107Y-127129761D01*
X113876488Y-127034523D01*
X113876488Y-126939285D01*
X113924107Y-126844047D01*
X114019345Y-126796428D01*
X114257440Y-126796428D01*
X114352678Y-126748809D01*
X114828869Y-126510714D02*
X114828869Y-127177380D01*
X114828869Y-126605952D02*
X114876488Y-126558333D01*
X114971726Y-126510714D01*
X115114583Y-126510714D01*
X115209821Y-126558333D01*
X115257440Y-126653571D01*
X115257440Y-127177380D01*
D11*
X191380000Y-73042000D03*
X191380000Y-75582000D03*
X191380000Y-78122000D03*
X191380000Y-80662000D03*
X191380000Y-83202000D03*
X191380000Y-85742000D03*
X191380000Y-88282000D03*
X191380000Y-90822000D03*
X191380000Y-93362000D03*
X191380000Y-95902000D03*
X191380000Y-98442000D03*
X191380000Y-100982000D03*
X176140000Y-100982000D03*
X176140000Y-98442000D03*
X176140000Y-95902000D03*
X176140000Y-93362000D03*
X176140000Y-90822000D03*
X176140000Y-88282000D03*
X176140000Y-85742000D03*
X176140000Y-83202000D03*
X176140000Y-80662000D03*
X176140000Y-78122000D03*
X176140000Y-75582000D03*
X176140000Y-73042000D03*
X192686400Y-71772000D03*
X192686400Y-74312000D03*
X192686400Y-76852000D03*
X192686400Y-79392000D03*
X192686400Y-81932000D03*
X192686400Y-84472000D03*
X192686400Y-87012000D03*
X192686400Y-89552000D03*
X192686400Y-92092000D03*
X192686400Y-94632000D03*
X192686400Y-97172000D03*
X192686400Y-99712000D03*
X177466400Y-99712000D03*
X177466400Y-97172000D03*
X177466400Y-94632000D03*
X177466400Y-92092000D03*
X177466400Y-89552000D03*
X177466400Y-87012000D03*
X177466400Y-84472000D03*
X177466400Y-81932000D03*
X177466400Y-79392000D03*
X177466400Y-76852000D03*
X177466400Y-74312000D03*
X177466400Y-71772000D03*
D12*
X148436846Y-143261063D03*
X145734775Y-133176797D03*
D13*
X144343723Y-144212873D03*
X141714121Y-134399067D03*
D14*
X139339657Y-142924107D03*
X139822619Y-142794699D03*
X138507817Y-137887795D03*
X138024855Y-138017203D03*
G36*
G01*
X138671647Y-137593836D02*
X138671647Y-137593836D01*
G75*
G02*
X138432211Y-136235926I559237J798673D01*
G01*
X139149181Y-135211986D01*
G75*
G02*
X140507091Y-134972550I798673J-559237D01*
G01*
X140507091Y-134972550D01*
G75*
G02*
X140746527Y-136330460I-559237J-798673D01*
G01*
X140029557Y-137354400D01*
G75*
G02*
X138671647Y-137593836I-798673J559237D01*
G01*
G37*
X138779419Y-143074222D03*
G36*
G01*
X143011663Y-144319737D02*
X143011663Y-144319737D01*
G75*
G02*
X141715960Y-144791334I-883650J412053D01*
G01*
X140583076Y-144263062D01*
G75*
G02*
X140111479Y-142967359I412053J883650D01*
G01*
X140111479Y-142967359D01*
G75*
G02*
X141407182Y-142495762I883650J-412053D01*
G01*
X142540066Y-143024034D01*
G75*
G02*
X143011663Y-144319737I-412053J-883650D01*
G01*
G37*
X137464618Y-138167319D03*
D15*
X137329960Y-140833002D03*
G36*
G01*
X141759988Y-145790990D02*
X141759988Y-145790990D01*
G75*
G02*
X140663624Y-146190034I-747704J348660D01*
G01*
X139802632Y-145788546D01*
G75*
G02*
X139403588Y-144692182I348660J747704D01*
G01*
X139403588Y-144692182D01*
G75*
G02*
X140499952Y-144293138I747704J-348660D01*
G01*
X141360944Y-144694626D01*
G75*
G02*
X141759988Y-145790990I-348660J-747704D01*
G01*
G37*
D16*
X141605417Y-133993378D03*
X144452427Y-144618562D03*
D17*
X143028922Y-139305970D03*
G36*
G01*
X137196184Y-136454040D02*
X137196184Y-136454040D01*
G75*
G02*
X136993585Y-135305039I473201J675800D01*
G01*
X137538483Y-134526845D01*
G75*
G02*
X138687484Y-134324246I675800J-473201D01*
G01*
X138687484Y-134324246D01*
G75*
G02*
X138890083Y-135473247I-473201J-675800D01*
G01*
X138345185Y-136251441D01*
G75*
G02*
X137196184Y-136454040I-675800J473201D01*
G01*
G37*
G36*
G01*
X133805000Y-89925000D02*
X134755000Y-89925000D01*
G75*
G02*
X134955000Y-90125000I0J-200000D01*
G01*
X134955000Y-91425000D01*
G75*
G02*
X134755000Y-91625000I-200000J0D01*
G01*
X133805000Y-91625000D01*
G75*
G02*
X133605000Y-91425000I0J200000D01*
G01*
X133605000Y-90125000D01*
G75*
G02*
X133805000Y-89925000I200000J0D01*
G01*
G37*
D18*
X134280000Y-92810000D03*
G36*
G01*
X133581500Y-84291500D02*
X134978500Y-84291500D01*
G75*
G02*
X135178500Y-84491500I0J-200000D01*
G01*
X135178500Y-85888500D01*
G75*
G02*
X134978500Y-86088500I-200000J0D01*
G01*
X133581500Y-86088500D01*
G75*
G02*
X133381500Y-85888500I0J200000D01*
G01*
X133381500Y-84491500D01*
G75*
G02*
X133581500Y-84291500I200000J0D01*
G01*
G37*
G36*
G01*
X133805000Y-86375000D02*
X134755000Y-86375000D01*
G75*
G02*
X134955000Y-86575000I0J-200000D01*
G01*
X134955000Y-87875000D01*
G75*
G02*
X134755000Y-88075000I-200000J0D01*
G01*
X133805000Y-88075000D01*
G75*
G02*
X133605000Y-87875000I0J200000D01*
G01*
X133605000Y-86575000D01*
G75*
G02*
X133805000Y-86375000I200000J0D01*
G01*
G37*
D19*
X122030000Y-122750000D03*
D12*
X150500000Y-68175000D03*
X140060000Y-68175000D03*
D13*
X150360000Y-72375000D03*
X140200000Y-72375000D03*
D14*
X147820000Y-76875000D03*
X147820000Y-76375000D03*
X142740000Y-76375000D03*
X142740000Y-76875000D03*
G36*
G01*
X142498460Y-76140671D02*
X142498460Y-76140671D01*
G75*
G02*
X141124849Y-76020496I-626718J746893D01*
G01*
X140321365Y-75062940D01*
G75*
G02*
X140441540Y-73689329I746893J626718D01*
G01*
X140441540Y-73689329D01*
G75*
G02*
X141815151Y-73809504I626718J-746893D01*
G01*
X142618635Y-74767060D01*
G75*
G02*
X142498460Y-76140671I-746893J-626718D01*
G01*
G37*
X147820000Y-77455000D03*
G36*
G01*
X150118460Y-73689329D02*
X150118460Y-73689329D01*
G75*
G02*
X150238635Y-75062940I-626718J-746893D01*
G01*
X149435151Y-76020496D01*
G75*
G02*
X148061540Y-76140671I-746893J626718D01*
G01*
X148061540Y-76140671D01*
G75*
G02*
X147941365Y-74767060I626718J746893D01*
G01*
X148744849Y-73809504D01*
G75*
G02*
X150118460Y-73689329I746893J-626718D01*
G01*
G37*
X142740000Y-77455000D03*
D15*
X145280000Y-78275000D03*
G36*
G01*
X151215624Y-75279142D02*
X151215624Y-75279142D01*
G75*
G02*
X151317311Y-76441429I-530300J-631987D01*
G01*
X150706663Y-77169171D01*
G75*
G02*
X149544376Y-77270858I-631987J530300D01*
G01*
X149544376Y-77270858D01*
G75*
G02*
X149442689Y-76108571I530300J631987D01*
G01*
X150053337Y-75380829D01*
G75*
G02*
X151215624Y-75279142I631987J-530300D01*
G01*
G37*
D16*
X139780000Y-72375000D03*
X150780000Y-72375000D03*
D17*
X145280000Y-72375000D03*
G36*
G01*
X141015624Y-77270858D02*
X141015624Y-77270858D01*
G75*
G02*
X139853337Y-77169171I-530300J631987D01*
G01*
X139242689Y-76441429D01*
G75*
G02*
X139344376Y-75279142I631987J530300D01*
G01*
X139344376Y-75279142D01*
G75*
G02*
X140506663Y-75380829I530300J-631987D01*
G01*
X141117311Y-76108571D01*
G75*
G02*
X141015624Y-77270858I-631987J-530300D01*
G01*
G37*
D12*
X93260000Y-80065000D03*
X82820000Y-80065000D03*
D13*
X93120000Y-84265000D03*
X82960000Y-84265000D03*
D14*
X90580000Y-88765000D03*
X90580000Y-88265000D03*
X85500000Y-88265000D03*
X85500000Y-88765000D03*
G36*
G01*
X85258460Y-88030671D02*
X85258460Y-88030671D01*
G75*
G02*
X83884849Y-87910496I-626718J746893D01*
G01*
X83081365Y-86952940D01*
G75*
G02*
X83201540Y-85579329I746893J626718D01*
G01*
X83201540Y-85579329D01*
G75*
G02*
X84575151Y-85699504I626718J-746893D01*
G01*
X85378635Y-86657060D01*
G75*
G02*
X85258460Y-88030671I-746893J-626718D01*
G01*
G37*
X90580000Y-89345000D03*
G36*
G01*
X92878460Y-85579329D02*
X92878460Y-85579329D01*
G75*
G02*
X92998635Y-86952940I-626718J-746893D01*
G01*
X92195151Y-87910496D01*
G75*
G02*
X90821540Y-88030671I-746893J626718D01*
G01*
X90821540Y-88030671D01*
G75*
G02*
X90701365Y-86657060I626718J746893D01*
G01*
X91504849Y-85699504D01*
G75*
G02*
X92878460Y-85579329I746893J-626718D01*
G01*
G37*
X85500000Y-89345000D03*
D15*
X88040000Y-90165000D03*
G36*
G01*
X93975624Y-87169142D02*
X93975624Y-87169142D01*
G75*
G02*
X94077311Y-88331429I-530300J-631987D01*
G01*
X93466663Y-89059171D01*
G75*
G02*
X92304376Y-89160858I-631987J530300D01*
G01*
X92304376Y-89160858D01*
G75*
G02*
X92202689Y-87998571I530300J631987D01*
G01*
X92813337Y-87270829D01*
G75*
G02*
X93975624Y-87169142I631987J-530300D01*
G01*
G37*
D16*
X82540000Y-84265000D03*
X93540000Y-84265000D03*
D17*
X88040000Y-84265000D03*
G36*
G01*
X83775624Y-89160858D02*
X83775624Y-89160858D01*
G75*
G02*
X82613337Y-89059171I-530300J631987D01*
G01*
X82002689Y-88331429D01*
G75*
G02*
X82104376Y-87169142I631987J530300D01*
G01*
X82104376Y-87169142D01*
G75*
G02*
X83266663Y-87270829I530300J-631987D01*
G01*
X83877311Y-87998571D01*
G75*
G02*
X83775624Y-89160858I-631987J-530300D01*
G01*
G37*
G36*
G01*
X87030000Y-112655000D02*
X87030000Y-113655000D01*
G75*
G02*
X86830000Y-113855000I-200000J0D01*
G01*
X84830000Y-113855000D01*
G75*
G02*
X84630000Y-113655000I0J200000D01*
G01*
X84630000Y-112655000D01*
G75*
G02*
X84830000Y-112455000I200000J0D01*
G01*
X86830000Y-112455000D01*
G75*
G02*
X87030000Y-112655000I0J-200000D01*
G01*
G37*
G36*
G01*
X87030000Y-110905000D02*
X87030000Y-111905000D01*
G75*
G02*
X86830000Y-112105000I-200000J0D01*
G01*
X84830000Y-112105000D01*
G75*
G02*
X84630000Y-111905000I0J200000D01*
G01*
X84630000Y-110905000D01*
G75*
G02*
X84830000Y-110705000I200000J0D01*
G01*
X86830000Y-110705000D01*
G75*
G02*
X87030000Y-110905000I0J-200000D01*
G01*
G37*
G36*
G01*
X91430000Y-112655000D02*
X91430000Y-113655000D01*
G75*
G02*
X91230000Y-113855000I-200000J0D01*
G01*
X89230000Y-113855000D01*
G75*
G02*
X89030000Y-113655000I0J200000D01*
G01*
X89030000Y-112655000D01*
G75*
G02*
X89230000Y-112455000I200000J0D01*
G01*
X91230000Y-112455000D01*
G75*
G02*
X91430000Y-112655000I0J-200000D01*
G01*
G37*
G36*
G01*
X91430000Y-110905000D02*
X91430000Y-111905000D01*
G75*
G02*
X91230000Y-112105000I-200000J0D01*
G01*
X89230000Y-112105000D01*
G75*
G02*
X89030000Y-111905000I0J200000D01*
G01*
X89030000Y-110905000D01*
G75*
G02*
X89230000Y-110705000I200000J0D01*
G01*
X91230000Y-110705000D01*
G75*
G02*
X91430000Y-110905000I0J-200000D01*
G01*
G37*
G36*
G01*
X154405000Y-137095000D02*
X155355000Y-137095000D01*
G75*
G02*
X155555000Y-137295000I0J-200000D01*
G01*
X155555000Y-138595000D01*
G75*
G02*
X155355000Y-138795000I-200000J0D01*
G01*
X154405000Y-138795000D01*
G75*
G02*
X154205000Y-138595000I0J200000D01*
G01*
X154205000Y-137295000D01*
G75*
G02*
X154405000Y-137095000I200000J0D01*
G01*
G37*
D18*
X154880000Y-139980000D03*
G36*
G01*
X154181500Y-131461500D02*
X155578500Y-131461500D01*
G75*
G02*
X155778500Y-131661500I0J-200000D01*
G01*
X155778500Y-133058500D01*
G75*
G02*
X155578500Y-133258500I-200000J0D01*
G01*
X154181500Y-133258500D01*
G75*
G02*
X153981500Y-133058500I0J200000D01*
G01*
X153981500Y-131661500D01*
G75*
G02*
X154181500Y-131461500I200000J0D01*
G01*
G37*
G36*
G01*
X154405000Y-133545000D02*
X155355000Y-133545000D01*
G75*
G02*
X155555000Y-133745000I0J-200000D01*
G01*
X155555000Y-135045000D01*
G75*
G02*
X155355000Y-135245000I-200000J0D01*
G01*
X154405000Y-135245000D01*
G75*
G02*
X154205000Y-135045000I0J200000D01*
G01*
X154205000Y-133745000D01*
G75*
G02*
X154405000Y-133545000I200000J0D01*
G01*
G37*
G36*
G01*
X160932180Y-130705386D02*
X160932180Y-129705386D01*
G75*
G02*
X161132180Y-129505386I200000J0D01*
G01*
X162732180Y-129505386D01*
G75*
G02*
X162932180Y-129705386I0J-200000D01*
G01*
X162932180Y-130705386D01*
G75*
G02*
X162732180Y-130905386I-200000J0D01*
G01*
X161132180Y-130905386D01*
G75*
G02*
X160932180Y-130705386I0J200000D01*
G01*
G37*
G36*
G01*
X160932180Y-132455386D02*
X160932180Y-131455386D01*
G75*
G02*
X161132180Y-131255386I200000J0D01*
G01*
X162732180Y-131255386D01*
G75*
G02*
X162932180Y-131455386I0J-200000D01*
G01*
X162932180Y-132455386D01*
G75*
G02*
X162732180Y-132655386I-200000J0D01*
G01*
X161132180Y-132655386D01*
G75*
G02*
X160932180Y-132455386I0J200000D01*
G01*
G37*
G36*
G01*
X165732180Y-130705386D02*
X165732180Y-129705386D01*
G75*
G02*
X165932180Y-129505386I200000J0D01*
G01*
X167532180Y-129505386D01*
G75*
G02*
X167732180Y-129705386I0J-200000D01*
G01*
X167732180Y-130705386D01*
G75*
G02*
X167532180Y-130905386I-200000J0D01*
G01*
X165932180Y-130905386D01*
G75*
G02*
X165732180Y-130705386I0J200000D01*
G01*
G37*
G36*
G01*
X165732180Y-132455386D02*
X165732180Y-131455386D01*
G75*
G02*
X165932180Y-131255386I200000J0D01*
G01*
X167532180Y-131255386D01*
G75*
G02*
X167732180Y-131455386I0J-200000D01*
G01*
X167732180Y-132455386D01*
G75*
G02*
X167532180Y-132655386I-200000J0D01*
G01*
X165932180Y-132655386D01*
G75*
G02*
X165732180Y-132455386I0J200000D01*
G01*
G37*
D19*
X78660000Y-112790000D03*
G36*
G01*
X84610000Y-116715000D02*
X84610000Y-115715000D01*
G75*
G02*
X84810000Y-115515000I200000J0D01*
G01*
X86410000Y-115515000D01*
G75*
G02*
X86610000Y-115715000I0J-200000D01*
G01*
X86610000Y-116715000D01*
G75*
G02*
X86410000Y-116915000I-200000J0D01*
G01*
X84810000Y-116915000D01*
G75*
G02*
X84610000Y-116715000I0J200000D01*
G01*
G37*
G36*
G01*
X84610000Y-118465000D02*
X84610000Y-117465000D01*
G75*
G02*
X84810000Y-117265000I200000J0D01*
G01*
X86410000Y-117265000D01*
G75*
G02*
X86610000Y-117465000I0J-200000D01*
G01*
X86610000Y-118465000D01*
G75*
G02*
X86410000Y-118665000I-200000J0D01*
G01*
X84810000Y-118665000D01*
G75*
G02*
X84610000Y-118465000I0J200000D01*
G01*
G37*
G36*
G01*
X89410000Y-116715000D02*
X89410000Y-115715000D01*
G75*
G02*
X89610000Y-115515000I200000J0D01*
G01*
X91210000Y-115515000D01*
G75*
G02*
X91410000Y-115715000I0J-200000D01*
G01*
X91410000Y-116715000D01*
G75*
G02*
X91210000Y-116915000I-200000J0D01*
G01*
X89610000Y-116915000D01*
G75*
G02*
X89410000Y-116715000I0J200000D01*
G01*
G37*
G36*
G01*
X89410000Y-118465000D02*
X89410000Y-117465000D01*
G75*
G02*
X89610000Y-117265000I200000J0D01*
G01*
X91210000Y-117265000D01*
G75*
G02*
X91410000Y-117465000I0J-200000D01*
G01*
X91410000Y-118465000D01*
G75*
G02*
X91210000Y-118665000I-200000J0D01*
G01*
X89610000Y-118665000D01*
G75*
G02*
X89410000Y-118465000I0J200000D01*
G01*
G37*
G36*
G01*
X127280000Y-78425000D02*
X127280000Y-77425000D01*
G75*
G02*
X127480000Y-77225000I200000J0D01*
G01*
X129480000Y-77225000D01*
G75*
G02*
X129680000Y-77425000I0J-200000D01*
G01*
X129680000Y-78425000D01*
G75*
G02*
X129480000Y-78625000I-200000J0D01*
G01*
X127480000Y-78625000D01*
G75*
G02*
X127280000Y-78425000I0J200000D01*
G01*
G37*
G36*
G01*
X127280000Y-80175000D02*
X127280000Y-79175000D01*
G75*
G02*
X127480000Y-78975000I200000J0D01*
G01*
X129480000Y-78975000D01*
G75*
G02*
X129680000Y-79175000I0J-200000D01*
G01*
X129680000Y-80175000D01*
G75*
G02*
X129480000Y-80375000I-200000J0D01*
G01*
X127480000Y-80375000D01*
G75*
G02*
X127280000Y-80175000I0J200000D01*
G01*
G37*
G36*
G01*
X122880000Y-78425000D02*
X122880000Y-77425000D01*
G75*
G02*
X123080000Y-77225000I200000J0D01*
G01*
X125080000Y-77225000D01*
G75*
G02*
X125280000Y-77425000I0J-200000D01*
G01*
X125280000Y-78425000D01*
G75*
G02*
X125080000Y-78625000I-200000J0D01*
G01*
X123080000Y-78625000D01*
G75*
G02*
X122880000Y-78425000I0J200000D01*
G01*
G37*
G36*
G01*
X122880000Y-80175000D02*
X122880000Y-79175000D01*
G75*
G02*
X123080000Y-78975000I200000J0D01*
G01*
X125080000Y-78975000D01*
G75*
G02*
X125280000Y-79175000I0J-200000D01*
G01*
X125280000Y-80175000D01*
G75*
G02*
X125080000Y-80375000I-200000J0D01*
G01*
X123080000Y-80375000D01*
G75*
G02*
X122880000Y-80175000I0J200000D01*
G01*
G37*
G36*
G01*
X95565000Y-85190000D02*
X96515000Y-85190000D01*
G75*
G02*
X96715000Y-85390000I0J-200000D01*
G01*
X96715000Y-86690000D01*
G75*
G02*
X96515000Y-86890000I-200000J0D01*
G01*
X95565000Y-86890000D01*
G75*
G02*
X95365000Y-86690000I0J200000D01*
G01*
X95365000Y-85390000D01*
G75*
G02*
X95565000Y-85190000I200000J0D01*
G01*
G37*
D18*
X96040000Y-88075000D03*
G36*
G01*
X95341500Y-79556500D02*
X96738500Y-79556500D01*
G75*
G02*
X96938500Y-79756500I0J-200000D01*
G01*
X96938500Y-81153500D01*
G75*
G02*
X96738500Y-81353500I-200000J0D01*
G01*
X95341500Y-81353500D01*
G75*
G02*
X95141500Y-81153500I0J200000D01*
G01*
X95141500Y-79756500D01*
G75*
G02*
X95341500Y-79556500I200000J0D01*
G01*
G37*
G36*
G01*
X95565000Y-81640000D02*
X96515000Y-81640000D01*
G75*
G02*
X96715000Y-81840000I0J-200000D01*
G01*
X96715000Y-83140000D01*
G75*
G02*
X96515000Y-83340000I-200000J0D01*
G01*
X95565000Y-83340000D01*
G75*
G02*
X95365000Y-83140000I0J200000D01*
G01*
X95365000Y-81840000D01*
G75*
G02*
X95565000Y-81640000I200000J0D01*
G01*
G37*
G36*
G01*
X103880000Y-85500000D02*
X103880000Y-84500000D01*
G75*
G02*
X104080000Y-84300000I200000J0D01*
G01*
X105680000Y-84300000D01*
G75*
G02*
X105880000Y-84500000I0J-200000D01*
G01*
X105880000Y-85500000D01*
G75*
G02*
X105680000Y-85700000I-200000J0D01*
G01*
X104080000Y-85700000D01*
G75*
G02*
X103880000Y-85500000I0J200000D01*
G01*
G37*
G36*
G01*
X103880000Y-87250000D02*
X103880000Y-86250000D01*
G75*
G02*
X104080000Y-86050000I200000J0D01*
G01*
X105680000Y-86050000D01*
G75*
G02*
X105880000Y-86250000I0J-200000D01*
G01*
X105880000Y-87250000D01*
G75*
G02*
X105680000Y-87450000I-200000J0D01*
G01*
X104080000Y-87450000D01*
G75*
G02*
X103880000Y-87250000I0J200000D01*
G01*
G37*
G36*
G01*
X108680000Y-85500000D02*
X108680000Y-84500000D01*
G75*
G02*
X108880000Y-84300000I200000J0D01*
G01*
X110480000Y-84300000D01*
G75*
G02*
X110680000Y-84500000I0J-200000D01*
G01*
X110680000Y-85500000D01*
G75*
G02*
X110480000Y-85700000I-200000J0D01*
G01*
X108880000Y-85700000D01*
G75*
G02*
X108680000Y-85500000I0J200000D01*
G01*
G37*
G36*
G01*
X108680000Y-87250000D02*
X108680000Y-86250000D01*
G75*
G02*
X108880000Y-86050000I200000J0D01*
G01*
X110480000Y-86050000D01*
G75*
G02*
X110680000Y-86250000I0J-200000D01*
G01*
X110680000Y-87250000D01*
G75*
G02*
X110480000Y-87450000I-200000J0D01*
G01*
X108880000Y-87450000D01*
G75*
G02*
X108680000Y-87250000I0J200000D01*
G01*
G37*
G36*
G01*
X114805000Y-92300000D02*
X115755000Y-92300000D01*
G75*
G02*
X115955000Y-92500000I0J-200000D01*
G01*
X115955000Y-93800000D01*
G75*
G02*
X115755000Y-94000000I-200000J0D01*
G01*
X114805000Y-94000000D01*
G75*
G02*
X114605000Y-93800000I0J200000D01*
G01*
X114605000Y-92500000D01*
G75*
G02*
X114805000Y-92300000I200000J0D01*
G01*
G37*
X115280000Y-95185000D03*
G36*
G01*
X114581500Y-86666500D02*
X115978500Y-86666500D01*
G75*
G02*
X116178500Y-86866500I0J-200000D01*
G01*
X116178500Y-88263500D01*
G75*
G02*
X115978500Y-88463500I-200000J0D01*
G01*
X114581500Y-88463500D01*
G75*
G02*
X114381500Y-88263500I0J200000D01*
G01*
X114381500Y-86866500D01*
G75*
G02*
X114581500Y-86666500I200000J0D01*
G01*
G37*
G36*
G01*
X114805000Y-88750000D02*
X115755000Y-88750000D01*
G75*
G02*
X115955000Y-88950000I0J-200000D01*
G01*
X115955000Y-90250000D01*
G75*
G02*
X115755000Y-90450000I-200000J0D01*
G01*
X114805000Y-90450000D01*
G75*
G02*
X114605000Y-90250000I0J200000D01*
G01*
X114605000Y-88950000D01*
G75*
G02*
X114805000Y-88750000I200000J0D01*
G01*
G37*
G36*
G01*
X122880000Y-64125000D02*
X122880000Y-63125000D01*
G75*
G02*
X123080000Y-62925000I200000J0D01*
G01*
X124680000Y-62925000D01*
G75*
G02*
X124880000Y-63125000I0J-200000D01*
G01*
X124880000Y-64125000D01*
G75*
G02*
X124680000Y-64325000I-200000J0D01*
G01*
X123080000Y-64325000D01*
G75*
G02*
X122880000Y-64125000I0J200000D01*
G01*
G37*
G36*
G01*
X122880000Y-65875000D02*
X122880000Y-64875000D01*
G75*
G02*
X123080000Y-64675000I200000J0D01*
G01*
X124680000Y-64675000D01*
G75*
G02*
X124880000Y-64875000I0J-200000D01*
G01*
X124880000Y-65875000D01*
G75*
G02*
X124680000Y-66075000I-200000J0D01*
G01*
X123080000Y-66075000D01*
G75*
G02*
X122880000Y-65875000I0J200000D01*
G01*
G37*
G36*
G01*
X127680000Y-64125000D02*
X127680000Y-63125000D01*
G75*
G02*
X127880000Y-62925000I200000J0D01*
G01*
X129480000Y-62925000D01*
G75*
G02*
X129680000Y-63125000I0J-200000D01*
G01*
X129680000Y-64125000D01*
G75*
G02*
X129480000Y-64325000I-200000J0D01*
G01*
X127880000Y-64325000D01*
G75*
G02*
X127680000Y-64125000I0J200000D01*
G01*
G37*
G36*
G01*
X127680000Y-65875000D02*
X127680000Y-64875000D01*
G75*
G02*
X127880000Y-64675000I200000J0D01*
G01*
X129480000Y-64675000D01*
G75*
G02*
X129680000Y-64875000I0J-200000D01*
G01*
X129680000Y-65875000D01*
G75*
G02*
X129480000Y-66075000I-200000J0D01*
G01*
X127880000Y-66075000D01*
G75*
G02*
X127680000Y-65875000I0J200000D01*
G01*
G37*
G36*
G01*
X65850000Y-97370000D02*
X65850000Y-96370000D01*
G75*
G02*
X66050000Y-96170000I200000J0D01*
G01*
X67650000Y-96170000D01*
G75*
G02*
X67850000Y-96370000I0J-200000D01*
G01*
X67850000Y-97370000D01*
G75*
G02*
X67650000Y-97570000I-200000J0D01*
G01*
X66050000Y-97570000D01*
G75*
G02*
X65850000Y-97370000I0J200000D01*
G01*
G37*
G36*
G01*
X65850000Y-99120000D02*
X65850000Y-98120000D01*
G75*
G02*
X66050000Y-97920000I200000J0D01*
G01*
X67650000Y-97920000D01*
G75*
G02*
X67850000Y-98120000I0J-200000D01*
G01*
X67850000Y-99120000D01*
G75*
G02*
X67650000Y-99320000I-200000J0D01*
G01*
X66050000Y-99320000D01*
G75*
G02*
X65850000Y-99120000I0J200000D01*
G01*
G37*
G36*
G01*
X70650000Y-97370000D02*
X70650000Y-96370000D01*
G75*
G02*
X70850000Y-96170000I200000J0D01*
G01*
X72450000Y-96170000D01*
G75*
G02*
X72650000Y-96370000I0J-200000D01*
G01*
X72650000Y-97370000D01*
G75*
G02*
X72450000Y-97570000I-200000J0D01*
G01*
X70850000Y-97570000D01*
G75*
G02*
X70650000Y-97370000I0J200000D01*
G01*
G37*
G36*
G01*
X70650000Y-99120000D02*
X70650000Y-98120000D01*
G75*
G02*
X70850000Y-97920000I200000J0D01*
G01*
X72450000Y-97920000D01*
G75*
G02*
X72650000Y-98120000I0J-200000D01*
G01*
X72650000Y-99120000D01*
G75*
G02*
X72450000Y-99320000I-200000J0D01*
G01*
X70850000Y-99320000D01*
G75*
G02*
X70650000Y-99120000I0J200000D01*
G01*
G37*
G36*
G01*
X151795000Y-137095000D02*
X152745000Y-137095000D01*
G75*
G02*
X152945000Y-137295000I0J-200000D01*
G01*
X152945000Y-138595000D01*
G75*
G02*
X152745000Y-138795000I-200000J0D01*
G01*
X151795000Y-138795000D01*
G75*
G02*
X151595000Y-138595000I0J200000D01*
G01*
X151595000Y-137295000D01*
G75*
G02*
X151795000Y-137095000I200000J0D01*
G01*
G37*
X152270000Y-139980000D03*
G36*
G01*
X151571500Y-131461500D02*
X152968500Y-131461500D01*
G75*
G02*
X153168500Y-131661500I0J-200000D01*
G01*
X153168500Y-133058500D01*
G75*
G02*
X152968500Y-133258500I-200000J0D01*
G01*
X151571500Y-133258500D01*
G75*
G02*
X151371500Y-133058500I0J200000D01*
G01*
X151371500Y-131661500D01*
G75*
G02*
X151571500Y-131461500I200000J0D01*
G01*
G37*
G36*
G01*
X151795000Y-133545000D02*
X152745000Y-133545000D01*
G75*
G02*
X152945000Y-133745000I0J-200000D01*
G01*
X152945000Y-135045000D01*
G75*
G02*
X152745000Y-135245000I-200000J0D01*
G01*
X151795000Y-135245000D01*
G75*
G02*
X151595000Y-135045000I0J200000D01*
G01*
X151595000Y-133745000D01*
G75*
G02*
X151795000Y-133545000I200000J0D01*
G01*
G37*
G36*
G01*
X152805000Y-111300000D02*
X153755000Y-111300000D01*
G75*
G02*
X153955000Y-111500000I0J-200000D01*
G01*
X153955000Y-112800000D01*
G75*
G02*
X153755000Y-113000000I-200000J0D01*
G01*
X152805000Y-113000000D01*
G75*
G02*
X152605000Y-112800000I0J200000D01*
G01*
X152605000Y-111500000D01*
G75*
G02*
X152805000Y-111300000I200000J0D01*
G01*
G37*
X153280000Y-114185000D03*
G36*
G01*
X152581500Y-105666500D02*
X153978500Y-105666500D01*
G75*
G02*
X154178500Y-105866500I0J-200000D01*
G01*
X154178500Y-107263500D01*
G75*
G02*
X153978500Y-107463500I-200000J0D01*
G01*
X152581500Y-107463500D01*
G75*
G02*
X152381500Y-107263500I0J200000D01*
G01*
X152381500Y-105866500D01*
G75*
G02*
X152581500Y-105666500I200000J0D01*
G01*
G37*
G36*
G01*
X152805000Y-107750000D02*
X153755000Y-107750000D01*
G75*
G02*
X153955000Y-107950000I0J-200000D01*
G01*
X153955000Y-109250000D01*
G75*
G02*
X153755000Y-109450000I-200000J0D01*
G01*
X152805000Y-109450000D01*
G75*
G02*
X152605000Y-109250000I0J200000D01*
G01*
X152605000Y-107950000D01*
G75*
G02*
X152805000Y-107750000I200000J0D01*
G01*
G37*
D12*
X74470000Y-80045000D03*
X64030000Y-80045000D03*
D13*
X74330000Y-84245000D03*
X64170000Y-84245000D03*
D14*
X71790000Y-88745000D03*
X71790000Y-88245000D03*
X66710000Y-88245000D03*
X66710000Y-88745000D03*
G36*
G01*
X66468460Y-88010671D02*
X66468460Y-88010671D01*
G75*
G02*
X65094849Y-87890496I-626718J746893D01*
G01*
X64291365Y-86932940D01*
G75*
G02*
X64411540Y-85559329I746893J626718D01*
G01*
X64411540Y-85559329D01*
G75*
G02*
X65785151Y-85679504I626718J-746893D01*
G01*
X66588635Y-86637060D01*
G75*
G02*
X66468460Y-88010671I-746893J-626718D01*
G01*
G37*
X71790000Y-89325000D03*
G36*
G01*
X74088460Y-85559329D02*
X74088460Y-85559329D01*
G75*
G02*
X74208635Y-86932940I-626718J-746893D01*
G01*
X73405151Y-87890496D01*
G75*
G02*
X72031540Y-88010671I-746893J626718D01*
G01*
X72031540Y-88010671D01*
G75*
G02*
X71911365Y-86637060I626718J746893D01*
G01*
X72714849Y-85679504D01*
G75*
G02*
X74088460Y-85559329I746893J-626718D01*
G01*
G37*
X66710000Y-89325000D03*
D15*
X69250000Y-90145000D03*
G36*
G01*
X75185624Y-87149142D02*
X75185624Y-87149142D01*
G75*
G02*
X75287311Y-88311429I-530300J-631987D01*
G01*
X74676663Y-89039171D01*
G75*
G02*
X73514376Y-89140858I-631987J530300D01*
G01*
X73514376Y-89140858D01*
G75*
G02*
X73412689Y-87978571I530300J631987D01*
G01*
X74023337Y-87250829D01*
G75*
G02*
X75185624Y-87149142I631987J-530300D01*
G01*
G37*
D16*
X63750000Y-84245000D03*
X74750000Y-84245000D03*
D17*
X69250000Y-84245000D03*
G36*
G01*
X64985624Y-89140858D02*
X64985624Y-89140858D01*
G75*
G02*
X63823337Y-89039171I-530300J631987D01*
G01*
X63212689Y-88311429D01*
G75*
G02*
X63314376Y-87149142I631987J530300D01*
G01*
X63314376Y-87149142D01*
G75*
G02*
X64476663Y-87250829I530300J-631987D01*
G01*
X65087311Y-87978571D01*
G75*
G02*
X64985624Y-89140858I-631987J-530300D01*
G01*
G37*
D12*
X150500000Y-106175000D03*
X140060000Y-106175000D03*
D13*
X150360000Y-110375000D03*
X140200000Y-110375000D03*
D14*
X147820000Y-114875000D03*
X147820000Y-114375000D03*
X142740000Y-114375000D03*
X142740000Y-114875000D03*
G36*
G01*
X142498460Y-114140671D02*
X142498460Y-114140671D01*
G75*
G02*
X141124849Y-114020496I-626718J746893D01*
G01*
X140321365Y-113062940D01*
G75*
G02*
X140441540Y-111689329I746893J626718D01*
G01*
X140441540Y-111689329D01*
G75*
G02*
X141815151Y-111809504I626718J-746893D01*
G01*
X142618635Y-112767060D01*
G75*
G02*
X142498460Y-114140671I-746893J-626718D01*
G01*
G37*
X147820000Y-115455000D03*
G36*
G01*
X150118460Y-111689329D02*
X150118460Y-111689329D01*
G75*
G02*
X150238635Y-113062940I-626718J-746893D01*
G01*
X149435151Y-114020496D01*
G75*
G02*
X148061540Y-114140671I-746893J626718D01*
G01*
X148061540Y-114140671D01*
G75*
G02*
X147941365Y-112767060I626718J746893D01*
G01*
X148744849Y-111809504D01*
G75*
G02*
X150118460Y-111689329I746893J-626718D01*
G01*
G37*
X142740000Y-115455000D03*
D15*
X145280000Y-116275000D03*
G36*
G01*
X151215624Y-113279142D02*
X151215624Y-113279142D01*
G75*
G02*
X151317311Y-114441429I-530300J-631987D01*
G01*
X150706663Y-115169171D01*
G75*
G02*
X149544376Y-115270858I-631987J530300D01*
G01*
X149544376Y-115270858D01*
G75*
G02*
X149442689Y-114108571I530300J631987D01*
G01*
X150053337Y-113380829D01*
G75*
G02*
X151215624Y-113279142I631987J-530300D01*
G01*
G37*
D16*
X139780000Y-110375000D03*
X150780000Y-110375000D03*
D17*
X145280000Y-110375000D03*
G36*
G01*
X141015624Y-115270858D02*
X141015624Y-115270858D01*
G75*
G02*
X139853337Y-115169171I-530300J631987D01*
G01*
X139242689Y-114441429D01*
G75*
G02*
X139344376Y-113279142I631987J530300D01*
G01*
X139344376Y-113279142D01*
G75*
G02*
X140506663Y-113380829I530300J-631987D01*
G01*
X141117311Y-114108571D01*
G75*
G02*
X141015624Y-115270858I-631987J-530300D01*
G01*
G37*
D12*
X74470000Y-118045000D03*
X64030000Y-118045000D03*
D13*
X74330000Y-122245000D03*
X64170000Y-122245000D03*
D14*
X71790000Y-126745000D03*
X71790000Y-126245000D03*
X66710000Y-126245000D03*
X66710000Y-126745000D03*
G36*
G01*
X66468460Y-126010671D02*
X66468460Y-126010671D01*
G75*
G02*
X65094849Y-125890496I-626718J746893D01*
G01*
X64291365Y-124932940D01*
G75*
G02*
X64411540Y-123559329I746893J626718D01*
G01*
X64411540Y-123559329D01*
G75*
G02*
X65785151Y-123679504I626718J-746893D01*
G01*
X66588635Y-124637060D01*
G75*
G02*
X66468460Y-126010671I-746893J-626718D01*
G01*
G37*
X71790000Y-127325000D03*
G36*
G01*
X74088460Y-123559329D02*
X74088460Y-123559329D01*
G75*
G02*
X74208635Y-124932940I-626718J-746893D01*
G01*
X73405151Y-125890496D01*
G75*
G02*
X72031540Y-126010671I-746893J626718D01*
G01*
X72031540Y-126010671D01*
G75*
G02*
X71911365Y-124637060I626718J746893D01*
G01*
X72714849Y-123679504D01*
G75*
G02*
X74088460Y-123559329I746893J-626718D01*
G01*
G37*
X66710000Y-127325000D03*
D15*
X69250000Y-128145000D03*
G36*
G01*
X75185624Y-125149142D02*
X75185624Y-125149142D01*
G75*
G02*
X75287311Y-126311429I-530300J-631987D01*
G01*
X74676663Y-127039171D01*
G75*
G02*
X73514376Y-127140858I-631987J530300D01*
G01*
X73514376Y-127140858D01*
G75*
G02*
X73412689Y-125978571I530300J631987D01*
G01*
X74023337Y-125250829D01*
G75*
G02*
X75185624Y-125149142I631987J-530300D01*
G01*
G37*
D16*
X63750000Y-122245000D03*
X74750000Y-122245000D03*
D17*
X69250000Y-122245000D03*
G36*
G01*
X64985624Y-127140858D02*
X64985624Y-127140858D01*
G75*
G02*
X63823337Y-127039171I-530300J631987D01*
G01*
X63212689Y-126311429D01*
G75*
G02*
X63314376Y-125149142I631987J530300D01*
G01*
X63314376Y-125149142D01*
G75*
G02*
X64476663Y-125250829I530300J-631987D01*
G01*
X65087311Y-125978571D01*
G75*
G02*
X64985624Y-127140858I-631987J-530300D01*
G01*
G37*
D12*
X93250000Y-118200000D03*
X82810000Y-118200000D03*
D13*
X93110000Y-122400000D03*
X82950000Y-122400000D03*
D14*
X90570000Y-126900000D03*
X90570000Y-126400000D03*
X85490000Y-126400000D03*
X85490000Y-126900000D03*
G36*
G01*
X85248460Y-126165671D02*
X85248460Y-126165671D01*
G75*
G02*
X83874849Y-126045496I-626718J746893D01*
G01*
X83071365Y-125087940D01*
G75*
G02*
X83191540Y-123714329I746893J626718D01*
G01*
X83191540Y-123714329D01*
G75*
G02*
X84565151Y-123834504I626718J-746893D01*
G01*
X85368635Y-124792060D01*
G75*
G02*
X85248460Y-126165671I-746893J-626718D01*
G01*
G37*
X90570000Y-127480000D03*
G36*
G01*
X92868460Y-123714329D02*
X92868460Y-123714329D01*
G75*
G02*
X92988635Y-125087940I-626718J-746893D01*
G01*
X92185151Y-126045496D01*
G75*
G02*
X90811540Y-126165671I-746893J626718D01*
G01*
X90811540Y-126165671D01*
G75*
G02*
X90691365Y-124792060I626718J746893D01*
G01*
X91494849Y-123834504D01*
G75*
G02*
X92868460Y-123714329I746893J-626718D01*
G01*
G37*
X85490000Y-127480000D03*
D15*
X88030000Y-128300000D03*
G36*
G01*
X93965624Y-125304142D02*
X93965624Y-125304142D01*
G75*
G02*
X94067311Y-126466429I-530300J-631987D01*
G01*
X93456663Y-127194171D01*
G75*
G02*
X92294376Y-127295858I-631987J530300D01*
G01*
X92294376Y-127295858D01*
G75*
G02*
X92192689Y-126133571I530300J631987D01*
G01*
X92803337Y-125405829D01*
G75*
G02*
X93965624Y-125304142I631987J-530300D01*
G01*
G37*
D16*
X82530000Y-122400000D03*
X93530000Y-122400000D03*
D17*
X88030000Y-122400000D03*
G36*
G01*
X83765624Y-127295858D02*
X83765624Y-127295858D01*
G75*
G02*
X82603337Y-127194171I-530300J631987D01*
G01*
X81992689Y-126466429D01*
G75*
G02*
X82094376Y-125304142I631987J530300D01*
G01*
X82094376Y-125304142D01*
G75*
G02*
X83256663Y-125405829I530300J-631987D01*
G01*
X83867311Y-126133571D01*
G75*
G02*
X83765624Y-127295858I-631987J-530300D01*
G01*
G37*
G36*
G01*
X114805000Y-73300000D02*
X115755000Y-73300000D01*
G75*
G02*
X115955000Y-73500000I0J-200000D01*
G01*
X115955000Y-74800000D01*
G75*
G02*
X115755000Y-75000000I-200000J0D01*
G01*
X114805000Y-75000000D01*
G75*
G02*
X114605000Y-74800000I0J200000D01*
G01*
X114605000Y-73500000D01*
G75*
G02*
X114805000Y-73300000I200000J0D01*
G01*
G37*
D18*
X115280000Y-76185000D03*
G36*
G01*
X114581500Y-67666500D02*
X115978500Y-67666500D01*
G75*
G02*
X116178500Y-67866500I0J-200000D01*
G01*
X116178500Y-69263500D01*
G75*
G02*
X115978500Y-69463500I-200000J0D01*
G01*
X114581500Y-69463500D01*
G75*
G02*
X114381500Y-69263500I0J200000D01*
G01*
X114381500Y-67866500D01*
G75*
G02*
X114581500Y-67666500I200000J0D01*
G01*
G37*
G36*
G01*
X114805000Y-69750000D02*
X115755000Y-69750000D01*
G75*
G02*
X115955000Y-69950000I0J-200000D01*
G01*
X115955000Y-71250000D01*
G75*
G02*
X115755000Y-71450000I-200000J0D01*
G01*
X114805000Y-71450000D01*
G75*
G02*
X114605000Y-71250000I0J200000D01*
G01*
X114605000Y-69950000D01*
G75*
G02*
X114805000Y-69750000I200000J0D01*
G01*
G37*
D19*
X150880000Y-124120000D03*
G36*
G01*
X141880000Y-104500000D02*
X141880000Y-103500000D01*
G75*
G02*
X142080000Y-103300000I200000J0D01*
G01*
X143680000Y-103300000D01*
G75*
G02*
X143880000Y-103500000I0J-200000D01*
G01*
X143880000Y-104500000D01*
G75*
G02*
X143680000Y-104700000I-200000J0D01*
G01*
X142080000Y-104700000D01*
G75*
G02*
X141880000Y-104500000I0J200000D01*
G01*
G37*
G36*
G01*
X141880000Y-106250000D02*
X141880000Y-105250000D01*
G75*
G02*
X142080000Y-105050000I200000J0D01*
G01*
X143680000Y-105050000D01*
G75*
G02*
X143880000Y-105250000I0J-200000D01*
G01*
X143880000Y-106250000D01*
G75*
G02*
X143680000Y-106450000I-200000J0D01*
G01*
X142080000Y-106450000D01*
G75*
G02*
X141880000Y-106250000I0J200000D01*
G01*
G37*
G36*
G01*
X146680000Y-104500000D02*
X146680000Y-103500000D01*
G75*
G02*
X146880000Y-103300000I200000J0D01*
G01*
X148480000Y-103300000D01*
G75*
G02*
X148680000Y-103500000I0J-200000D01*
G01*
X148680000Y-104500000D01*
G75*
G02*
X148480000Y-104700000I-200000J0D01*
G01*
X146880000Y-104700000D01*
G75*
G02*
X146680000Y-104500000I0J200000D01*
G01*
G37*
G36*
G01*
X146680000Y-106250000D02*
X146680000Y-105250000D01*
G75*
G02*
X146880000Y-105050000I200000J0D01*
G01*
X148480000Y-105050000D01*
G75*
G02*
X148680000Y-105250000I0J-200000D01*
G01*
X148680000Y-106250000D01*
G75*
G02*
X148480000Y-106450000I-200000J0D01*
G01*
X146880000Y-106450000D01*
G75*
G02*
X146680000Y-106250000I0J200000D01*
G01*
G37*
X78800000Y-93810000D03*
G36*
G01*
X141880000Y-85500000D02*
X141880000Y-84500000D01*
G75*
G02*
X142080000Y-84300000I200000J0D01*
G01*
X143680000Y-84300000D01*
G75*
G02*
X143880000Y-84500000I0J-200000D01*
G01*
X143880000Y-85500000D01*
G75*
G02*
X143680000Y-85700000I-200000J0D01*
G01*
X142080000Y-85700000D01*
G75*
G02*
X141880000Y-85500000I0J200000D01*
G01*
G37*
G36*
G01*
X141880000Y-87250000D02*
X141880000Y-86250000D01*
G75*
G02*
X142080000Y-86050000I200000J0D01*
G01*
X143680000Y-86050000D01*
G75*
G02*
X143880000Y-86250000I0J-200000D01*
G01*
X143880000Y-87250000D01*
G75*
G02*
X143680000Y-87450000I-200000J0D01*
G01*
X142080000Y-87450000D01*
G75*
G02*
X141880000Y-87250000I0J200000D01*
G01*
G37*
G36*
G01*
X146680000Y-85500000D02*
X146680000Y-84500000D01*
G75*
G02*
X146880000Y-84300000I200000J0D01*
G01*
X148480000Y-84300000D01*
G75*
G02*
X148680000Y-84500000I0J-200000D01*
G01*
X148680000Y-85500000D01*
G75*
G02*
X148480000Y-85700000I-200000J0D01*
G01*
X146880000Y-85700000D01*
G75*
G02*
X146680000Y-85500000I0J200000D01*
G01*
G37*
G36*
G01*
X146680000Y-87250000D02*
X146680000Y-86250000D01*
G75*
G02*
X146880000Y-86050000I200000J0D01*
G01*
X148480000Y-86050000D01*
G75*
G02*
X148680000Y-86250000I0J-200000D01*
G01*
X148680000Y-87250000D01*
G75*
G02*
X148480000Y-87450000I-200000J0D01*
G01*
X146880000Y-87450000D01*
G75*
G02*
X146680000Y-87250000I0J200000D01*
G01*
G37*
G36*
G01*
X152805000Y-73300000D02*
X153755000Y-73300000D01*
G75*
G02*
X153955000Y-73500000I0J-200000D01*
G01*
X153955000Y-74800000D01*
G75*
G02*
X153755000Y-75000000I-200000J0D01*
G01*
X152805000Y-75000000D01*
G75*
G02*
X152605000Y-74800000I0J200000D01*
G01*
X152605000Y-73500000D01*
G75*
G02*
X152805000Y-73300000I200000J0D01*
G01*
G37*
D18*
X153280000Y-76185000D03*
G36*
G01*
X152581500Y-67666500D02*
X153978500Y-67666500D01*
G75*
G02*
X154178500Y-67866500I0J-200000D01*
G01*
X154178500Y-69263500D01*
G75*
G02*
X153978500Y-69463500I-200000J0D01*
G01*
X152581500Y-69463500D01*
G75*
G02*
X152381500Y-69263500I0J200000D01*
G01*
X152381500Y-67866500D01*
G75*
G02*
X152581500Y-67666500I200000J0D01*
G01*
G37*
G36*
G01*
X152805000Y-69750000D02*
X153755000Y-69750000D01*
G75*
G02*
X153955000Y-69950000I0J-200000D01*
G01*
X153955000Y-71250000D01*
G75*
G02*
X153755000Y-71450000I-200000J0D01*
G01*
X152805000Y-71450000D01*
G75*
G02*
X152605000Y-71250000I0J200000D01*
G01*
X152605000Y-69950000D01*
G75*
G02*
X152805000Y-69750000I200000J0D01*
G01*
G37*
G36*
G01*
X95565000Y-123190000D02*
X96515000Y-123190000D01*
G75*
G02*
X96715000Y-123390000I0J-200000D01*
G01*
X96715000Y-124690000D01*
G75*
G02*
X96515000Y-124890000I-200000J0D01*
G01*
X95565000Y-124890000D01*
G75*
G02*
X95365000Y-124690000I0J200000D01*
G01*
X95365000Y-123390000D01*
G75*
G02*
X95565000Y-123190000I200000J0D01*
G01*
G37*
X96040000Y-126075000D03*
G36*
G01*
X95341500Y-117556500D02*
X96738500Y-117556500D01*
G75*
G02*
X96938500Y-117756500I0J-200000D01*
G01*
X96938500Y-119153500D01*
G75*
G02*
X96738500Y-119353500I-200000J0D01*
G01*
X95341500Y-119353500D01*
G75*
G02*
X95141500Y-119153500I0J200000D01*
G01*
X95141500Y-117756500D01*
G75*
G02*
X95341500Y-117556500I200000J0D01*
G01*
G37*
G36*
G01*
X95565000Y-119640000D02*
X96515000Y-119640000D01*
G75*
G02*
X96715000Y-119840000I0J-200000D01*
G01*
X96715000Y-121140000D01*
G75*
G02*
X96515000Y-121340000I-200000J0D01*
G01*
X95565000Y-121340000D01*
G75*
G02*
X95365000Y-121140000I0J200000D01*
G01*
X95365000Y-119840000D01*
G75*
G02*
X95565000Y-119640000I200000J0D01*
G01*
G37*
G36*
G01*
X155805000Y-111300000D02*
X156755000Y-111300000D01*
G75*
G02*
X156955000Y-111500000I0J-200000D01*
G01*
X156955000Y-112800000D01*
G75*
G02*
X156755000Y-113000000I-200000J0D01*
G01*
X155805000Y-113000000D01*
G75*
G02*
X155605000Y-112800000I0J200000D01*
G01*
X155605000Y-111500000D01*
G75*
G02*
X155805000Y-111300000I200000J0D01*
G01*
G37*
X156280000Y-114185000D03*
G36*
G01*
X155581500Y-105666500D02*
X156978500Y-105666500D01*
G75*
G02*
X157178500Y-105866500I0J-200000D01*
G01*
X157178500Y-107263500D01*
G75*
G02*
X156978500Y-107463500I-200000J0D01*
G01*
X155581500Y-107463500D01*
G75*
G02*
X155381500Y-107263500I0J200000D01*
G01*
X155381500Y-105866500D01*
G75*
G02*
X155581500Y-105666500I200000J0D01*
G01*
G37*
G36*
G01*
X155805000Y-107750000D02*
X156755000Y-107750000D01*
G75*
G02*
X156955000Y-107950000I0J-200000D01*
G01*
X156955000Y-109250000D01*
G75*
G02*
X156755000Y-109450000I-200000J0D01*
G01*
X155805000Y-109450000D01*
G75*
G02*
X155605000Y-109250000I0J200000D01*
G01*
X155605000Y-107950000D01*
G75*
G02*
X155805000Y-107750000I200000J0D01*
G01*
G37*
D12*
X131500000Y-103800000D03*
X121060000Y-103800000D03*
D13*
X131360000Y-108000000D03*
X121200000Y-108000000D03*
D14*
X128820000Y-112500000D03*
X128820000Y-112000000D03*
X123740000Y-112000000D03*
X123740000Y-112500000D03*
G36*
G01*
X123498460Y-111765671D02*
X123498460Y-111765671D01*
G75*
G02*
X122124849Y-111645496I-626718J746893D01*
G01*
X121321365Y-110687940D01*
G75*
G02*
X121441540Y-109314329I746893J626718D01*
G01*
X121441540Y-109314329D01*
G75*
G02*
X122815151Y-109434504I626718J-746893D01*
G01*
X123618635Y-110392060D01*
G75*
G02*
X123498460Y-111765671I-746893J-626718D01*
G01*
G37*
X128820000Y-113080000D03*
G36*
G01*
X131118460Y-109314329D02*
X131118460Y-109314329D01*
G75*
G02*
X131238635Y-110687940I-626718J-746893D01*
G01*
X130435151Y-111645496D01*
G75*
G02*
X129061540Y-111765671I-746893J626718D01*
G01*
X129061540Y-111765671D01*
G75*
G02*
X128941365Y-110392060I626718J746893D01*
G01*
X129744849Y-109434504D01*
G75*
G02*
X131118460Y-109314329I746893J-626718D01*
G01*
G37*
X123740000Y-113080000D03*
D15*
X126280000Y-113900000D03*
G36*
G01*
X132215624Y-110904142D02*
X132215624Y-110904142D01*
G75*
G02*
X132317311Y-112066429I-530300J-631987D01*
G01*
X131706663Y-112794171D01*
G75*
G02*
X130544376Y-112895858I-631987J530300D01*
G01*
X130544376Y-112895858D01*
G75*
G02*
X130442689Y-111733571I530300J631987D01*
G01*
X131053337Y-111005829D01*
G75*
G02*
X132215624Y-110904142I631987J-530300D01*
G01*
G37*
D16*
X120780000Y-108000000D03*
X131780000Y-108000000D03*
D17*
X126280000Y-108000000D03*
G36*
G01*
X122015624Y-112895858D02*
X122015624Y-112895858D01*
G75*
G02*
X120853337Y-112794171I-530300J631987D01*
G01*
X120242689Y-112066429D01*
G75*
G02*
X120344376Y-110904142I631987J530300D01*
G01*
X120344376Y-110904142D01*
G75*
G02*
X121506663Y-111005829I530300J-631987D01*
G01*
X122117311Y-111733571D01*
G75*
G02*
X122015624Y-112895858I-631987J-530300D01*
G01*
G37*
D19*
X97710000Y-112740000D03*
D12*
X150500000Y-87175000D03*
X140060000Y-87175000D03*
D13*
X150360000Y-91375000D03*
X140200000Y-91375000D03*
D14*
X147820000Y-95875000D03*
X147820000Y-95375000D03*
X142740000Y-95375000D03*
X142740000Y-95875000D03*
G36*
G01*
X142498460Y-95140671D02*
X142498460Y-95140671D01*
G75*
G02*
X141124849Y-95020496I-626718J746893D01*
G01*
X140321365Y-94062940D01*
G75*
G02*
X140441540Y-92689329I746893J626718D01*
G01*
X140441540Y-92689329D01*
G75*
G02*
X141815151Y-92809504I626718J-746893D01*
G01*
X142618635Y-93767060D01*
G75*
G02*
X142498460Y-95140671I-746893J-626718D01*
G01*
G37*
X147820000Y-96455000D03*
G36*
G01*
X150118460Y-92689329D02*
X150118460Y-92689329D01*
G75*
G02*
X150238635Y-94062940I-626718J-746893D01*
G01*
X149435151Y-95020496D01*
G75*
G02*
X148061540Y-95140671I-746893J626718D01*
G01*
X148061540Y-95140671D01*
G75*
G02*
X147941365Y-93767060I626718J746893D01*
G01*
X148744849Y-92809504D01*
G75*
G02*
X150118460Y-92689329I746893J-626718D01*
G01*
G37*
X142740000Y-96455000D03*
D15*
X145280000Y-97275000D03*
G36*
G01*
X151215624Y-94279142D02*
X151215624Y-94279142D01*
G75*
G02*
X151317311Y-95441429I-530300J-631987D01*
G01*
X150706663Y-96169171D01*
G75*
G02*
X149544376Y-96270858I-631987J530300D01*
G01*
X149544376Y-96270858D01*
G75*
G02*
X149442689Y-95108571I530300J631987D01*
G01*
X150053337Y-94380829D01*
G75*
G02*
X151215624Y-94279142I631987J-530300D01*
G01*
G37*
D16*
X139780000Y-91375000D03*
X150780000Y-91375000D03*
D17*
X145280000Y-91375000D03*
G36*
G01*
X141015624Y-96270858D02*
X141015624Y-96270858D01*
G75*
G02*
X139853337Y-96169171I-530300J631987D01*
G01*
X139242689Y-95441429D01*
G75*
G02*
X139344376Y-94279142I631987J530300D01*
G01*
X139344376Y-94279142D01*
G75*
G02*
X140506663Y-94380829I530300J-631987D01*
G01*
X141117311Y-95108571D01*
G75*
G02*
X141015624Y-96270858I-631987J-530300D01*
G01*
G37*
D12*
X131490000Y-65700000D03*
X121050000Y-65700000D03*
D13*
X131350000Y-69900000D03*
X121190000Y-69900000D03*
D14*
X128810000Y-74400000D03*
X128810000Y-73900000D03*
X123730000Y-73900000D03*
X123730000Y-74400000D03*
G36*
G01*
X123488460Y-73665671D02*
X123488460Y-73665671D01*
G75*
G02*
X122114849Y-73545496I-626718J746893D01*
G01*
X121311365Y-72587940D01*
G75*
G02*
X121431540Y-71214329I746893J626718D01*
G01*
X121431540Y-71214329D01*
G75*
G02*
X122805151Y-71334504I626718J-746893D01*
G01*
X123608635Y-72292060D01*
G75*
G02*
X123488460Y-73665671I-746893J-626718D01*
G01*
G37*
X128810000Y-74980000D03*
G36*
G01*
X131108460Y-71214329D02*
X131108460Y-71214329D01*
G75*
G02*
X131228635Y-72587940I-626718J-746893D01*
G01*
X130425151Y-73545496D01*
G75*
G02*
X129051540Y-73665671I-746893J626718D01*
G01*
X129051540Y-73665671D01*
G75*
G02*
X128931365Y-72292060I626718J746893D01*
G01*
X129734849Y-71334504D01*
G75*
G02*
X131108460Y-71214329I746893J-626718D01*
G01*
G37*
X123730000Y-74980000D03*
D15*
X126270000Y-75800000D03*
G36*
G01*
X132205624Y-72804142D02*
X132205624Y-72804142D01*
G75*
G02*
X132307311Y-73966429I-530300J-631987D01*
G01*
X131696663Y-74694171D01*
G75*
G02*
X130534376Y-74795858I-631987J530300D01*
G01*
X130534376Y-74795858D01*
G75*
G02*
X130432689Y-73633571I530300J631987D01*
G01*
X131043337Y-72905829D01*
G75*
G02*
X132205624Y-72804142I631987J-530300D01*
G01*
G37*
D16*
X120770000Y-69900000D03*
X131770000Y-69900000D03*
D17*
X126270000Y-69900000D03*
G36*
G01*
X122005624Y-74795858D02*
X122005624Y-74795858D01*
G75*
G02*
X120843337Y-74694171I-530300J631987D01*
G01*
X120232689Y-73966429D01*
G75*
G02*
X120334376Y-72804142I631987J530300D01*
G01*
X120334376Y-72804142D01*
G75*
G02*
X121496663Y-72905829I530300J-631987D01*
G01*
X122107311Y-73633571D01*
G75*
G02*
X122005624Y-74795858I-631987J-530300D01*
G01*
G37*
G36*
G01*
X114805000Y-111300000D02*
X115755000Y-111300000D01*
G75*
G02*
X115955000Y-111500000I0J-200000D01*
G01*
X115955000Y-112800000D01*
G75*
G02*
X115755000Y-113000000I-200000J0D01*
G01*
X114805000Y-113000000D01*
G75*
G02*
X114605000Y-112800000I0J200000D01*
G01*
X114605000Y-111500000D01*
G75*
G02*
X114805000Y-111300000I200000J0D01*
G01*
G37*
D18*
X115280000Y-114185000D03*
G36*
G01*
X114581500Y-105666500D02*
X115978500Y-105666500D01*
G75*
G02*
X116178500Y-105866500I0J-200000D01*
G01*
X116178500Y-107263500D01*
G75*
G02*
X115978500Y-107463500I-200000J0D01*
G01*
X114581500Y-107463500D01*
G75*
G02*
X114381500Y-107263500I0J200000D01*
G01*
X114381500Y-105866500D01*
G75*
G02*
X114581500Y-105666500I200000J0D01*
G01*
G37*
G36*
G01*
X114805000Y-107750000D02*
X115755000Y-107750000D01*
G75*
G02*
X115955000Y-107950000I0J-200000D01*
G01*
X115955000Y-109250000D01*
G75*
G02*
X115755000Y-109450000I-200000J0D01*
G01*
X114805000Y-109450000D01*
G75*
G02*
X114605000Y-109250000I0J200000D01*
G01*
X114605000Y-107950000D01*
G75*
G02*
X114805000Y-107750000I200000J0D01*
G01*
G37*
G36*
G01*
X84640000Y-97390000D02*
X84640000Y-96390000D01*
G75*
G02*
X84840000Y-96190000I200000J0D01*
G01*
X86440000Y-96190000D01*
G75*
G02*
X86640000Y-96390000I0J-200000D01*
G01*
X86640000Y-97390000D01*
G75*
G02*
X86440000Y-97590000I-200000J0D01*
G01*
X84840000Y-97590000D01*
G75*
G02*
X84640000Y-97390000I0J200000D01*
G01*
G37*
G36*
G01*
X84640000Y-99140000D02*
X84640000Y-98140000D01*
G75*
G02*
X84840000Y-97940000I200000J0D01*
G01*
X86440000Y-97940000D01*
G75*
G02*
X86640000Y-98140000I0J-200000D01*
G01*
X86640000Y-99140000D01*
G75*
G02*
X86440000Y-99340000I-200000J0D01*
G01*
X84840000Y-99340000D01*
G75*
G02*
X84640000Y-99140000I0J200000D01*
G01*
G37*
G36*
G01*
X89440000Y-97390000D02*
X89440000Y-96390000D01*
G75*
G02*
X89640000Y-96190000I200000J0D01*
G01*
X91240000Y-96190000D01*
G75*
G02*
X91440000Y-96390000I0J-200000D01*
G01*
X91440000Y-97390000D01*
G75*
G02*
X91240000Y-97590000I-200000J0D01*
G01*
X89640000Y-97590000D01*
G75*
G02*
X89440000Y-97390000I0J200000D01*
G01*
G37*
G36*
G01*
X89440000Y-99140000D02*
X89440000Y-98140000D01*
G75*
G02*
X89640000Y-97940000I200000J0D01*
G01*
X91240000Y-97940000D01*
G75*
G02*
X91440000Y-98140000I0J-200000D01*
G01*
X91440000Y-99140000D01*
G75*
G02*
X91240000Y-99340000I-200000J0D01*
G01*
X89640000Y-99340000D01*
G75*
G02*
X89440000Y-99140000I0J200000D01*
G01*
G37*
D12*
X93260000Y-99065000D03*
X82820000Y-99065000D03*
D13*
X93120000Y-103265000D03*
X82960000Y-103265000D03*
D14*
X90580000Y-107765000D03*
X90580000Y-107265000D03*
X85500000Y-107265000D03*
X85500000Y-107765000D03*
G36*
G01*
X85258460Y-107030671D02*
X85258460Y-107030671D01*
G75*
G02*
X83884849Y-106910496I-626718J746893D01*
G01*
X83081365Y-105952940D01*
G75*
G02*
X83201540Y-104579329I746893J626718D01*
G01*
X83201540Y-104579329D01*
G75*
G02*
X84575151Y-104699504I626718J-746893D01*
G01*
X85378635Y-105657060D01*
G75*
G02*
X85258460Y-107030671I-746893J-626718D01*
G01*
G37*
X90580000Y-108345000D03*
G36*
G01*
X92878460Y-104579329D02*
X92878460Y-104579329D01*
G75*
G02*
X92998635Y-105952940I-626718J-746893D01*
G01*
X92195151Y-106910496D01*
G75*
G02*
X90821540Y-107030671I-746893J626718D01*
G01*
X90821540Y-107030671D01*
G75*
G02*
X90701365Y-105657060I626718J746893D01*
G01*
X91504849Y-104699504D01*
G75*
G02*
X92878460Y-104579329I746893J-626718D01*
G01*
G37*
X85500000Y-108345000D03*
D15*
X88040000Y-109165000D03*
G36*
G01*
X93975624Y-106169142D02*
X93975624Y-106169142D01*
G75*
G02*
X94077311Y-107331429I-530300J-631987D01*
G01*
X93466663Y-108059171D01*
G75*
G02*
X92304376Y-108160858I-631987J530300D01*
G01*
X92304376Y-108160858D01*
G75*
G02*
X92202689Y-106998571I530300J631987D01*
G01*
X92813337Y-106270829D01*
G75*
G02*
X93975624Y-106169142I631987J-530300D01*
G01*
G37*
D16*
X82540000Y-103265000D03*
X93540000Y-103265000D03*
D17*
X88040000Y-103265000D03*
G36*
G01*
X83775624Y-108160858D02*
X83775624Y-108160858D01*
G75*
G02*
X82613337Y-108059171I-530300J631987D01*
G01*
X82002689Y-107331429D01*
G75*
G02*
X82104376Y-106169142I631987J530300D01*
G01*
X82104376Y-106169142D01*
G75*
G02*
X83266663Y-106270829I530300J-631987D01*
G01*
X83877311Y-106998571D01*
G75*
G02*
X83775624Y-108160858I-631987J-530300D01*
G01*
G37*
D12*
X112500000Y-106175000D03*
X102060000Y-106175000D03*
D13*
X112360000Y-110375000D03*
X102200000Y-110375000D03*
D14*
X109820000Y-114875000D03*
X109820000Y-114375000D03*
X104740000Y-114375000D03*
X104740000Y-114875000D03*
G36*
G01*
X104498460Y-114140671D02*
X104498460Y-114140671D01*
G75*
G02*
X103124849Y-114020496I-626718J746893D01*
G01*
X102321365Y-113062940D01*
G75*
G02*
X102441540Y-111689329I746893J626718D01*
G01*
X102441540Y-111689329D01*
G75*
G02*
X103815151Y-111809504I626718J-746893D01*
G01*
X104618635Y-112767060D01*
G75*
G02*
X104498460Y-114140671I-746893J-626718D01*
G01*
G37*
X109820000Y-115455000D03*
G36*
G01*
X112118460Y-111689329D02*
X112118460Y-111689329D01*
G75*
G02*
X112238635Y-113062940I-626718J-746893D01*
G01*
X111435151Y-114020496D01*
G75*
G02*
X110061540Y-114140671I-746893J626718D01*
G01*
X110061540Y-114140671D01*
G75*
G02*
X109941365Y-112767060I626718J746893D01*
G01*
X110744849Y-111809504D01*
G75*
G02*
X112118460Y-111689329I746893J-626718D01*
G01*
G37*
X104740000Y-115455000D03*
D15*
X107280000Y-116275000D03*
G36*
G01*
X113215624Y-113279142D02*
X113215624Y-113279142D01*
G75*
G02*
X113317311Y-114441429I-530300J-631987D01*
G01*
X112706663Y-115169171D01*
G75*
G02*
X111544376Y-115270858I-631987J530300D01*
G01*
X111544376Y-115270858D01*
G75*
G02*
X111442689Y-114108571I530300J631987D01*
G01*
X112053337Y-113380829D01*
G75*
G02*
X113215624Y-113279142I631987J-530300D01*
G01*
G37*
D16*
X101780000Y-110375000D03*
X112780000Y-110375000D03*
D17*
X107280000Y-110375000D03*
G36*
G01*
X103015624Y-115270858D02*
X103015624Y-115270858D01*
G75*
G02*
X101853337Y-115169171I-530300J631987D01*
G01*
X101242689Y-114441429D01*
G75*
G02*
X101344376Y-113279142I631987J530300D01*
G01*
X101344376Y-113279142D01*
G75*
G02*
X102506663Y-113380829I530300J-631987D01*
G01*
X103117311Y-114108571D01*
G75*
G02*
X103015624Y-115270858I-631987J-530300D01*
G01*
G37*
G36*
G01*
X147822237Y-134468795D02*
X148788163Y-134209976D01*
G75*
G02*
X149033112Y-134351397I51764J-193185D01*
G01*
X149447222Y-135896878D01*
G75*
G02*
X149305801Y-136141827I-193185J-51764D01*
G01*
X148339875Y-136400646D01*
G75*
G02*
X148094926Y-136259225I-51764J193185D01*
G01*
X147680816Y-134713744D01*
G75*
G02*
X147822237Y-134468795I193185J51764D01*
G01*
G37*
G36*
G01*
X146131867Y-134921729D02*
X147097793Y-134662910D01*
G75*
G02*
X147342742Y-134804331I51764J-193185D01*
G01*
X147756852Y-136349812D01*
G75*
G02*
X147615431Y-136594761I-193185J-51764D01*
G01*
X146649505Y-136853580D01*
G75*
G02*
X146404556Y-136712159I-51764J193185D01*
G01*
X145990446Y-135166678D01*
G75*
G02*
X146131867Y-134921729I193185J51764D01*
G01*
G37*
G36*
G01*
X149064569Y-139105239D02*
X150030495Y-138846420D01*
G75*
G02*
X150275444Y-138987841I51764J-193185D01*
G01*
X150689554Y-140533322D01*
G75*
G02*
X150548133Y-140778271I-193185J-51764D01*
G01*
X149582207Y-141037090D01*
G75*
G02*
X149337258Y-140895669I-51764J193185D01*
G01*
X148923148Y-139350188D01*
G75*
G02*
X149064569Y-139105239I193185J51764D01*
G01*
G37*
G36*
G01*
X147374199Y-139558173D02*
X148340125Y-139299354D01*
G75*
G02*
X148585074Y-139440775I51764J-193185D01*
G01*
X148999184Y-140986256D01*
G75*
G02*
X148857763Y-141231205I-193185J-51764D01*
G01*
X147891837Y-141490024D01*
G75*
G02*
X147646888Y-141348603I-51764J193185D01*
G01*
X147232778Y-139803122D01*
G75*
G02*
X147374199Y-139558173I193185J51764D01*
G01*
G37*
G36*
G01*
X133805000Y-108925000D02*
X134755000Y-108925000D01*
G75*
G02*
X134955000Y-109125000I0J-200000D01*
G01*
X134955000Y-110425000D01*
G75*
G02*
X134755000Y-110625000I-200000J0D01*
G01*
X133805000Y-110625000D01*
G75*
G02*
X133605000Y-110425000I0J200000D01*
G01*
X133605000Y-109125000D01*
G75*
G02*
X133805000Y-108925000I200000J0D01*
G01*
G37*
D18*
X134280000Y-111810000D03*
G36*
G01*
X133581500Y-103291500D02*
X134978500Y-103291500D01*
G75*
G02*
X135178500Y-103491500I0J-200000D01*
G01*
X135178500Y-104888500D01*
G75*
G02*
X134978500Y-105088500I-200000J0D01*
G01*
X133581500Y-105088500D01*
G75*
G02*
X133381500Y-104888500I0J200000D01*
G01*
X133381500Y-103491500D01*
G75*
G02*
X133581500Y-103291500I200000J0D01*
G01*
G37*
G36*
G01*
X133805000Y-105375000D02*
X134755000Y-105375000D01*
G75*
G02*
X134955000Y-105575000I0J-200000D01*
G01*
X134955000Y-106875000D01*
G75*
G02*
X134755000Y-107075000I-200000J0D01*
G01*
X133805000Y-107075000D01*
G75*
G02*
X133605000Y-106875000I0J200000D01*
G01*
X133605000Y-105575000D01*
G75*
G02*
X133805000Y-105375000I200000J0D01*
G01*
G37*
G36*
G01*
X160880000Y-68875000D02*
X160880000Y-67875000D01*
G75*
G02*
X161080000Y-67675000I200000J0D01*
G01*
X162680000Y-67675000D01*
G75*
G02*
X162880000Y-67875000I0J-200000D01*
G01*
X162880000Y-68875000D01*
G75*
G02*
X162680000Y-69075000I-200000J0D01*
G01*
X161080000Y-69075000D01*
G75*
G02*
X160880000Y-68875000I0J200000D01*
G01*
G37*
G36*
G01*
X160880000Y-70625000D02*
X160880000Y-69625000D01*
G75*
G02*
X161080000Y-69425000I200000J0D01*
G01*
X162680000Y-69425000D01*
G75*
G02*
X162880000Y-69625000I0J-200000D01*
G01*
X162880000Y-70625000D01*
G75*
G02*
X162680000Y-70825000I-200000J0D01*
G01*
X161080000Y-70825000D01*
G75*
G02*
X160880000Y-70625000I0J200000D01*
G01*
G37*
G36*
G01*
X165680000Y-68875000D02*
X165680000Y-67875000D01*
G75*
G02*
X165880000Y-67675000I200000J0D01*
G01*
X167480000Y-67675000D01*
G75*
G02*
X167680000Y-67875000I0J-200000D01*
G01*
X167680000Y-68875000D01*
G75*
G02*
X167480000Y-69075000I-200000J0D01*
G01*
X165880000Y-69075000D01*
G75*
G02*
X165680000Y-68875000I0J200000D01*
G01*
G37*
G36*
G01*
X165680000Y-70625000D02*
X165680000Y-69625000D01*
G75*
G02*
X165880000Y-69425000I200000J0D01*
G01*
X167480000Y-69425000D01*
G75*
G02*
X167680000Y-69625000I0J-200000D01*
G01*
X167680000Y-70625000D01*
G75*
G02*
X167480000Y-70825000I-200000J0D01*
G01*
X165880000Y-70825000D01*
G75*
G02*
X165680000Y-70625000I0J200000D01*
G01*
G37*
D19*
X154780000Y-83000000D03*
G36*
G01*
X60775000Y-85170000D02*
X61725000Y-85170000D01*
G75*
G02*
X61925000Y-85370000I0J-200000D01*
G01*
X61925000Y-86670000D01*
G75*
G02*
X61725000Y-86870000I-200000J0D01*
G01*
X60775000Y-86870000D01*
G75*
G02*
X60575000Y-86670000I0J200000D01*
G01*
X60575000Y-85370000D01*
G75*
G02*
X60775000Y-85170000I200000J0D01*
G01*
G37*
D18*
X61250000Y-88055000D03*
G36*
G01*
X60551500Y-79536500D02*
X61948500Y-79536500D01*
G75*
G02*
X62148500Y-79736500I0J-200000D01*
G01*
X62148500Y-81133500D01*
G75*
G02*
X61948500Y-81333500I-200000J0D01*
G01*
X60551500Y-81333500D01*
G75*
G02*
X60351500Y-81133500I0J200000D01*
G01*
X60351500Y-79736500D01*
G75*
G02*
X60551500Y-79536500I200000J0D01*
G01*
G37*
G36*
G01*
X60775000Y-81620000D02*
X61725000Y-81620000D01*
G75*
G02*
X61925000Y-81820000I0J-200000D01*
G01*
X61925000Y-83120000D01*
G75*
G02*
X61725000Y-83320000I-200000J0D01*
G01*
X60775000Y-83320000D01*
G75*
G02*
X60575000Y-83120000I0J200000D01*
G01*
X60575000Y-81820000D01*
G75*
G02*
X60775000Y-81620000I200000J0D01*
G01*
G37*
G36*
G01*
X152805000Y-92300000D02*
X153755000Y-92300000D01*
G75*
G02*
X153955000Y-92500000I0J-200000D01*
G01*
X153955000Y-93800000D01*
G75*
G02*
X153755000Y-94000000I-200000J0D01*
G01*
X152805000Y-94000000D01*
G75*
G02*
X152605000Y-93800000I0J200000D01*
G01*
X152605000Y-92500000D01*
G75*
G02*
X152805000Y-92300000I200000J0D01*
G01*
G37*
X153280000Y-95185000D03*
G36*
G01*
X152581500Y-86666500D02*
X153978500Y-86666500D01*
G75*
G02*
X154178500Y-86866500I0J-200000D01*
G01*
X154178500Y-88263500D01*
G75*
G02*
X153978500Y-88463500I-200000J0D01*
G01*
X152581500Y-88463500D01*
G75*
G02*
X152381500Y-88263500I0J200000D01*
G01*
X152381500Y-86866500D01*
G75*
G02*
X152581500Y-86666500I200000J0D01*
G01*
G37*
G36*
G01*
X152805000Y-88750000D02*
X153755000Y-88750000D01*
G75*
G02*
X153955000Y-88950000I0J-200000D01*
G01*
X153955000Y-90250000D01*
G75*
G02*
X153755000Y-90450000I-200000J0D01*
G01*
X152805000Y-90450000D01*
G75*
G02*
X152605000Y-90250000I0J200000D01*
G01*
X152605000Y-88950000D01*
G75*
G02*
X152805000Y-88750000I200000J0D01*
G01*
G37*
G36*
G01*
X160880000Y-106875000D02*
X160880000Y-105875000D01*
G75*
G02*
X161080000Y-105675000I200000J0D01*
G01*
X162680000Y-105675000D01*
G75*
G02*
X162880000Y-105875000I0J-200000D01*
G01*
X162880000Y-106875000D01*
G75*
G02*
X162680000Y-107075000I-200000J0D01*
G01*
X161080000Y-107075000D01*
G75*
G02*
X160880000Y-106875000I0J200000D01*
G01*
G37*
G36*
G01*
X160880000Y-108625000D02*
X160880000Y-107625000D01*
G75*
G02*
X161080000Y-107425000I200000J0D01*
G01*
X162680000Y-107425000D01*
G75*
G02*
X162880000Y-107625000I0J-200000D01*
G01*
X162880000Y-108625000D01*
G75*
G02*
X162680000Y-108825000I-200000J0D01*
G01*
X161080000Y-108825000D01*
G75*
G02*
X160880000Y-108625000I0J200000D01*
G01*
G37*
G36*
G01*
X165680000Y-106875000D02*
X165680000Y-105875000D01*
G75*
G02*
X165880000Y-105675000I200000J0D01*
G01*
X167480000Y-105675000D01*
G75*
G02*
X167680000Y-105875000I0J-200000D01*
G01*
X167680000Y-106875000D01*
G75*
G02*
X167480000Y-107075000I-200000J0D01*
G01*
X165880000Y-107075000D01*
G75*
G02*
X165680000Y-106875000I0J200000D01*
G01*
G37*
G36*
G01*
X165680000Y-108625000D02*
X165680000Y-107625000D01*
G75*
G02*
X165880000Y-107425000I200000J0D01*
G01*
X167480000Y-107425000D01*
G75*
G02*
X167680000Y-107625000I0J-200000D01*
G01*
X167680000Y-108625000D01*
G75*
G02*
X167480000Y-108825000I-200000J0D01*
G01*
X165880000Y-108825000D01*
G75*
G02*
X165680000Y-108625000I0J200000D01*
G01*
G37*
G36*
G01*
X155805000Y-73300000D02*
X156755000Y-73300000D01*
G75*
G02*
X156955000Y-73500000I0J-200000D01*
G01*
X156955000Y-74800000D01*
G75*
G02*
X156755000Y-75000000I-200000J0D01*
G01*
X155805000Y-75000000D01*
G75*
G02*
X155605000Y-74800000I0J200000D01*
G01*
X155605000Y-73500000D01*
G75*
G02*
X155805000Y-73300000I200000J0D01*
G01*
G37*
X156280000Y-76185000D03*
G36*
G01*
X155581500Y-67666500D02*
X156978500Y-67666500D01*
G75*
G02*
X157178500Y-67866500I0J-200000D01*
G01*
X157178500Y-69263500D01*
G75*
G02*
X156978500Y-69463500I-200000J0D01*
G01*
X155581500Y-69463500D01*
G75*
G02*
X155381500Y-69263500I0J200000D01*
G01*
X155381500Y-67866500D01*
G75*
G02*
X155581500Y-67666500I200000J0D01*
G01*
G37*
G36*
G01*
X155805000Y-69750000D02*
X156755000Y-69750000D01*
G75*
G02*
X156955000Y-69950000I0J-200000D01*
G01*
X156955000Y-71250000D01*
G75*
G02*
X156755000Y-71450000I-200000J0D01*
G01*
X155805000Y-71450000D01*
G75*
G02*
X155605000Y-71250000I0J200000D01*
G01*
X155605000Y-69950000D01*
G75*
G02*
X155805000Y-69750000I200000J0D01*
G01*
G37*
G36*
G01*
X65850000Y-78370000D02*
X65850000Y-77370000D01*
G75*
G02*
X66050000Y-77170000I200000J0D01*
G01*
X67650000Y-77170000D01*
G75*
G02*
X67850000Y-77370000I0J-200000D01*
G01*
X67850000Y-78370000D01*
G75*
G02*
X67650000Y-78570000I-200000J0D01*
G01*
X66050000Y-78570000D01*
G75*
G02*
X65850000Y-78370000I0J200000D01*
G01*
G37*
G36*
G01*
X65850000Y-80120000D02*
X65850000Y-79120000D01*
G75*
G02*
X66050000Y-78920000I200000J0D01*
G01*
X67650000Y-78920000D01*
G75*
G02*
X67850000Y-79120000I0J-200000D01*
G01*
X67850000Y-80120000D01*
G75*
G02*
X67650000Y-80320000I-200000J0D01*
G01*
X66050000Y-80320000D01*
G75*
G02*
X65850000Y-80120000I0J200000D01*
G01*
G37*
G36*
G01*
X70650000Y-78370000D02*
X70650000Y-77370000D01*
G75*
G02*
X70850000Y-77170000I200000J0D01*
G01*
X72450000Y-77170000D01*
G75*
G02*
X72650000Y-77370000I0J-200000D01*
G01*
X72650000Y-78370000D01*
G75*
G02*
X72450000Y-78570000I-200000J0D01*
G01*
X70850000Y-78570000D01*
G75*
G02*
X70650000Y-78370000I0J200000D01*
G01*
G37*
G36*
G01*
X70650000Y-80120000D02*
X70650000Y-79120000D01*
G75*
G02*
X70850000Y-78920000I200000J0D01*
G01*
X72450000Y-78920000D01*
G75*
G02*
X72650000Y-79120000I0J-200000D01*
G01*
X72650000Y-80120000D01*
G75*
G02*
X72450000Y-80320000I-200000J0D01*
G01*
X70850000Y-80320000D01*
G75*
G02*
X70650000Y-80120000I0J200000D01*
G01*
G37*
G36*
G01*
X163280000Y-121875000D02*
X163280000Y-122875000D01*
G75*
G02*
X163080000Y-123075000I-200000J0D01*
G01*
X161080000Y-123075000D01*
G75*
G02*
X160880000Y-122875000I0J200000D01*
G01*
X160880000Y-121875000D01*
G75*
G02*
X161080000Y-121675000I200000J0D01*
G01*
X163080000Y-121675000D01*
G75*
G02*
X163280000Y-121875000I0J-200000D01*
G01*
G37*
G36*
G01*
X163280000Y-120125000D02*
X163280000Y-121125000D01*
G75*
G02*
X163080000Y-121325000I-200000J0D01*
G01*
X161080000Y-121325000D01*
G75*
G02*
X160880000Y-121125000I0J200000D01*
G01*
X160880000Y-120125000D01*
G75*
G02*
X161080000Y-119925000I200000J0D01*
G01*
X163080000Y-119925000D01*
G75*
G02*
X163280000Y-120125000I0J-200000D01*
G01*
G37*
G36*
G01*
X167680000Y-121875000D02*
X167680000Y-122875000D01*
G75*
G02*
X167480000Y-123075000I-200000J0D01*
G01*
X165480000Y-123075000D01*
G75*
G02*
X165280000Y-122875000I0J200000D01*
G01*
X165280000Y-121875000D01*
G75*
G02*
X165480000Y-121675000I200000J0D01*
G01*
X167480000Y-121675000D01*
G75*
G02*
X167680000Y-121875000I0J-200000D01*
G01*
G37*
G36*
G01*
X167680000Y-120125000D02*
X167680000Y-121125000D01*
G75*
G02*
X167480000Y-121325000I-200000J0D01*
G01*
X165480000Y-121325000D01*
G75*
G02*
X165280000Y-121125000I0J200000D01*
G01*
X165280000Y-120125000D01*
G75*
G02*
X165480000Y-119925000I200000J0D01*
G01*
X167480000Y-119925000D01*
G75*
G02*
X167680000Y-120125000I0J-200000D01*
G01*
G37*
G36*
G01*
X125280000Y-117175000D02*
X125280000Y-118175000D01*
G75*
G02*
X125080000Y-118375000I-200000J0D01*
G01*
X123080000Y-118375000D01*
G75*
G02*
X122880000Y-118175000I0J200000D01*
G01*
X122880000Y-117175000D01*
G75*
G02*
X123080000Y-116975000I200000J0D01*
G01*
X125080000Y-116975000D01*
G75*
G02*
X125280000Y-117175000I0J-200000D01*
G01*
G37*
G36*
G01*
X125280000Y-115425000D02*
X125280000Y-116425000D01*
G75*
G02*
X125080000Y-116625000I-200000J0D01*
G01*
X123080000Y-116625000D01*
G75*
G02*
X122880000Y-116425000I0J200000D01*
G01*
X122880000Y-115425000D01*
G75*
G02*
X123080000Y-115225000I200000J0D01*
G01*
X125080000Y-115225000D01*
G75*
G02*
X125280000Y-115425000I0J-200000D01*
G01*
G37*
G36*
G01*
X129680000Y-117175000D02*
X129680000Y-118175000D01*
G75*
G02*
X129480000Y-118375000I-200000J0D01*
G01*
X127480000Y-118375000D01*
G75*
G02*
X127280000Y-118175000I0J200000D01*
G01*
X127280000Y-117175000D01*
G75*
G02*
X127480000Y-116975000I200000J0D01*
G01*
X129480000Y-116975000D01*
G75*
G02*
X129680000Y-117175000I0J-200000D01*
G01*
G37*
G36*
G01*
X129680000Y-115425000D02*
X129680000Y-116425000D01*
G75*
G02*
X129480000Y-116625000I-200000J0D01*
G01*
X127480000Y-116625000D01*
G75*
G02*
X127280000Y-116425000I0J200000D01*
G01*
X127280000Y-115425000D01*
G75*
G02*
X127480000Y-115225000I200000J0D01*
G01*
X129480000Y-115225000D01*
G75*
G02*
X129680000Y-115425000I0J-200000D01*
G01*
G37*
G36*
G01*
X103880000Y-104500000D02*
X103880000Y-103500000D01*
G75*
G02*
X104080000Y-103300000I200000J0D01*
G01*
X105680000Y-103300000D01*
G75*
G02*
X105880000Y-103500000I0J-200000D01*
G01*
X105880000Y-104500000D01*
G75*
G02*
X105680000Y-104700000I-200000J0D01*
G01*
X104080000Y-104700000D01*
G75*
G02*
X103880000Y-104500000I0J200000D01*
G01*
G37*
G36*
G01*
X103880000Y-106250000D02*
X103880000Y-105250000D01*
G75*
G02*
X104080000Y-105050000I200000J0D01*
G01*
X105680000Y-105050000D01*
G75*
G02*
X105880000Y-105250000I0J-200000D01*
G01*
X105880000Y-106250000D01*
G75*
G02*
X105680000Y-106450000I-200000J0D01*
G01*
X104080000Y-106450000D01*
G75*
G02*
X103880000Y-106250000I0J200000D01*
G01*
G37*
G36*
G01*
X108680000Y-104500000D02*
X108680000Y-103500000D01*
G75*
G02*
X108880000Y-103300000I200000J0D01*
G01*
X110480000Y-103300000D01*
G75*
G02*
X110680000Y-103500000I0J-200000D01*
G01*
X110680000Y-104500000D01*
G75*
G02*
X110480000Y-104700000I-200000J0D01*
G01*
X108880000Y-104700000D01*
G75*
G02*
X108680000Y-104500000I0J200000D01*
G01*
G37*
G36*
G01*
X108680000Y-106250000D02*
X108680000Y-105250000D01*
G75*
G02*
X108880000Y-105050000I200000J0D01*
G01*
X110480000Y-105050000D01*
G75*
G02*
X110680000Y-105250000I0J-200000D01*
G01*
X110680000Y-106250000D01*
G75*
G02*
X110480000Y-106450000I-200000J0D01*
G01*
X108880000Y-106450000D01*
G75*
G02*
X108680000Y-106250000I0J200000D01*
G01*
G37*
G36*
G01*
X60775000Y-123170000D02*
X61725000Y-123170000D01*
G75*
G02*
X61925000Y-123370000I0J-200000D01*
G01*
X61925000Y-124670000D01*
G75*
G02*
X61725000Y-124870000I-200000J0D01*
G01*
X60775000Y-124870000D01*
G75*
G02*
X60575000Y-124670000I0J200000D01*
G01*
X60575000Y-123370000D01*
G75*
G02*
X60775000Y-123170000I200000J0D01*
G01*
G37*
X61250000Y-126055000D03*
G36*
G01*
X60551500Y-117536500D02*
X61948500Y-117536500D01*
G75*
G02*
X62148500Y-117736500I0J-200000D01*
G01*
X62148500Y-119133500D01*
G75*
G02*
X61948500Y-119333500I-200000J0D01*
G01*
X60551500Y-119333500D01*
G75*
G02*
X60351500Y-119133500I0J200000D01*
G01*
X60351500Y-117736500D01*
G75*
G02*
X60551500Y-117536500I200000J0D01*
G01*
G37*
G36*
G01*
X60775000Y-119620000D02*
X61725000Y-119620000D01*
G75*
G02*
X61925000Y-119820000I0J-200000D01*
G01*
X61925000Y-121120000D01*
G75*
G02*
X61725000Y-121320000I-200000J0D01*
G01*
X60775000Y-121320000D01*
G75*
G02*
X60575000Y-121120000I0J200000D01*
G01*
X60575000Y-119820000D01*
G75*
G02*
X60775000Y-119620000I200000J0D01*
G01*
G37*
G36*
G01*
X65850000Y-116370000D02*
X65850000Y-115370000D01*
G75*
G02*
X66050000Y-115170000I200000J0D01*
G01*
X67650000Y-115170000D01*
G75*
G02*
X67850000Y-115370000I0J-200000D01*
G01*
X67850000Y-116370000D01*
G75*
G02*
X67650000Y-116570000I-200000J0D01*
G01*
X66050000Y-116570000D01*
G75*
G02*
X65850000Y-116370000I0J200000D01*
G01*
G37*
G36*
G01*
X65850000Y-118120000D02*
X65850000Y-117120000D01*
G75*
G02*
X66050000Y-116920000I200000J0D01*
G01*
X67650000Y-116920000D01*
G75*
G02*
X67850000Y-117120000I0J-200000D01*
G01*
X67850000Y-118120000D01*
G75*
G02*
X67650000Y-118320000I-200000J0D01*
G01*
X66050000Y-118320000D01*
G75*
G02*
X65850000Y-118120000I0J200000D01*
G01*
G37*
G36*
G01*
X70650000Y-116370000D02*
X70650000Y-115370000D01*
G75*
G02*
X70850000Y-115170000I200000J0D01*
G01*
X72450000Y-115170000D01*
G75*
G02*
X72650000Y-115370000I0J-200000D01*
G01*
X72650000Y-116370000D01*
G75*
G02*
X72450000Y-116570000I-200000J0D01*
G01*
X70850000Y-116570000D01*
G75*
G02*
X70650000Y-116370000I0J200000D01*
G01*
G37*
G36*
G01*
X70650000Y-118120000D02*
X70650000Y-117120000D01*
G75*
G02*
X70850000Y-116920000I200000J0D01*
G01*
X72450000Y-116920000D01*
G75*
G02*
X72650000Y-117120000I0J-200000D01*
G01*
X72650000Y-118120000D01*
G75*
G02*
X72450000Y-118320000I-200000J0D01*
G01*
X70850000Y-118320000D01*
G75*
G02*
X70650000Y-118120000I0J200000D01*
G01*
G37*
G36*
G01*
X165280000Y-83125000D02*
X165280000Y-82125000D01*
G75*
G02*
X165480000Y-81925000I200000J0D01*
G01*
X167480000Y-81925000D01*
G75*
G02*
X167680000Y-82125000I0J-200000D01*
G01*
X167680000Y-83125000D01*
G75*
G02*
X167480000Y-83325000I-200000J0D01*
G01*
X165480000Y-83325000D01*
G75*
G02*
X165280000Y-83125000I0J200000D01*
G01*
G37*
G36*
G01*
X165280000Y-84875000D02*
X165280000Y-83875000D01*
G75*
G02*
X165480000Y-83675000I200000J0D01*
G01*
X167480000Y-83675000D01*
G75*
G02*
X167680000Y-83875000I0J-200000D01*
G01*
X167680000Y-84875000D01*
G75*
G02*
X167480000Y-85075000I-200000J0D01*
G01*
X165480000Y-85075000D01*
G75*
G02*
X165280000Y-84875000I0J200000D01*
G01*
G37*
G36*
G01*
X160880000Y-83125000D02*
X160880000Y-82125000D01*
G75*
G02*
X161080000Y-81925000I200000J0D01*
G01*
X163080000Y-81925000D01*
G75*
G02*
X163280000Y-82125000I0J-200000D01*
G01*
X163280000Y-83125000D01*
G75*
G02*
X163080000Y-83325000I-200000J0D01*
G01*
X161080000Y-83325000D01*
G75*
G02*
X160880000Y-83125000I0J200000D01*
G01*
G37*
G36*
G01*
X160880000Y-84875000D02*
X160880000Y-83875000D01*
G75*
G02*
X161080000Y-83675000I200000J0D01*
G01*
X163080000Y-83675000D01*
G75*
G02*
X163280000Y-83875000I0J-200000D01*
G01*
X163280000Y-84875000D01*
G75*
G02*
X163080000Y-85075000I-200000J0D01*
G01*
X161080000Y-85075000D01*
G75*
G02*
X160880000Y-84875000I0J200000D01*
G01*
G37*
G36*
G01*
X122880000Y-83125000D02*
X122880000Y-82125000D01*
G75*
G02*
X123080000Y-81925000I200000J0D01*
G01*
X124680000Y-81925000D01*
G75*
G02*
X124880000Y-82125000I0J-200000D01*
G01*
X124880000Y-83125000D01*
G75*
G02*
X124680000Y-83325000I-200000J0D01*
G01*
X123080000Y-83325000D01*
G75*
G02*
X122880000Y-83125000I0J200000D01*
G01*
G37*
G36*
G01*
X122880000Y-84875000D02*
X122880000Y-83875000D01*
G75*
G02*
X123080000Y-83675000I200000J0D01*
G01*
X124680000Y-83675000D01*
G75*
G02*
X124880000Y-83875000I0J-200000D01*
G01*
X124880000Y-84875000D01*
G75*
G02*
X124680000Y-85075000I-200000J0D01*
G01*
X123080000Y-85075000D01*
G75*
G02*
X122880000Y-84875000I0J200000D01*
G01*
G37*
G36*
G01*
X127680000Y-83125000D02*
X127680000Y-82125000D01*
G75*
G02*
X127880000Y-81925000I200000J0D01*
G01*
X129480000Y-81925000D01*
G75*
G02*
X129680000Y-82125000I0J-200000D01*
G01*
X129680000Y-83125000D01*
G75*
G02*
X129480000Y-83325000I-200000J0D01*
G01*
X127880000Y-83325000D01*
G75*
G02*
X127680000Y-83125000I0J200000D01*
G01*
G37*
G36*
G01*
X127680000Y-84875000D02*
X127680000Y-83875000D01*
G75*
G02*
X127880000Y-83675000I200000J0D01*
G01*
X129480000Y-83675000D01*
G75*
G02*
X129680000Y-83875000I0J-200000D01*
G01*
X129680000Y-84875000D01*
G75*
G02*
X129480000Y-85075000I-200000J0D01*
G01*
X127880000Y-85075000D01*
G75*
G02*
X127680000Y-84875000I0J200000D01*
G01*
G37*
D12*
X131500000Y-84800000D03*
X121060000Y-84800000D03*
D13*
X131360000Y-89000000D03*
X121200000Y-89000000D03*
D14*
X128820000Y-93500000D03*
X128820000Y-93000000D03*
X123740000Y-93000000D03*
X123740000Y-93500000D03*
G36*
G01*
X123498460Y-92765671D02*
X123498460Y-92765671D01*
G75*
G02*
X122124849Y-92645496I-626718J746893D01*
G01*
X121321365Y-91687940D01*
G75*
G02*
X121441540Y-90314329I746893J626718D01*
G01*
X121441540Y-90314329D01*
G75*
G02*
X122815151Y-90434504I626718J-746893D01*
G01*
X123618635Y-91392060D01*
G75*
G02*
X123498460Y-92765671I-746893J-626718D01*
G01*
G37*
X128820000Y-94080000D03*
G36*
G01*
X131118460Y-90314329D02*
X131118460Y-90314329D01*
G75*
G02*
X131238635Y-91687940I-626718J-746893D01*
G01*
X130435151Y-92645496D01*
G75*
G02*
X129061540Y-92765671I-746893J626718D01*
G01*
X129061540Y-92765671D01*
G75*
G02*
X128941365Y-91392060I626718J746893D01*
G01*
X129744849Y-90434504D01*
G75*
G02*
X131118460Y-90314329I746893J-626718D01*
G01*
G37*
X123740000Y-94080000D03*
D15*
X126280000Y-94900000D03*
G36*
G01*
X132215624Y-91904142D02*
X132215624Y-91904142D01*
G75*
G02*
X132317311Y-93066429I-530300J-631987D01*
G01*
X131706663Y-93794171D01*
G75*
G02*
X130544376Y-93895858I-631987J530300D01*
G01*
X130544376Y-93895858D01*
G75*
G02*
X130442689Y-92733571I530300J631987D01*
G01*
X131053337Y-92005829D01*
G75*
G02*
X132215624Y-91904142I631987J-530300D01*
G01*
G37*
D16*
X120780000Y-89000000D03*
X131780000Y-89000000D03*
D17*
X126280000Y-89000000D03*
G36*
G01*
X122015624Y-93895858D02*
X122015624Y-93895858D01*
G75*
G02*
X120853337Y-93794171I-530300J631987D01*
G01*
X120242689Y-93066429D01*
G75*
G02*
X120344376Y-91904142I631987J530300D01*
G01*
X120344376Y-91904142D01*
G75*
G02*
X121506663Y-92005829I530300J-631987D01*
G01*
X122117311Y-92733571D01*
G75*
G02*
X122015624Y-93895858I-631987J-530300D01*
G01*
G37*
G36*
G01*
X103880000Y-66500000D02*
X103880000Y-65500000D01*
G75*
G02*
X104080000Y-65300000I200000J0D01*
G01*
X105680000Y-65300000D01*
G75*
G02*
X105880000Y-65500000I0J-200000D01*
G01*
X105880000Y-66500000D01*
G75*
G02*
X105680000Y-66700000I-200000J0D01*
G01*
X104080000Y-66700000D01*
G75*
G02*
X103880000Y-66500000I0J200000D01*
G01*
G37*
G36*
G01*
X103880000Y-68250000D02*
X103880000Y-67250000D01*
G75*
G02*
X104080000Y-67050000I200000J0D01*
G01*
X105680000Y-67050000D01*
G75*
G02*
X105880000Y-67250000I0J-200000D01*
G01*
X105880000Y-68250000D01*
G75*
G02*
X105680000Y-68450000I-200000J0D01*
G01*
X104080000Y-68450000D01*
G75*
G02*
X103880000Y-68250000I0J200000D01*
G01*
G37*
G36*
G01*
X108680000Y-66500000D02*
X108680000Y-65500000D01*
G75*
G02*
X108880000Y-65300000I200000J0D01*
G01*
X110480000Y-65300000D01*
G75*
G02*
X110680000Y-65500000I0J-200000D01*
G01*
X110680000Y-66500000D01*
G75*
G02*
X110480000Y-66700000I-200000J0D01*
G01*
X108880000Y-66700000D01*
G75*
G02*
X108680000Y-66500000I0J200000D01*
G01*
G37*
G36*
G01*
X108680000Y-68250000D02*
X108680000Y-67250000D01*
G75*
G02*
X108880000Y-67050000I200000J0D01*
G01*
X110480000Y-67050000D01*
G75*
G02*
X110680000Y-67250000I0J-200000D01*
G01*
X110680000Y-68250000D01*
G75*
G02*
X110480000Y-68450000I-200000J0D01*
G01*
X108880000Y-68450000D01*
G75*
G02*
X108680000Y-68250000I0J200000D01*
G01*
G37*
G36*
G01*
X84640000Y-78390000D02*
X84640000Y-77390000D01*
G75*
G02*
X84840000Y-77190000I200000J0D01*
G01*
X86440000Y-77190000D01*
G75*
G02*
X86640000Y-77390000I0J-200000D01*
G01*
X86640000Y-78390000D01*
G75*
G02*
X86440000Y-78590000I-200000J0D01*
G01*
X84840000Y-78590000D01*
G75*
G02*
X84640000Y-78390000I0J200000D01*
G01*
G37*
G36*
G01*
X84640000Y-80140000D02*
X84640000Y-79140000D01*
G75*
G02*
X84840000Y-78940000I200000J0D01*
G01*
X86440000Y-78940000D01*
G75*
G02*
X86640000Y-79140000I0J-200000D01*
G01*
X86640000Y-80140000D01*
G75*
G02*
X86440000Y-80340000I-200000J0D01*
G01*
X84840000Y-80340000D01*
G75*
G02*
X84640000Y-80140000I0J200000D01*
G01*
G37*
G36*
G01*
X89440000Y-78390000D02*
X89440000Y-77390000D01*
G75*
G02*
X89640000Y-77190000I200000J0D01*
G01*
X91240000Y-77190000D01*
G75*
G02*
X91440000Y-77390000I0J-200000D01*
G01*
X91440000Y-78390000D01*
G75*
G02*
X91240000Y-78590000I-200000J0D01*
G01*
X89640000Y-78590000D01*
G75*
G02*
X89440000Y-78390000I0J200000D01*
G01*
G37*
G36*
G01*
X89440000Y-80140000D02*
X89440000Y-79140000D01*
G75*
G02*
X89640000Y-78940000I200000J0D01*
G01*
X91240000Y-78940000D01*
G75*
G02*
X91440000Y-79140000I0J-200000D01*
G01*
X91440000Y-80140000D01*
G75*
G02*
X91240000Y-80340000I-200000J0D01*
G01*
X89640000Y-80340000D01*
G75*
G02*
X89440000Y-80140000I0J200000D01*
G01*
G37*
G36*
G01*
X60775000Y-104170000D02*
X61725000Y-104170000D01*
G75*
G02*
X61925000Y-104370000I0J-200000D01*
G01*
X61925000Y-105670000D01*
G75*
G02*
X61725000Y-105870000I-200000J0D01*
G01*
X60775000Y-105870000D01*
G75*
G02*
X60575000Y-105670000I0J200000D01*
G01*
X60575000Y-104370000D01*
G75*
G02*
X60775000Y-104170000I200000J0D01*
G01*
G37*
D18*
X61250000Y-107055000D03*
G36*
G01*
X60551500Y-98536500D02*
X61948500Y-98536500D01*
G75*
G02*
X62148500Y-98736500I0J-200000D01*
G01*
X62148500Y-100133500D01*
G75*
G02*
X61948500Y-100333500I-200000J0D01*
G01*
X60551500Y-100333500D01*
G75*
G02*
X60351500Y-100133500I0J200000D01*
G01*
X60351500Y-98736500D01*
G75*
G02*
X60551500Y-98536500I200000J0D01*
G01*
G37*
G36*
G01*
X60775000Y-100620000D02*
X61725000Y-100620000D01*
G75*
G02*
X61925000Y-100820000I0J-200000D01*
G01*
X61925000Y-102120000D01*
G75*
G02*
X61725000Y-102320000I-200000J0D01*
G01*
X60775000Y-102320000D01*
G75*
G02*
X60575000Y-102120000I0J200000D01*
G01*
X60575000Y-100820000D01*
G75*
G02*
X60775000Y-100620000I200000J0D01*
G01*
G37*
D12*
X112500000Y-68175000D03*
X102060000Y-68175000D03*
D13*
X112360000Y-72375000D03*
X102200000Y-72375000D03*
D14*
X109820000Y-76875000D03*
X109820000Y-76375000D03*
X104740000Y-76375000D03*
X104740000Y-76875000D03*
G36*
G01*
X104498460Y-76140671D02*
X104498460Y-76140671D01*
G75*
G02*
X103124849Y-76020496I-626718J746893D01*
G01*
X102321365Y-75062940D01*
G75*
G02*
X102441540Y-73689329I746893J626718D01*
G01*
X102441540Y-73689329D01*
G75*
G02*
X103815151Y-73809504I626718J-746893D01*
G01*
X104618635Y-74767060D01*
G75*
G02*
X104498460Y-76140671I-746893J-626718D01*
G01*
G37*
X109820000Y-77455000D03*
G36*
G01*
X112118460Y-73689329D02*
X112118460Y-73689329D01*
G75*
G02*
X112238635Y-75062940I-626718J-746893D01*
G01*
X111435151Y-76020496D01*
G75*
G02*
X110061540Y-76140671I-746893J626718D01*
G01*
X110061540Y-76140671D01*
G75*
G02*
X109941365Y-74767060I626718J746893D01*
G01*
X110744849Y-73809504D01*
G75*
G02*
X112118460Y-73689329I746893J-626718D01*
G01*
G37*
X104740000Y-77455000D03*
D15*
X107280000Y-78275000D03*
G36*
G01*
X113215624Y-75279142D02*
X113215624Y-75279142D01*
G75*
G02*
X113317311Y-76441429I-530300J-631987D01*
G01*
X112706663Y-77169171D01*
G75*
G02*
X111544376Y-77270858I-631987J530300D01*
G01*
X111544376Y-77270858D01*
G75*
G02*
X111442689Y-76108571I530300J631987D01*
G01*
X112053337Y-75380829D01*
G75*
G02*
X113215624Y-75279142I631987J-530300D01*
G01*
G37*
D16*
X101780000Y-72375000D03*
X112780000Y-72375000D03*
D17*
X107280000Y-72375000D03*
G36*
G01*
X103015624Y-77270858D02*
X103015624Y-77270858D01*
G75*
G02*
X101853337Y-77169171I-530300J631987D01*
G01*
X101242689Y-76441429D01*
G75*
G02*
X101344376Y-75279142I631987J530300D01*
G01*
X101344376Y-75279142D01*
G75*
G02*
X102506663Y-75380829I530300J-631987D01*
G01*
X103117311Y-76108571D01*
G75*
G02*
X103015624Y-77270858I-631987J-530300D01*
G01*
G37*
G36*
G01*
X122880000Y-102125000D02*
X122880000Y-101125000D01*
G75*
G02*
X123080000Y-100925000I200000J0D01*
G01*
X124680000Y-100925000D01*
G75*
G02*
X124880000Y-101125000I0J-200000D01*
G01*
X124880000Y-102125000D01*
G75*
G02*
X124680000Y-102325000I-200000J0D01*
G01*
X123080000Y-102325000D01*
G75*
G02*
X122880000Y-102125000I0J200000D01*
G01*
G37*
G36*
G01*
X122880000Y-103875000D02*
X122880000Y-102875000D01*
G75*
G02*
X123080000Y-102675000I200000J0D01*
G01*
X124680000Y-102675000D01*
G75*
G02*
X124880000Y-102875000I0J-200000D01*
G01*
X124880000Y-103875000D01*
G75*
G02*
X124680000Y-104075000I-200000J0D01*
G01*
X123080000Y-104075000D01*
G75*
G02*
X122880000Y-103875000I0J200000D01*
G01*
G37*
G36*
G01*
X127680000Y-102125000D02*
X127680000Y-101125000D01*
G75*
G02*
X127880000Y-100925000I200000J0D01*
G01*
X129480000Y-100925000D01*
G75*
G02*
X129680000Y-101125000I0J-200000D01*
G01*
X129680000Y-102125000D01*
G75*
G02*
X129480000Y-102325000I-200000J0D01*
G01*
X127880000Y-102325000D01*
G75*
G02*
X127680000Y-102125000I0J200000D01*
G01*
G37*
G36*
G01*
X127680000Y-103875000D02*
X127680000Y-102875000D01*
G75*
G02*
X127880000Y-102675000I200000J0D01*
G01*
X129480000Y-102675000D01*
G75*
G02*
X129680000Y-102875000I0J-200000D01*
G01*
X129680000Y-103875000D01*
G75*
G02*
X129480000Y-104075000I-200000J0D01*
G01*
X127880000Y-104075000D01*
G75*
G02*
X127680000Y-103875000I0J200000D01*
G01*
G37*
D12*
X112500000Y-87175000D03*
X102060000Y-87175000D03*
D13*
X112360000Y-91375000D03*
X102200000Y-91375000D03*
D14*
X109820000Y-95875000D03*
X109820000Y-95375000D03*
X104740000Y-95375000D03*
X104740000Y-95875000D03*
G36*
G01*
X104498460Y-95140671D02*
X104498460Y-95140671D01*
G75*
G02*
X103124849Y-95020496I-626718J746893D01*
G01*
X102321365Y-94062940D01*
G75*
G02*
X102441540Y-92689329I746893J626718D01*
G01*
X102441540Y-92689329D01*
G75*
G02*
X103815151Y-92809504I626718J-746893D01*
G01*
X104618635Y-93767060D01*
G75*
G02*
X104498460Y-95140671I-746893J-626718D01*
G01*
G37*
X109820000Y-96455000D03*
G36*
G01*
X112118460Y-92689329D02*
X112118460Y-92689329D01*
G75*
G02*
X112238635Y-94062940I-626718J-746893D01*
G01*
X111435151Y-95020496D01*
G75*
G02*
X110061540Y-95140671I-746893J626718D01*
G01*
X110061540Y-95140671D01*
G75*
G02*
X109941365Y-93767060I626718J746893D01*
G01*
X110744849Y-92809504D01*
G75*
G02*
X112118460Y-92689329I746893J-626718D01*
G01*
G37*
X104740000Y-96455000D03*
D15*
X107280000Y-97275000D03*
G36*
G01*
X113215624Y-94279142D02*
X113215624Y-94279142D01*
G75*
G02*
X113317311Y-95441429I-530300J-631987D01*
G01*
X112706663Y-96169171D01*
G75*
G02*
X111544376Y-96270858I-631987J530300D01*
G01*
X111544376Y-96270858D01*
G75*
G02*
X111442689Y-95108571I530300J631987D01*
G01*
X112053337Y-94380829D01*
G75*
G02*
X113215624Y-94279142I631987J-530300D01*
G01*
G37*
D16*
X101780000Y-91375000D03*
X112780000Y-91375000D03*
D17*
X107280000Y-91375000D03*
G36*
G01*
X103015624Y-96270858D02*
X103015624Y-96270858D01*
G75*
G02*
X101853337Y-96169171I-530300J631987D01*
G01*
X101242689Y-95441429D01*
G75*
G02*
X101344376Y-94279142I631987J530300D01*
G01*
X101344376Y-94279142D01*
G75*
G02*
X102506663Y-94380829I530300J-631987D01*
G01*
X103117311Y-95108571D01*
G75*
G02*
X103015624Y-96270858I-631987J-530300D01*
G01*
G37*
D19*
X97670000Y-93720000D03*
G36*
G01*
X95565000Y-104190000D02*
X96515000Y-104190000D01*
G75*
G02*
X96715000Y-104390000I0J-200000D01*
G01*
X96715000Y-105690000D01*
G75*
G02*
X96515000Y-105890000I-200000J0D01*
G01*
X95565000Y-105890000D01*
G75*
G02*
X95365000Y-105690000I0J200000D01*
G01*
X95365000Y-104390000D01*
G75*
G02*
X95565000Y-104190000I200000J0D01*
G01*
G37*
D18*
X96040000Y-107075000D03*
G36*
G01*
X95341500Y-98556500D02*
X96738500Y-98556500D01*
G75*
G02*
X96938500Y-98756500I0J-200000D01*
G01*
X96938500Y-100153500D01*
G75*
G02*
X96738500Y-100353500I-200000J0D01*
G01*
X95341500Y-100353500D01*
G75*
G02*
X95141500Y-100153500I0J200000D01*
G01*
X95141500Y-98756500D01*
G75*
G02*
X95341500Y-98556500I200000J0D01*
G01*
G37*
G36*
G01*
X95565000Y-100640000D02*
X96515000Y-100640000D01*
G75*
G02*
X96715000Y-100840000I0J-200000D01*
G01*
X96715000Y-102140000D01*
G75*
G02*
X96515000Y-102340000I-200000J0D01*
G01*
X95565000Y-102340000D01*
G75*
G02*
X95365000Y-102140000I0J200000D01*
G01*
X95365000Y-100840000D01*
G75*
G02*
X95565000Y-100640000I200000J0D01*
G01*
G37*
D12*
X74470000Y-99045000D03*
X64030000Y-99045000D03*
D13*
X74330000Y-103245000D03*
X64170000Y-103245000D03*
D14*
X71790000Y-107745000D03*
X71790000Y-107245000D03*
X66710000Y-107245000D03*
X66710000Y-107745000D03*
G36*
G01*
X66468460Y-107010671D02*
X66468460Y-107010671D01*
G75*
G02*
X65094849Y-106890496I-626718J746893D01*
G01*
X64291365Y-105932940D01*
G75*
G02*
X64411540Y-104559329I746893J626718D01*
G01*
X64411540Y-104559329D01*
G75*
G02*
X65785151Y-104679504I626718J-746893D01*
G01*
X66588635Y-105637060D01*
G75*
G02*
X66468460Y-107010671I-746893J-626718D01*
G01*
G37*
X71790000Y-108325000D03*
G36*
G01*
X74088460Y-104559329D02*
X74088460Y-104559329D01*
G75*
G02*
X74208635Y-105932940I-626718J-746893D01*
G01*
X73405151Y-106890496D01*
G75*
G02*
X72031540Y-107010671I-746893J626718D01*
G01*
X72031540Y-107010671D01*
G75*
G02*
X71911365Y-105637060I626718J746893D01*
G01*
X72714849Y-104679504D01*
G75*
G02*
X74088460Y-104559329I746893J-626718D01*
G01*
G37*
X66710000Y-108325000D03*
D15*
X69250000Y-109145000D03*
G36*
G01*
X75185624Y-106149142D02*
X75185624Y-106149142D01*
G75*
G02*
X75287311Y-107311429I-530300J-631987D01*
G01*
X74676663Y-108039171D01*
G75*
G02*
X73514376Y-108140858I-631987J530300D01*
G01*
X73514376Y-108140858D01*
G75*
G02*
X73412689Y-106978571I530300J631987D01*
G01*
X74023337Y-106250829D01*
G75*
G02*
X75185624Y-106149142I631987J-530300D01*
G01*
G37*
D16*
X63750000Y-103245000D03*
X74750000Y-103245000D03*
D17*
X69250000Y-103245000D03*
G36*
G01*
X64985624Y-108140858D02*
X64985624Y-108140858D01*
G75*
G02*
X63823337Y-108039171I-530300J631987D01*
G01*
X63212689Y-107311429D01*
G75*
G02*
X63314376Y-106149142I631987J530300D01*
G01*
X63314376Y-106149142D01*
G75*
G02*
X64476663Y-106250829I530300J-631987D01*
G01*
X65087311Y-106978571D01*
G75*
G02*
X64985624Y-108140858I-631987J-530300D01*
G01*
G37*
G36*
G01*
X155805000Y-92300000D02*
X156755000Y-92300000D01*
G75*
G02*
X156955000Y-92500000I0J-200000D01*
G01*
X156955000Y-93800000D01*
G75*
G02*
X156755000Y-94000000I-200000J0D01*
G01*
X155805000Y-94000000D01*
G75*
G02*
X155605000Y-93800000I0J200000D01*
G01*
X155605000Y-92500000D01*
G75*
G02*
X155805000Y-92300000I200000J0D01*
G01*
G37*
D18*
X156280000Y-95185000D03*
G36*
G01*
X155581500Y-86666500D02*
X156978500Y-86666500D01*
G75*
G02*
X157178500Y-86866500I0J-200000D01*
G01*
X157178500Y-88263500D01*
G75*
G02*
X156978500Y-88463500I-200000J0D01*
G01*
X155581500Y-88463500D01*
G75*
G02*
X155381500Y-88263500I0J200000D01*
G01*
X155381500Y-86866500D01*
G75*
G02*
X155581500Y-86666500I200000J0D01*
G01*
G37*
G36*
G01*
X155805000Y-88750000D02*
X156755000Y-88750000D01*
G75*
G02*
X156955000Y-88950000I0J-200000D01*
G01*
X156955000Y-90250000D01*
G75*
G02*
X156755000Y-90450000I-200000J0D01*
G01*
X155805000Y-90450000D01*
G75*
G02*
X155605000Y-90250000I0J200000D01*
G01*
X155605000Y-88950000D01*
G75*
G02*
X155805000Y-88750000I200000J0D01*
G01*
G37*
G36*
G01*
X133805000Y-70925000D02*
X134755000Y-70925000D01*
G75*
G02*
X134955000Y-71125000I0J-200000D01*
G01*
X134955000Y-72425000D01*
G75*
G02*
X134755000Y-72625000I-200000J0D01*
G01*
X133805000Y-72625000D01*
G75*
G02*
X133605000Y-72425000I0J200000D01*
G01*
X133605000Y-71125000D01*
G75*
G02*
X133805000Y-70925000I200000J0D01*
G01*
G37*
X134280000Y-73810000D03*
G36*
G01*
X133581500Y-65291500D02*
X134978500Y-65291500D01*
G75*
G02*
X135178500Y-65491500I0J-200000D01*
G01*
X135178500Y-66888500D01*
G75*
G02*
X134978500Y-67088500I-200000J0D01*
G01*
X133581500Y-67088500D01*
G75*
G02*
X133381500Y-66888500I0J200000D01*
G01*
X133381500Y-65491500D01*
G75*
G02*
X133581500Y-65291500I200000J0D01*
G01*
G37*
G36*
G01*
X133805000Y-67375000D02*
X134755000Y-67375000D01*
G75*
G02*
X134955000Y-67575000I0J-200000D01*
G01*
X134955000Y-68875000D01*
G75*
G02*
X134755000Y-69075000I-200000J0D01*
G01*
X133805000Y-69075000D01*
G75*
G02*
X133605000Y-68875000I0J200000D01*
G01*
X133605000Y-67575000D01*
G75*
G02*
X133805000Y-67375000I200000J0D01*
G01*
G37*
G36*
G01*
X141880000Y-66500000D02*
X141880000Y-65500000D01*
G75*
G02*
X142080000Y-65300000I200000J0D01*
G01*
X143680000Y-65300000D01*
G75*
G02*
X143880000Y-65500000I0J-200000D01*
G01*
X143880000Y-66500000D01*
G75*
G02*
X143680000Y-66700000I-200000J0D01*
G01*
X142080000Y-66700000D01*
G75*
G02*
X141880000Y-66500000I0J200000D01*
G01*
G37*
G36*
G01*
X141880000Y-68250000D02*
X141880000Y-67250000D01*
G75*
G02*
X142080000Y-67050000I200000J0D01*
G01*
X143680000Y-67050000D01*
G75*
G02*
X143880000Y-67250000I0J-200000D01*
G01*
X143880000Y-68250000D01*
G75*
G02*
X143680000Y-68450000I-200000J0D01*
G01*
X142080000Y-68450000D01*
G75*
G02*
X141880000Y-68250000I0J200000D01*
G01*
G37*
G36*
G01*
X146680000Y-66500000D02*
X146680000Y-65500000D01*
G75*
G02*
X146880000Y-65300000I200000J0D01*
G01*
X148480000Y-65300000D01*
G75*
G02*
X148680000Y-65500000I0J-200000D01*
G01*
X148680000Y-66500000D01*
G75*
G02*
X148480000Y-66700000I-200000J0D01*
G01*
X146880000Y-66700000D01*
G75*
G02*
X146680000Y-66500000I0J200000D01*
G01*
G37*
G36*
G01*
X146680000Y-68250000D02*
X146680000Y-67250000D01*
G75*
G02*
X146880000Y-67050000I200000J0D01*
G01*
X148480000Y-67050000D01*
G75*
G02*
X148680000Y-67250000I0J-200000D01*
G01*
X148680000Y-68250000D01*
G75*
G02*
X148480000Y-68450000I-200000J0D01*
G01*
X146880000Y-68450000D01*
G75*
G02*
X146680000Y-68250000I0J200000D01*
G01*
G37*
G36*
G01*
X135343580Y-132460593D02*
X135589458Y-133378222D01*
G75*
G02*
X135448037Y-133623171I-193185J-51764D01*
G01*
X134192333Y-133959636D01*
G75*
G02*
X133947384Y-133818215I-51764J193185D01*
G01*
X133701506Y-132900586D01*
G75*
G02*
X133842927Y-132655637I193185J51764D01*
G01*
X135098631Y-132319172D01*
G75*
G02*
X135343580Y-132460593I51764J-193185D01*
G01*
G37*
X132679823Y-133666101D03*
G36*
G01*
X140727276Y-130786651D02*
X141088846Y-132136049D01*
G75*
G02*
X140947425Y-132380998I-193185J-51764D01*
G01*
X139598027Y-132742568D01*
G75*
G02*
X139353078Y-132601147I-51764J193185D01*
G01*
X138991508Y-131251749D01*
G75*
G02*
X139132929Y-131006800I193185J51764D01*
G01*
X140482327Y-130645230D01*
G75*
G02*
X140727276Y-130786651I51764J-193185D01*
G01*
G37*
G36*
G01*
X138772616Y-131541785D02*
X139018494Y-132459414D01*
G75*
G02*
X138877073Y-132704363I-193185J-51764D01*
G01*
X137621369Y-133040828D01*
G75*
G02*
X137376420Y-132899407I-51764J193185D01*
G01*
X137130542Y-131981778D01*
G75*
G02*
X137271963Y-131736829I193185J51764D01*
G01*
X138527667Y-131400364D01*
G75*
G02*
X138772616Y-131541785I51764J-193185D01*
G01*
G37*
G36*
G01*
X89040000Y-92665000D02*
X89040000Y-91665000D01*
G75*
G02*
X89240000Y-91465000I200000J0D01*
G01*
X91240000Y-91465000D01*
G75*
G02*
X91440000Y-91665000I0J-200000D01*
G01*
X91440000Y-92665000D01*
G75*
G02*
X91240000Y-92865000I-200000J0D01*
G01*
X89240000Y-92865000D01*
G75*
G02*
X89040000Y-92665000I0J200000D01*
G01*
G37*
G36*
G01*
X89040000Y-94415000D02*
X89040000Y-93415000D01*
G75*
G02*
X89240000Y-93215000I200000J0D01*
G01*
X91240000Y-93215000D01*
G75*
G02*
X91440000Y-93415000I0J-200000D01*
G01*
X91440000Y-94415000D01*
G75*
G02*
X91240000Y-94615000I-200000J0D01*
G01*
X89240000Y-94615000D01*
G75*
G02*
X89040000Y-94415000I0J200000D01*
G01*
G37*
G36*
G01*
X84640000Y-92665000D02*
X84640000Y-91665000D01*
G75*
G02*
X84840000Y-91465000I200000J0D01*
G01*
X86840000Y-91465000D01*
G75*
G02*
X87040000Y-91665000I0J-200000D01*
G01*
X87040000Y-92665000D01*
G75*
G02*
X86840000Y-92865000I-200000J0D01*
G01*
X84840000Y-92865000D01*
G75*
G02*
X84640000Y-92665000I0J200000D01*
G01*
G37*
G36*
G01*
X84640000Y-94415000D02*
X84640000Y-93415000D01*
G75*
G02*
X84840000Y-93215000I200000J0D01*
G01*
X86840000Y-93215000D01*
G75*
G02*
X87040000Y-93415000I0J-200000D01*
G01*
X87040000Y-94415000D01*
G75*
G02*
X86840000Y-94615000I-200000J0D01*
G01*
X84840000Y-94615000D01*
G75*
G02*
X84640000Y-94415000I0J200000D01*
G01*
G37*
G36*
G01*
X160880000Y-87875000D02*
X160880000Y-86875000D01*
G75*
G02*
X161080000Y-86675000I200000J0D01*
G01*
X162680000Y-86675000D01*
G75*
G02*
X162880000Y-86875000I0J-200000D01*
G01*
X162880000Y-87875000D01*
G75*
G02*
X162680000Y-88075000I-200000J0D01*
G01*
X161080000Y-88075000D01*
G75*
G02*
X160880000Y-87875000I0J200000D01*
G01*
G37*
G36*
G01*
X160880000Y-89625000D02*
X160880000Y-88625000D01*
G75*
G02*
X161080000Y-88425000I200000J0D01*
G01*
X162680000Y-88425000D01*
G75*
G02*
X162880000Y-88625000I0J-200000D01*
G01*
X162880000Y-89625000D01*
G75*
G02*
X162680000Y-89825000I-200000J0D01*
G01*
X161080000Y-89825000D01*
G75*
G02*
X160880000Y-89625000I0J200000D01*
G01*
G37*
G36*
G01*
X165680000Y-87875000D02*
X165680000Y-86875000D01*
G75*
G02*
X165880000Y-86675000I200000J0D01*
G01*
X167480000Y-86675000D01*
G75*
G02*
X167680000Y-86875000I0J-200000D01*
G01*
X167680000Y-87875000D01*
G75*
G02*
X167480000Y-88075000I-200000J0D01*
G01*
X165880000Y-88075000D01*
G75*
G02*
X165680000Y-87875000I0J200000D01*
G01*
G37*
G36*
G01*
X165680000Y-89625000D02*
X165680000Y-88625000D01*
G75*
G02*
X165880000Y-88425000I200000J0D01*
G01*
X167480000Y-88425000D01*
G75*
G02*
X167680000Y-88625000I0J-200000D01*
G01*
X167680000Y-89625000D01*
G75*
G02*
X167480000Y-89825000I-200000J0D01*
G01*
X165880000Y-89825000D01*
G75*
G02*
X165680000Y-89625000I0J200000D01*
G01*
G37*
X188200000Y-105300000D03*
X185660000Y-105300000D03*
X183120000Y-105300000D03*
X180580000Y-105300000D03*
D20*
X182180000Y-114600000D03*
X183680000Y-118800000D03*
X187680000Y-118800000D03*
X190680000Y-118800000D03*
D21*
X185480000Y-116700000D03*
X192480000Y-116700000D03*
D20*
X187680000Y-112850000D03*
X190680000Y-112850000D03*
X182180000Y-117050000D03*
X183680000Y-112850000D03*
D21*
X192480000Y-114950000D03*
X185480000Y-114950000D03*
G36*
G01*
X179362120Y-113371500D02*
X179362120Y-112228500D01*
G75*
G02*
X179562120Y-112028500I200000J0D01*
G01*
X180197120Y-112028500D01*
G75*
G02*
X180397120Y-112228500I0J-200000D01*
G01*
X180397120Y-113371500D01*
G75*
G02*
X180197120Y-113571500I-200000J0D01*
G01*
X179562120Y-113571500D01*
G75*
G02*
X179362120Y-113371500I0J200000D01*
G01*
G37*
G36*
G01*
X180362880Y-113371500D02*
X180362880Y-112228500D01*
G75*
G02*
X180562880Y-112028500I200000J0D01*
G01*
X181197880Y-112028500D01*
G75*
G02*
X181397880Y-112228500I0J-200000D01*
G01*
X181397880Y-113371500D01*
G75*
G02*
X181197880Y-113571500I-200000J0D01*
G01*
X180562880Y-113571500D01*
G75*
G02*
X180362880Y-113371500I0J200000D01*
G01*
G37*
G36*
G01*
X180570500Y-113190500D02*
X180189500Y-113190500D01*
G75*
G02*
X179989500Y-112990500I0J200000D01*
G01*
X179989500Y-112609500D01*
G75*
G02*
X180189500Y-112409500I200000J0D01*
G01*
X180570500Y-112409500D01*
G75*
G02*
X180770500Y-112609500I0J-200000D01*
G01*
X180770500Y-112990500D01*
G75*
G02*
X180570500Y-113190500I-200000J0D01*
G01*
G37*
D12*
X182724147Y-133180827D03*
X180022076Y-143265093D03*
D13*
X186744801Y-134403097D03*
X184115199Y-144216903D03*
D14*
X190434066Y-138021234D03*
X189951104Y-137891824D03*
X188636304Y-142798728D03*
X189119266Y-142928138D03*
G36*
G01*
X188347444Y-142971389D02*
X188347444Y-142971389D01*
G75*
G02*
X187875847Y-144267092I-883650J-412053D01*
G01*
X186742963Y-144795364D01*
G75*
G02*
X185447260Y-144323767I-412053J883650D01*
G01*
X185447260Y-144323767D01*
G75*
G02*
X185918857Y-143028064I883650J412053D01*
G01*
X187051741Y-142499792D01*
G75*
G02*
X188347444Y-142971389I412053J-883650D01*
G01*
G37*
X190994304Y-138171349D03*
G36*
G01*
X187951830Y-134976580D02*
X187951830Y-134976580D01*
G75*
G02*
X189309740Y-135216016I559237J-798673D01*
G01*
X190026710Y-136239956D01*
G75*
G02*
X189787274Y-137597866I-798673J-559237D01*
G01*
X189787274Y-137597866D01*
G75*
G02*
X188429364Y-137358430I-559237J798673D01*
G01*
X187712394Y-136334490D01*
G75*
G02*
X187951830Y-134976580I798673J559237D01*
G01*
G37*
X189679503Y-143078252D03*
D15*
X191128962Y-140837032D03*
G36*
G01*
X189771438Y-134328276D02*
X189771438Y-134328276D01*
G75*
G02*
X190920439Y-134530875I473201J-675800D01*
G01*
X191465337Y-135309069D01*
G75*
G02*
X191262738Y-136458070I-675800J-473201D01*
G01*
X191262738Y-136458070D01*
G75*
G02*
X190113737Y-136255471I-473201J675800D01*
G01*
X189568839Y-135477277D01*
G75*
G02*
X189771438Y-134328276I675800J473201D01*
G01*
G37*
D16*
X184006495Y-144622592D03*
X186853505Y-133997408D03*
D17*
X185430000Y-139310000D03*
G36*
G01*
X189055334Y-144696212D02*
X189055334Y-144696212D01*
G75*
G02*
X188656290Y-145792576I-747704J-348660D01*
G01*
X187795298Y-146194064D01*
G75*
G02*
X186698934Y-145795020I-348660J747704D01*
G01*
X186698934Y-145795020D01*
G75*
G02*
X187097978Y-144698656I747704J348660D01*
G01*
X187958970Y-144297168D01*
G75*
G02*
X189055334Y-144696212I348660J-747704D01*
G01*
G37*
G36*
G01*
X181510015Y-134563182D02*
X182475941Y-134822001D01*
G75*
G02*
X182617362Y-135066950I-51764J-193185D01*
G01*
X182203252Y-136612431D01*
G75*
G02*
X181958303Y-136753852I-193185J51764D01*
G01*
X180992377Y-136495033D01*
G75*
G02*
X180850956Y-136250084I51764J193185D01*
G01*
X181265066Y-134704603D01*
G75*
G02*
X181510015Y-134563182I193185J-51764D01*
G01*
G37*
G36*
G01*
X179819645Y-134110248D02*
X180785571Y-134369067D01*
G75*
G02*
X180926992Y-134614016I-51764J-193185D01*
G01*
X180512882Y-136159497D01*
G75*
G02*
X180267933Y-136300918I-193185J51764D01*
G01*
X179302007Y-136042099D01*
G75*
G02*
X179160586Y-135797150I51764J193185D01*
G01*
X179574696Y-134251669D01*
G75*
G02*
X179819645Y-134110248I193185J-51764D01*
G01*
G37*
G36*
G01*
X180267683Y-139199626D02*
X181233609Y-139458445D01*
G75*
G02*
X181375030Y-139703394I-51764J-193185D01*
G01*
X180960920Y-141248875D01*
G75*
G02*
X180715971Y-141390296I-193185J51764D01*
G01*
X179750045Y-141131477D01*
G75*
G02*
X179608624Y-140886528I51764J193185D01*
G01*
X180022734Y-139341047D01*
G75*
G02*
X180267683Y-139199626I193185J-51764D01*
G01*
G37*
G36*
G01*
X178577313Y-138746692D02*
X179543239Y-139005511D01*
G75*
G02*
X179684660Y-139250460I-51764J-193185D01*
G01*
X179270550Y-140795941D01*
G75*
G02*
X179025601Y-140937362I-193185J51764D01*
G01*
X178059675Y-140678543D01*
G75*
G02*
X177918254Y-140433594I51764J193185D01*
G01*
X178332364Y-138888113D01*
G75*
G02*
X178577313Y-138746692I193185J-51764D01*
G01*
G37*
D12*
X169500000Y-70550000D03*
X159060000Y-70550000D03*
D13*
X169360000Y-74750000D03*
X159200000Y-74750000D03*
D14*
X166820000Y-79250000D03*
X166820000Y-78750000D03*
X161740000Y-78750000D03*
X161740000Y-79250000D03*
G36*
G01*
X161498460Y-78515671D02*
X161498460Y-78515671D01*
G75*
G02*
X160124849Y-78395496I-626718J746893D01*
G01*
X159321365Y-77437940D01*
G75*
G02*
X159441540Y-76064329I746893J626718D01*
G01*
X159441540Y-76064329D01*
G75*
G02*
X160815151Y-76184504I626718J-746893D01*
G01*
X161618635Y-77142060D01*
G75*
G02*
X161498460Y-78515671I-746893J-626718D01*
G01*
G37*
X166820000Y-79830000D03*
G36*
G01*
X169118460Y-76064329D02*
X169118460Y-76064329D01*
G75*
G02*
X169238635Y-77437940I-626718J-746893D01*
G01*
X168435151Y-78395496D01*
G75*
G02*
X167061540Y-78515671I-746893J626718D01*
G01*
X167061540Y-78515671D01*
G75*
G02*
X166941365Y-77142060I626718J746893D01*
G01*
X167744849Y-76184504D01*
G75*
G02*
X169118460Y-76064329I746893J-626718D01*
G01*
G37*
X161740000Y-79830000D03*
D15*
X164280000Y-80650000D03*
G36*
G01*
X170215624Y-77654142D02*
X170215624Y-77654142D01*
G75*
G02*
X170317311Y-78816429I-530300J-631987D01*
G01*
X169706663Y-79544171D01*
G75*
G02*
X168544376Y-79645858I-631987J530300D01*
G01*
X168544376Y-79645858D01*
G75*
G02*
X168442689Y-78483571I530300J631987D01*
G01*
X169053337Y-77755829D01*
G75*
G02*
X170215624Y-77654142I631987J-530300D01*
G01*
G37*
D16*
X158780000Y-74750000D03*
X169780000Y-74750000D03*
D17*
X164280000Y-74750000D03*
G36*
G01*
X160015624Y-79645858D02*
X160015624Y-79645858D01*
G75*
G02*
X158853337Y-79544171I-530300J631987D01*
G01*
X158242689Y-78816429D01*
G75*
G02*
X158344376Y-77654142I631987J530300D01*
G01*
X158344376Y-77654142D01*
G75*
G02*
X159506663Y-77755829I530300J-631987D01*
G01*
X160117311Y-78483571D01*
G75*
G02*
X160015624Y-79645858I-631987J-530300D01*
G01*
G37*
D12*
X169500000Y-89550000D03*
X159060000Y-89550000D03*
D13*
X169360000Y-93750000D03*
X159200000Y-93750000D03*
D14*
X166820000Y-98250000D03*
X166820000Y-97750000D03*
X161740000Y-97750000D03*
X161740000Y-98250000D03*
G36*
G01*
X161498460Y-97515671D02*
X161498460Y-97515671D01*
G75*
G02*
X160124849Y-97395496I-626718J746893D01*
G01*
X159321365Y-96437940D01*
G75*
G02*
X159441540Y-95064329I746893J626718D01*
G01*
X159441540Y-95064329D01*
G75*
G02*
X160815151Y-95184504I626718J-746893D01*
G01*
X161618635Y-96142060D01*
G75*
G02*
X161498460Y-97515671I-746893J-626718D01*
G01*
G37*
X166820000Y-98830000D03*
G36*
G01*
X169118460Y-95064329D02*
X169118460Y-95064329D01*
G75*
G02*
X169238635Y-96437940I-626718J-746893D01*
G01*
X168435151Y-97395496D01*
G75*
G02*
X167061540Y-97515671I-746893J626718D01*
G01*
X167061540Y-97515671D01*
G75*
G02*
X166941365Y-96142060I626718J746893D01*
G01*
X167744849Y-95184504D01*
G75*
G02*
X169118460Y-95064329I746893J-626718D01*
G01*
G37*
X161740000Y-98830000D03*
D15*
X164280000Y-99650000D03*
G36*
G01*
X170215624Y-96654142D02*
X170215624Y-96654142D01*
G75*
G02*
X170317311Y-97816429I-530300J-631987D01*
G01*
X169706663Y-98544171D01*
G75*
G02*
X168544376Y-98645858I-631987J530300D01*
G01*
X168544376Y-98645858D01*
G75*
G02*
X168442689Y-97483571I530300J631987D01*
G01*
X169053337Y-96755829D01*
G75*
G02*
X170215624Y-96654142I631987J-530300D01*
G01*
G37*
D16*
X158780000Y-93750000D03*
X169780000Y-93750000D03*
D17*
X164280000Y-93750000D03*
G36*
G01*
X160015624Y-98645858D02*
X160015624Y-98645858D01*
G75*
G02*
X158853337Y-98544171I-530300J631987D01*
G01*
X158242689Y-97816429D01*
G75*
G02*
X158344376Y-96654142I631987J530300D01*
G01*
X158344376Y-96654142D01*
G75*
G02*
X159506663Y-96755829I530300J-631987D01*
G01*
X160117311Y-97483571D01*
G75*
G02*
X160015624Y-98645858I-631987J-530300D01*
G01*
G37*
D12*
X169500000Y-108550000D03*
X159060000Y-108550000D03*
D13*
X169360000Y-112750000D03*
X159200000Y-112750000D03*
D14*
X166820000Y-117250000D03*
X166820000Y-116750000D03*
X161740000Y-116750000D03*
X161740000Y-117250000D03*
G36*
G01*
X161498460Y-116515671D02*
X161498460Y-116515671D01*
G75*
G02*
X160124849Y-116395496I-626718J746893D01*
G01*
X159321365Y-115437940D01*
G75*
G02*
X159441540Y-114064329I746893J626718D01*
G01*
X159441540Y-114064329D01*
G75*
G02*
X160815151Y-114184504I626718J-746893D01*
G01*
X161618635Y-115142060D01*
G75*
G02*
X161498460Y-116515671I-746893J-626718D01*
G01*
G37*
X166820000Y-117830000D03*
G36*
G01*
X169118460Y-114064329D02*
X169118460Y-114064329D01*
G75*
G02*
X169238635Y-115437940I-626718J-746893D01*
G01*
X168435151Y-116395496D01*
G75*
G02*
X167061540Y-116515671I-746893J626718D01*
G01*
X167061540Y-116515671D01*
G75*
G02*
X166941365Y-115142060I626718J746893D01*
G01*
X167744849Y-114184504D01*
G75*
G02*
X169118460Y-114064329I746893J-626718D01*
G01*
G37*
X161740000Y-117830000D03*
D15*
X164280000Y-118650000D03*
G36*
G01*
X170215624Y-115654142D02*
X170215624Y-115654142D01*
G75*
G02*
X170317311Y-116816429I-530300J-631987D01*
G01*
X169706663Y-117544171D01*
G75*
G02*
X168544376Y-117645858I-631987J530300D01*
G01*
X168544376Y-117645858D01*
G75*
G02*
X168442689Y-116483571I530300J631987D01*
G01*
X169053337Y-115755829D01*
G75*
G02*
X170215624Y-115654142I631987J-530300D01*
G01*
G37*
D16*
X158780000Y-112750000D03*
X169780000Y-112750000D03*
D17*
X164280000Y-112750000D03*
G36*
G01*
X160015624Y-117645858D02*
X160015624Y-117645858D01*
G75*
G02*
X158853337Y-117544171I-530300J631987D01*
G01*
X158242689Y-116816429D01*
G75*
G02*
X158344376Y-115654142I631987J530300D01*
G01*
X158344376Y-115654142D01*
G75*
G02*
X159506663Y-115755829I530300J-631987D01*
G01*
X160117311Y-116483571D01*
G75*
G02*
X160015624Y-117645858I-631987J-530300D01*
G01*
G37*
D12*
X169462091Y-132339725D03*
X159022091Y-132339725D03*
D13*
X169322091Y-136539725D03*
X159162091Y-136539725D03*
D14*
X166782091Y-141039725D03*
X166782091Y-140539725D03*
X161702091Y-140539725D03*
X161702091Y-141039725D03*
G36*
G01*
X161460551Y-140305396D02*
X161460551Y-140305396D01*
G75*
G02*
X160086940Y-140185221I-626718J746893D01*
G01*
X159283456Y-139227665D01*
G75*
G02*
X159403631Y-137854054I746893J626718D01*
G01*
X159403631Y-137854054D01*
G75*
G02*
X160777242Y-137974229I626718J-746893D01*
G01*
X161580726Y-138931785D01*
G75*
G02*
X161460551Y-140305396I-746893J-626718D01*
G01*
G37*
X166782091Y-141619725D03*
G36*
G01*
X169080551Y-137854054D02*
X169080551Y-137854054D01*
G75*
G02*
X169200726Y-139227665I-626718J-746893D01*
G01*
X168397242Y-140185221D01*
G75*
G02*
X167023631Y-140305396I-746893J626718D01*
G01*
X167023631Y-140305396D01*
G75*
G02*
X166903456Y-138931785I626718J746893D01*
G01*
X167706940Y-137974229D01*
G75*
G02*
X169080551Y-137854054I746893J-626718D01*
G01*
G37*
X161702091Y-141619725D03*
D15*
X164242091Y-142439725D03*
G36*
G01*
X170177715Y-139443867D02*
X170177715Y-139443867D01*
G75*
G02*
X170279402Y-140606154I-530300J-631987D01*
G01*
X169668754Y-141333896D01*
G75*
G02*
X168506467Y-141435583I-631987J530300D01*
G01*
X168506467Y-141435583D01*
G75*
G02*
X168404780Y-140273296I530300J631987D01*
G01*
X169015428Y-139545554D01*
G75*
G02*
X170177715Y-139443867I631987J-530300D01*
G01*
G37*
D16*
X158742091Y-136539725D03*
X169742091Y-136539725D03*
D17*
X164242091Y-136539725D03*
G36*
G01*
X159977715Y-141435583D02*
X159977715Y-141435583D01*
G75*
G02*
X158815428Y-141333896I-530300J631987D01*
G01*
X158204780Y-140606154D01*
G75*
G02*
X158306467Y-139443867I631987J530300D01*
G01*
X158306467Y-139443867D01*
G75*
G02*
X159468754Y-139545554I530300J-631987D01*
G01*
X160079402Y-140273296D01*
G75*
G02*
X159977715Y-141435583I-631987J-530300D01*
G01*
G37*
D18*
X188820000Y-108000000D03*
X183740000Y-108000000D03*
X188820000Y-110300000D03*
X183740000Y-110300000D03*
G36*
G01*
X187583500Y-100232120D02*
X188726500Y-100232120D01*
G75*
G02*
X188926500Y-100432120I0J-200000D01*
G01*
X188926500Y-101067120D01*
G75*
G02*
X188726500Y-101267120I-200000J0D01*
G01*
X187583500Y-101267120D01*
G75*
G02*
X187383500Y-101067120I0J200000D01*
G01*
X187383500Y-100432120D01*
G75*
G02*
X187583500Y-100232120I200000J0D01*
G01*
G37*
G36*
G01*
X187583500Y-101232880D02*
X188726500Y-101232880D01*
G75*
G02*
X188926500Y-101432880I0J-200000D01*
G01*
X188926500Y-102067880D01*
G75*
G02*
X188726500Y-102267880I-200000J0D01*
G01*
X187583500Y-102267880D01*
G75*
G02*
X187383500Y-102067880I0J200000D01*
G01*
X187383500Y-101432880D01*
G75*
G02*
X187583500Y-101232880I200000J0D01*
G01*
G37*
G36*
G01*
X185083500Y-100232120D02*
X186226500Y-100232120D01*
G75*
G02*
X186426500Y-100432120I0J-200000D01*
G01*
X186426500Y-101067120D01*
G75*
G02*
X186226500Y-101267120I-200000J0D01*
G01*
X185083500Y-101267120D01*
G75*
G02*
X184883500Y-101067120I0J200000D01*
G01*
X184883500Y-100432120D01*
G75*
G02*
X185083500Y-100232120I200000J0D01*
G01*
G37*
G36*
G01*
X185083500Y-101232880D02*
X186226500Y-101232880D01*
G75*
G02*
X186426500Y-101432880I0J-200000D01*
G01*
X186426500Y-102067880D01*
G75*
G02*
X186226500Y-102267880I-200000J0D01*
G01*
X185083500Y-102267880D01*
G75*
G02*
X184883500Y-102067880I0J200000D01*
G01*
X184883500Y-101432880D01*
G75*
G02*
X185083500Y-101232880I200000J0D01*
G01*
G37*
G36*
G01*
X182583500Y-100232120D02*
X183726500Y-100232120D01*
G75*
G02*
X183926500Y-100432120I0J-200000D01*
G01*
X183926500Y-101067120D01*
G75*
G02*
X183726500Y-101267120I-200000J0D01*
G01*
X182583500Y-101267120D01*
G75*
G02*
X182383500Y-101067120I0J200000D01*
G01*
X182383500Y-100432120D01*
G75*
G02*
X182583500Y-100232120I200000J0D01*
G01*
G37*
G36*
G01*
X182583500Y-101232880D02*
X183726500Y-101232880D01*
G75*
G02*
X183926500Y-101432880I0J-200000D01*
G01*
X183926500Y-102067880D01*
G75*
G02*
X183726500Y-102267880I-200000J0D01*
G01*
X182583500Y-102267880D01*
G75*
G02*
X182383500Y-102067880I0J200000D01*
G01*
X182383500Y-101432880D01*
G75*
G02*
X182583500Y-101232880I200000J0D01*
G01*
G37*
G36*
G01*
X180083500Y-100232120D02*
X181226500Y-100232120D01*
G75*
G02*
X181426500Y-100432120I0J-200000D01*
G01*
X181426500Y-101067120D01*
G75*
G02*
X181226500Y-101267120I-200000J0D01*
G01*
X180083500Y-101267120D01*
G75*
G02*
X179883500Y-101067120I0J200000D01*
G01*
X179883500Y-100432120D01*
G75*
G02*
X180083500Y-100232120I200000J0D01*
G01*
G37*
G36*
G01*
X180083500Y-101232880D02*
X181226500Y-101232880D01*
G75*
G02*
X181426500Y-101432880I0J-200000D01*
G01*
X181426500Y-102067880D01*
G75*
G02*
X181226500Y-102267880I-200000J0D01*
G01*
X180083500Y-102267880D01*
G75*
G02*
X179883500Y-102067880I0J200000D01*
G01*
X179883500Y-101432880D01*
G75*
G02*
X180083500Y-101232880I200000J0D01*
G01*
G37*
G36*
G01*
X174242000Y-102058000D02*
X174242000Y-103582000D01*
G75*
G02*
X174042000Y-103782000I-200000J0D01*
G01*
X172518000Y-103782000D01*
G75*
G02*
X172318000Y-103582000I0J200000D01*
G01*
X172318000Y-102058000D01*
G75*
G02*
X172518000Y-101858000I200000J0D01*
G01*
X174042000Y-101858000D01*
G75*
G02*
X174242000Y-102058000I0J-200000D01*
G01*
G37*
G36*
G01*
X174242000Y-104598000D02*
X174242000Y-106122000D01*
G75*
G02*
X174042000Y-106322000I-200000J0D01*
G01*
X172518000Y-106322000D01*
G75*
G02*
X172318000Y-106122000I0J200000D01*
G01*
X172318000Y-104598000D01*
G75*
G02*
X172518000Y-104398000I200000J0D01*
G01*
X174042000Y-104398000D01*
G75*
G02*
X174242000Y-104598000I0J-200000D01*
G01*
G37*
G36*
G01*
X174242000Y-107138000D02*
X174242000Y-108662000D01*
G75*
G02*
X174042000Y-108862000I-200000J0D01*
G01*
X172518000Y-108862000D01*
G75*
G02*
X172318000Y-108662000I0J200000D01*
G01*
X172318000Y-107138000D01*
G75*
G02*
X172518000Y-106938000I200000J0D01*
G01*
X174042000Y-106938000D01*
G75*
G02*
X174242000Y-107138000I0J-200000D01*
G01*
G37*
D17*
X177030000Y-115750000D03*
X192880000Y-123210000D03*
D18*
X180280000Y-108000000D03*
X180280000Y-110300000D03*
D22*
X192180000Y-103750000D03*
X192180000Y-110250000D03*
M02*
